<svg width="150" height="69" xmlns="http://www.w3.org/2000/svg"><path d="M33.017 27.265l5.785 15.79-11.328.105c.137-1.28 2.142-6.32 2.677-7.905l2.678-7.686c.146-.283.083-.167.188-.304zm65.016 1.838h7.706v11.222l-7.706.01c-.987 3.959-4.03 7.634-7.254 9.943-11.664 8.368-29.595.378-29.658-15.475-.042-9.879 7.234-17.386 15.958-18.782 9.26-1.47 18.75 4.557 20.954 13.082zM0 68.399v.147l17.595.02 3.58-9.437c.315-.64-.01-.273.43-.504l23.086.02c.336 1.135 3.496 9.26 3.916 9.775l18.33.157-1.008-2.593c4.987 1.554 8.85 3.087 15.538 3.013 7.59-.094 14.855-3.517 19.715-7.422.872-.693 1.491-1.197 2.3-2.037.735-.745 1.47-1.47 2.236-2.225l.02 11.684h16.357V56.546c0-1.963-.241-11.38.095-12.504l26.12-.063V28.662l-26.078.01-.147-.2c-.158-.524-.063-5.365-.063-5.973 0-1.28-.305-5.48.168-6.352l27.81-.063V.242h-44.324l.063 11.894c-2.834-2.655-2.299-2.666-6.005-5.364-7.412-5.397-17.826-7.612-27.16-5.46-6.498 1.502-11.936 4.525-16.576 9.082-.525.514-.861.934-1.396 1.46-2.079 2.015-4.935 6.708-6.1 9.647l-.514 1.03c-.672-2.09-5.69-13.807-6.96-16.914-.62-1.512-1.638-4.42-2.394-5.617H27.096L0 68.4z" fill="#FFF" fill-rule="nonzero"/></svg>