<svg width="111" height="150" xmlns="http://www.w3.org/2000/svg"><g fill-rule="nonzero" fill="none"><path d="M35.79 115.956s-5.723 3.328 4.071 4.454c11.865 1.353 17.93 1.16 31.005-1.316 0 0 3.437 2.156 8.238 4.023-29.311 12.562-66.337-.728-43.315-7.16M32.208 99.563s-6.418 4.75 3.383 5.764c12.675 1.308 22.684 1.415 40.004-1.92 0 0 2.396 2.428 6.163 3.757-35.44 10.363-74.913.817-49.55-7.6" fill="#FFF"/><path d="M62.403 71.755c7.222 8.315-1.898 15.798-1.898 15.798s18.339-9.467 9.917-21.322c-7.867-11.056-13.899-16.549 18.757-35.488 0 0-51.259 12.802-26.776 41.012" fill="#696969"/><path d="M101.17 128.082s4.234 3.489-4.664 6.188c-16.919 5.125-70.419 6.673-85.28.204-5.343-2.324 4.676-5.55 7.827-6.226 3.287-.713 5.165-.58 5.165-.58-5.941-4.186-38.403 8.218-16.489 11.77 59.763 9.692 108.942-4.364 93.44-11.356M38.54 82.578s-27.213 6.464-9.636 8.81c7.421.994 22.215.77 35.996-.385 11.262-.95 22.57-2.97 22.57-2.97s-3.97 1.7-6.844 3.662c-27.634 7.268-81.02 3.887-65.65-3.547 12.997-6.283 23.565-5.57 23.565-5.57M87.358 109.865c28.092-14.597 15.104-28.626 6.038-26.736-2.222.463-3.213.863-3.213.863s.825-1.292 2.4-1.851c17.936-6.306 31.729 18.597-5.79 28.46 0 0 .435-.388.565-.736" fill="#FFF"/><path d="M70.422.161s15.557 15.563-14.756 39.495c-24.309 19.197-5.543 30.142-.01 42.648-14.19-12.802-24.603-24.072-17.617-34.56C48.293 32.347 76.7 24.882 70.422.16" fill="#696969"/><path d="M41.301 149.421c26.965 1.726 68.372-.957 69.353-13.716 0 0-1.885 4.837-22.285 8.678-23.015 4.33-51.4 3.825-68.236 1.05 0 0 3.446 2.852 21.168 3.988" fill="#FFF"/></g></svg>