<svg width="124" height="111" xmlns="http://www.w3.org/2000/svg"><g fill="#FFF" fill-rule="nonzero"><path d="M123.824 55.07c0-8.192-10.258-15.955-25.985-20.768 3.63-16.03 2.016-28.782-5.091-32.865C91.11.479 89.194.025 87.102.025v5.62c1.16 0 2.092.227 2.874.656 3.427 1.966 4.914 9.451 3.755 19.079-.277 2.369-.731 4.864-1.285 7.41-4.94-1.21-10.334-2.143-16.005-2.748-3.402-4.662-6.93-8.896-10.484-12.601 8.216-7.637 15.928-11.82 21.17-11.82V0c-6.93 0-16.003 4.94-25.177 13.509C52.776 4.99 43.702.1 36.772.1v5.62c5.217 0 12.954 4.159 21.17 11.745a119.039 119.039 0 00-10.409 12.576c-5.696.605-11.09 1.538-16.029 2.773a76.035 76.035 0 01-1.31-7.31c-1.185-9.627.277-17.112 3.68-19.103.755-.454 1.738-.656 2.898-.656V.126c-2.118 0-4.033.454-5.696 1.411-7.083 4.083-8.67 16.811-5.016 32.79C10.384 39.166.176 46.903.176 55.069c0 8.191 10.258 15.954 25.985 20.768-3.63 16.029-2.016 28.782 5.091 32.865 1.638.957 3.554 1.411 5.67 1.411 6.932 0 16.005-4.94 25.179-13.509 9.174 8.519 18.247 13.408 25.178 13.408 2.117 0 4.032-.453 5.696-1.411 7.082-4.083 8.67-16.81 5.015-32.79 15.626-4.813 25.834-12.576 25.834-20.742zM91.009 38.258c-.933 3.25-2.092 6.603-3.402 9.955a119.275 119.275 0 00-3.302-6.049c-1.16-2.016-2.394-3.982-3.63-5.898 3.58.53 7.032 1.185 10.334 1.992zM79.466 65.1c-1.966 3.402-3.982 6.628-6.074 9.628-3.755.327-7.561.504-11.392.504-3.806 0-7.611-.177-11.341-.48-2.092-2.998-4.134-6.2-6.1-9.576a131.28 131.28 0 01-5.242-10.031 131.427 131.427 0 015.217-10.056c1.966-3.403 3.982-6.629 6.074-9.628 3.755-.328 7.561-.504 11.392-.504 3.806 0 7.611.176 11.341.479 2.092 2.999 4.134 6.2 6.1 9.577a131.28 131.28 0 015.242 10.03A141.115 141.115 0 0179.466 65.1zm8.14-3.276a108.011 108.011 0 013.479 10.03c-3.302.807-6.78 1.487-10.384 2.017 1.235-1.94 2.47-3.932 3.63-5.973a143.16 143.16 0 003.276-6.074zM62.05 88.715c-2.343-2.42-4.687-5.116-7.006-8.065 2.268.101 4.587.177 6.93.177 2.37 0 4.714-.05 7.007-.177a98.375 98.375 0 01-6.93 8.065zM43.3 73.871c-3.58-.53-7.033-1.185-10.334-1.991.932-3.252 2.092-6.604 3.402-9.956a119.275 119.275 0 003.302 6.05 166.922 166.922 0 003.63 5.897zm18.624-52.448c2.344 2.42 4.688 5.116 7.007 8.065-2.268-.101-4.587-.177-6.931-.177-2.37 0-4.713.05-7.007.177a98.375 98.375 0 016.931-8.065zm-18.65 14.844c-1.235 1.941-2.47 3.932-3.63 5.974a142.375 142.375 0 00-3.276 6.048 108.011 108.011 0 01-3.478-10.03 122.4 122.4 0 0110.384-1.992zM20.465 67.822c-8.922-3.806-14.693-8.796-14.693-12.753 0-3.957 5.771-8.972 14.693-12.753 2.168-.932 4.537-1.764 6.981-2.545 1.437 4.94 3.327 10.081 5.671 15.349-2.319 5.242-4.184 10.358-5.595 15.273a76.562 76.562 0 01-7.057-2.571zm13.56 36.015c-3.428-1.965-4.915-9.45-3.756-19.078.277-2.37.731-4.865 1.285-7.41 4.94 1.21 10.334 2.142 16.005 2.747 3.402 4.663 6.93 8.897 10.484 12.602-8.216 7.636-15.928 11.82-21.17 11.82-1.135-.025-2.093-.252-2.849-.68zm59.782-19.204c1.184 9.627-.278 17.113-3.68 19.104-.756.453-1.74.655-2.899.655-5.217 0-12.954-4.159-21.17-11.745a119.039 119.039 0 0010.409-12.576c5.696-.605 11.09-1.538 16.029-2.773.58 2.546 1.033 4.99 1.31 7.335zm9.703-16.811c-2.168.932-4.537 1.764-6.982 2.545-1.436-4.94-3.326-10.08-5.67-15.348 2.318-5.243 4.183-10.359 5.595-15.273a79.936 79.936 0 017.082 2.57c8.922 3.806 14.693 8.796 14.693 12.753-.025 3.957-5.796 8.972-14.718 12.753z"/><circle cx="61.975" cy="55.069" r="11.518"/></g></svg>