<svg width="143" height="107" xmlns="http://www.w3.org/2000/svg"><path d="M123.101 61.442c-5 .028-9.33 1.227-12.96 3.012-1.341-2.65-2.682-4.963-2.905-6.692-.252-2.008-.559-3.235-.252-5.632.308-2.398 1.704-5.8 1.704-6.079-.028-.25-.307-1.478-3.184-1.506-2.877-.027-5.363.558-5.642 1.31a31.98 31.98 0 00-1.201 4.267c-.503 2.621-5.754 11.906-8.743 16.785-.978-1.896-1.816-3.569-1.983-4.907-.252-2.007-.559-3.234-.252-5.632.308-2.398 1.704-5.8 1.704-6.079-.028-.25-.307-1.478-3.184-1.505-2.877-.028-5.363.557-5.642 1.31-.28.753-.587 2.537-1.201 4.266-.587 1.729-7.57 17.232-9.386 21.275a86.244 86.244 0 01-2.318 4.823c-.587 1.116-.028.084-.084.196l-.782 1.477v.028c-.391.697-.81 1.367-1.005 1.367-.14 0-.42-1.869.055-4.434 1.034-5.381 3.548-13.774 3.52-14.08 0-.14.475-1.618-1.62-2.37-2.04-.753-2.765.501-2.933.501-.168 0-.307.446-.307.446s2.262-9.452-4.33-9.452c-4.134 0-9.832 4.49-12.653 8.588-1.788.976-5.587 3.04-9.609 5.242-1.536.836-3.128 1.729-4.636 2.537l-.308-.334c-7.988-8.505-22.764-14.527-22.15-25.96.224-4.154 1.676-15.112 28.38-28.384 21.87-10.874 39.383-7.89 42.428-1.255 4.33 9.48-9.357 27.102-32.094 29.64-8.659.976-13.212-2.37-14.357-3.625-1.201-1.31-1.369-1.366-1.816-1.115-.726.39-.279 1.561 0 2.258.67 1.757 3.464 4.88 8.212 6.441 4.162 1.366 14.33 2.12 26.62-2.62 13.77-5.326 24.524-20.104 21.368-32.456C86.343.518 65.449-3.608 45.7 3.39c-11.76 4.183-24.496 10.707-33.658 19.267C1.15 32.807-.582 41.673.144 45.354c2.542 13.133 20.67 21.693 27.932 28.022-.363.195-.698.39-1.005.558C23.439 75.718 9.613 82.94 6.149 90.58c-3.91 8.644.615 14.861 3.632 15.698 9.329 2.593 18.882-2.063 24.05-9.731 5.139-7.668 4.524-17.622 2.15-22.167l-.084-.167 2.85-1.673a169.996 169.996 0 015.25-2.956c-.893 2.426-1.536 5.298-1.871 9.48-.391 4.908 1.62 11.265 4.274 13.774 1.173 1.088 2.57 1.116 3.435 1.116 3.073 0 4.47-2.538 6.006-5.577 1.9-3.708 3.575-8.002 3.575-8.002s-2.095 11.627 3.631 11.627c2.095 0 4.19-2.705 5.14-4.099v.028s.056-.084.167-.279c.224-.334.335-.53.335-.53v-.055c.838-1.45 2.71-4.768 5.503-10.261 3.603-7.082 7.067-15.95 7.067-15.95s.335 2.176 1.369 5.745c.614 2.119 1.955 4.433 2.988 6.692-.838 1.17-1.34 1.84-1.34 1.84l.028.028c-.67.892-1.425 1.84-2.207 2.788-2.85 3.402-6.257 7.277-6.704 8.393-.53 1.31-.419 2.286.615 3.067.754.558 2.095.67 3.52.558 2.569-.168 4.357-.81 5.25-1.2a18.198 18.198 0 004.525-2.37c2.794-2.063 4.497-4.99 4.33-8.894-.084-2.147-.782-4.266-1.648-6.274.251-.362.503-.725.754-1.115 4.413-6.441 7.821-13.523 7.821-13.523s.335 2.175 1.369 5.744c.53 1.812 1.592 3.792 2.542 5.744-4.134 3.373-6.732 7.277-7.626 9.842-1.648 4.74-.363 6.887 2.067 7.39 1.09.222 2.654-.28 3.827-.782a17.339 17.339 0 004.832-2.481c2.793-2.064 5.475-4.935 5.335-8.811-.084-1.785-.559-3.541-1.201-5.214 3.52-1.45 8.072-2.287 13.854-1.59 12.43 1.45 14.888 9.202 14.413 12.436-.475 3.235-3.072 5.02-3.938 5.577-.866.53-1.145.725-1.062 1.115.112.586.503.558 1.257.446 1.034-.167 6.536-2.649 6.76-8.616.335-7.667-6.955-16.032-19.888-15.949zM26.95 93.692c-4.161 4.543-10.022 6.264-12.513 4.797-2.69-1.552-1.642-8.24 3.482-13.064 3.114-2.935 7.163-5.644 9.824-7.309.594-.367 1.5-.903 2.576-1.552.17-.113.283-.169.283-.169.198-.113.425-.254.651-.395 1.897 6.885.085 12.923-4.303 17.692zm30.17-20.365c-1.47 3.403-4.586 12.143-6.46 11.653-1.616-.408-2.597-7.024-.318-13.559 1.154-3.294 3.605-7.215 5.048-8.74 2.336-2.45 4.875-3.267 5.51-2.26.75 1.307-2.857 10.782-3.78 12.906zm25.342 12.23c-.609.324-1.163.56-1.412.383-.194-.118.25-.56.25-.56s3.073-3.498 4.292-5.116c.692-.94 1.523-2.029 2.409-3.264v.353c0 4.234-3.822 7.057-5.539 8.204zM100.284 81c-.52-.332-.455-1.357 1.297-4.57.68-1.275 2.237-3.408 4.929-5.43.324.831.519 1.634.486 2.382-.032 4.986-4.183 6.842-6.712 7.618z" fill="#FFF" fill-rule="nonzero"/></svg>