<svg width="114" height="129" xmlns="http://www.w3.org/2000/svg"><g fill-rule="nonzero" fill="none"><path fill="#ADADAD" d="M10.375 115.843L0 0h114l-10.386 115.825L56.93 128.71z"/><g fill="#EBEBEB"><path d="M57 52.82H38.1L36.796 38.24H57v-14.24H21.187l.342 3.82 3.51 39.241H57zM57 89.803l-.063.016-15.906-4.282-1.017-11.357H25.677l2.001 22.359 29.256 8.097.066-.018z"/></g><g fill="#FFF"><path d="M57.263 52.82v14.24h17.434l-1.643 18.468-15.791 4.287v14.814l29.025-8.09.213-2.406 3.327-37.489.345-3.824h-3.815zM57.263 23.999V38.239H91.46l.285-3.2.645-7.22.338-3.82z"/></g></g></svg>