<svg width="124" height="140" xmlns="http://www.w3.org/2000/svg"><path d="M106.185 48.09c14.59 15.622 23.28 32.854 13.946 55.746-6.75 16.55-21.828 30.212-40.05 35.82 9.858-6.857 16.316-18.248 16.316-31.147 0-10.186-4.03-19.426-10.577-26.246 12.152-3.482 21.058-14.651 21.058-27.9 0-2.154-.25-4.25-.693-6.273zM55.157 0c7.5 9.09 17.001 17.403 26.523 25.6a29.37 29.37 0 00-3.909-.268c-16.079 0-29.109 12.999-29.109 29.032a28.845 28.845 0 005.14 16.467C34.93 73.07 20.29 89.08 20.29 108.51c0 9.314 3.363 17.838 8.946 24.443C2.979 117.054-6.004 86.632 3.962 62.021 18.813 25.34 58.988 39.804 55.157 0zm3.187 86.468c12.2 0 22.094 9.868 22.094 22.04 0 12.173-9.893 22.043-22.094 22.043-12.206 0-22.1-9.87-22.1-22.042 0-12.173 9.894-22.04 22.1-22.04zm19.427-48.962c9.334 0 16.901 7.548 16.901 16.858 0 9.311-7.567 16.86-16.9 16.86-9.335 0-16.906-7.549-16.906-16.86 0-9.31 7.57-16.858 16.905-16.858z" fill="#FFF" fill-rule="nonzero"/></svg>