<svg width="124" height="123" xmlns="http://www.w3.org/2000/svg"><path d="M81.727 120.539h-.563l-.564-.563v-17.462c0-3.943-.564-7.322-2.255-10.138 12.964-2.254 27.055-9.013 27.055-34.36 0-6.759-2.255-12.955-6.2-18.024 1.127-3.38 1.69-9.576-1.127-17.461l-1.691-1.69s-1.127-.563-2.255-.563c-3.382 0-8.454 1.126-16.909 6.759-4.509-.564-9.582-1.69-15.218-1.69-5.636 0-10.71.563-15.782 1.69-7.89-5.07-13.527-6.196-16.909-6.196-1.127 0-1.69.563-2.254.563-.564 0-1.691 1.127-1.691 1.69-2.819 7.886-2.255 14.082-1.128 17.461-3.945 5.07-6.2 11.265-6.2 18.025 0 24.783 14.655 31.542 27.055 34.359-.564 1.126-1.127 2.816-1.691 4.506-1.127.563-2.818 1.126-5.073 1.126-2.254 0-4.509-.563-6.2-2.253l-.563-.563C31 95.192 31 94.63 30.436 94.63l-.563-.564-.564-.563c0-.563-4.509-7.322-12.4-7.886-2.818 0-5.073 1.127-5.636 2.817-1.128 2.816 2.254 5.069 3.945 6.196 0 0 3.382 1.69 5.637 7.885 1.127 3.943 6.2 11.266 18.036 11.266h3.945v7.885l-.563.564s-.564 0 0 0C16.909 112.089 0 88.433 0 61.959 0 27.6 27.618 0 62 0c34.382 0 62 27.6 62 61.96 0 26.473-16.91 50.13-42.273 58.579z" fill="#FFF" fill-rule="nonzero"/></svg>