<svg width="114" height="114" xmlns="http://www.w3.org/2000/svg"><g fill-rule="nonzero" fill="none"><path fill="#FFF" d="M.156.156h113.689v113.689H.156z"/><path d="M30.057 95.156l8.69-5.264c1.683 2.99 3.209 5.482 6.853 5.482 3.52 0 5.731-1.37 5.731-6.728V52.359h10.684v36.474c0 11.057-6.479 16.103-15.948 16.103-8.534 0-13.487-4.423-16.01-9.78M67.84 94.003l8.69-5.046c2.304 3.738 5.263 6.48 10.527 6.48 4.423 0 7.258-2.212 7.258-5.265 0-3.675-2.897-4.952-7.787-7.102l-2.679-1.152c-7.693-3.27-12.833-7.413-12.833-16.103 0-8.005 6.105-14.11 15.636-14.11 6.79 0 11.68 2.367 15.2 8.534l-8.316 5.327c-1.838-3.27-3.8-4.58-6.852-4.58-3.115 0-5.109 1.994-5.109 4.58 0 3.208 1.994 4.516 6.573 6.478l2.678 1.153c9.095 3.893 14.204 7.849 14.204 16.788 0 9.625-7.57 14.889-17.692 14.889-9.968.062-16.384-4.672-19.499-10.87" fill="#696969"/></g></svg>