<svg width="175" height="88" xmlns="http://www.w3.org/2000/svg"><defs><linearGradient x1="-6.913%" y1="43.22%" x2="115.403%" y2="56.6%" id="a"><stop stop-color="#575656" offset="0%"/><stop stop-color="#555454" offset="100%"/></linearGradient><linearGradient x1="-1046.794%" y1="-1548.05%" x2="-1201.857%" y2="-1524.52%" id="b"><stop stop-color="#8A8A8A" offset="0%"/><stop stop-color="#89C442" offset="100%"/></linearGradient></defs><g fill="none" fill-rule="evenodd" stroke-linecap="round" stroke-linejoin="round"><path d="M90.533 33.957c.786.914 16.224 6.047 21.592 12.282 5.368 6.235 7.71 11.803 6.954 17.157-.756 5.353-4.038 5.267-5.47 7.213-1.433 1.946-3.4 4.38-7.208 4.101-4.975-.336-10.107-2.814-13.811-11.43-3.705-8.616-3.425-16.71-3.123-21.231.301-4.52 1.066-8.116 1.066-8.116v.024z" fill="#696969"/><path fill="url(#a)" d="M.423 3.09l23.122 34.404-1.066 1.187" transform="translate(89.154 33.75)"/><path d="M1 84.662l.215-1.524c6.193-3.279 13.85-4.542 20.098-7.708 1.874.842 2.709-.376 4.712-.26.727.653-.915 1.532 1.05 1.397 4.453.56 8.788-.236 13.192-.61 4.62-.392 9.208.046 13.731-.223 1.446-.08 3.648-2.085 5.45-1.12.802 1.45-2.618 1.577-1.702 3.179 9.065 2.128 31.769 11.126 35.619 1.338.054.597-.678 1.78.393 1.613 7.646-3.419 20.634-10.79 22.925-12.723 2.515-2.15 5.896-2.056 9.149-2.808 5.896-1.358 12.233-2.742 17.365-5.725 3.171 2.196 9.8 3.29 13.343 2.521 3.7-.8 9.44-6.934 12.514-9.097 1.206-.852 2.975-2.505 4.273-1.57-.843.597.153 2.347-.916 2.043-.56-1.064-1.674.17-2.488-.043-3.096 2.531-6.308 4.902-9.455 7.356-1.47.903 1.416 1.838-.28 2.128-8.144 1.613-20.548-2.432-25.685 3.187-8.138 2.78-15.83 3.483-23.853 7.8-4.604 2.477-10.242 6.992-15.042 9.36-.843.403-2.003.543-2.962 1.134-1.168.718-1.46 1.613-2.442 1.828-2.455.559-7.53-.753-10.729-1.215-10.661-1.545-22.036-5.886-32.092-6.431-3.976-.215-8.696.411-13.192.618-9.558.43-15.535.658-23.192 3.23-3.13 1.054-7.95 3.838-9.98 2.312L1 84.662z" fill="#FFF"/><g><path d="M148.66 1.5c-1.077 1.736-25.55 14.335-32.9 26.163-7.35 11.827-9.442 21.14-6.78 29.893 2.663 8.753 7.754 8.331 10.654 11.244 2.9 2.914 6.838 6.391 13.128 4.978 8.233-1.882 16.17-7.337 20.111-22.688 3.942-15.351 1.36-28.837-.28-36.273-1.64-7.437-3.91-13.298-3.91-13.298l-.023-.019z" fill="#ADADAD"/><path fill="url(#b)" d="M41.242 2.626L11.557 66.147l1.74 1.747" transform="translate(107 1.5)"/></g></g></svg>