<?xml version="1.0" encoding="UTF-8"?>
<svg width="124px" height="92px" viewBox="0 0 124 92" version="1.1" xmlns="http://www.w3.org/2000/svg" xmlns:xlink="http://www.w3.org/1999/xlink">
    <title>websockets</title>
    <g id="Page-1" stroke="none" stroke-width="1" fill="none" fill-rule="evenodd">
        <g id="websockets" fill="#FFFFFF" fill-rule="nonzero">
            <path d="M93.213125,69.2192524 L108.606563,69.2192524 L108.606563,32.7033391 L91.2635156,15.5694865 L80.3786406,26.323367 L93.213125,39.0033942 L93.213125,69.2192524 L93.213125,69.2192524 Z M108.64725,76.842965 L54.9533125,76.842965 L42.1183437,64.1634164 L47.5612656,58.7864761 L58.1618125,69.2594502 L79.97225,69.2594502 L58.4868281,47.9923978 L63.9699531,42.5752598 L85.455375,63.8025929 L85.455375,42.253677 L74.8955156,31.8209007 L80.2972656,26.4836798 L53.6130469,0 L0,0 L15.35275,15.1679866 L15.35275,15.2081845 L47.1955625,15.2081845 L58.4461406,26.323367 L41.9967656,42.5747812 L30.7461875,31.4595987 L30.7461875,22.8323756 L15.35275,22.8323756 L15.35275,37.7596537 L41.9967656,64.0830207 L31.1520937,74.7967033 L48.4951406,91.9310345 L124,91.9310345 L108.64725,76.842965 Z" id="Shape"></path>
        </g>
    </g>
</svg>