<svg width="124" height="124" xmlns="http://www.w3.org/2000/svg"><g fill="#FFF" fill-rule="evenodd"><path d="M62 0C27.758 0 0 27.758 0 62c0 34.242 27.758 62 62 62 34.242 0 62-27.758 62-62 0-34.242-27.758-62-62-62m0 3.72c7.87 0 15.501 1.54 22.684 4.578a58.29 58.29 0 019.898 5.373 58.716 58.716 0 018.628 7.119 58.725 58.725 0 017.119 8.628 58.278 58.278 0 015.373 9.898C118.74 46.498 120.28 54.13 120.28 62c0 7.87-1.54 15.501-4.578 22.684a58.278 58.278 0 01-5.373 9.898 58.716 58.716 0 01-7.119 8.628 58.716 58.716 0 01-8.628 7.119 58.278 58.278 0 01-9.898 5.372C77.501 118.74 69.869 120.28 62 120.28c-7.87 0-15.501-1.54-22.684-4.579a58.278 58.278 0 01-9.898-5.372 58.725 58.725 0 01-8.628-7.119 58.716 58.716 0 01-7.119-8.628 58.29 58.29 0 01-5.373-9.898C5.26 77.5 3.72 69.869 3.72 62c0-7.87 1.54-15.502 4.578-22.684a58.29 58.29 0 015.373-9.898 58.725 58.725 0 017.119-8.628 58.725 58.725 0 018.628-7.119 58.29 58.29 0 019.898-5.373C46.499 5.26 54.131 3.72 62 3.72"/><path d="M106.693 36.792c.221 1.64.346 3.4.346 5.295 0 5.224-.979 11.1-3.917 18.446l-15.73 45.478C102.704 97.085 113 80.497 113 61.498a51.256 51.256 0 00-6.307-24.706zm-44.288 29.21l-15.454 44.9A51.461 51.461 0 0061.5 113a51.39 51.39 0 0017.103-2.92 4.694 4.694 0 01-.37-.71L62.405 66.003zm33.862-7.101c0-6.367-2.287-10.773-4.246-14.203-2.61-4.244-5.059-7.835-5.059-12.079 0-4.733 3.59-9.14 8.649-9.14.228 0 .445.028.666.042C87.115 15.126 74.907 10 61.5 10c-17.993 0-33.82 9.232-43.03 23.212 1.21.038 2.349.062 3.315.062 5.385 0 13.726-.655 13.726-.655 2.775-.162 3.103 3.916.33 4.244 0 0-2.792.327-5.895.49L48.7 93.137l11.271-33.8-8.023-21.984c-2.774-.163-5.401-.49-5.401-.49-2.776-.164-2.451-4.406.326-4.244 0 0 8.503.655 13.564.655 5.385 0 13.727-.655 13.727-.655 2.776-.162 3.103 3.916.328 4.244 0 0-2.794.327-5.894.49L87.21 92.712l5.313-16.835c2.36-7.357 3.744-12.57 3.744-16.976zM10 61.498c0 20.384 11.845 38.001 29.026 46.348L14.46 40.54A51.298 51.298 0 0010 61.5z"/></g></svg>