<svg id="Layer_1" data-name="Layer 1" xmlns="http://www.w3.org/2000/svg" xmlns:xlink="http://www.w3.org/1999/xlink" width="39.92" height="39.84" viewBox="0 0 39.92 39.84"><defs><style>.cls-1{fill:#fff;}.cls-2{mask:url(#mask);}</style><mask id="mask" x="0" y="0" width="39.92" height="39.84" maskUnits="userSpaceOnUse"><g transform="translate(0 -0.08)"><g id="mask-2"><polygon id="path-1" class="cls-1" points="0 0.08 39.92 0.08 39.92 39.92 0 39.92 0 0.08"/></g></g></mask></defs><title>codepen--black</title><g id="Page-1"><g id="Contact"><g id="Social"><g id="Group-13"><polygon id="Fill-1" points="9.74 18.15 9.74 21.69 12.39 19.92 9.74 18.15"/><polygon id="Fill-2" points="18.9 15.58 18.9 10.64 10.59 16.17 14.3 18.65 18.9 15.58"/><polygon id="Fill-3" points="29.33 16.17 21.02 10.64 21.02 15.58 25.62 18.65 29.33 16.17"/><polygon id="Fill-4" points="10.59 23.67 18.9 29.2 18.9 24.26 14.3 21.19 10.59 23.67"/><polygon id="Fill-5" points="21.02 24.26 21.02 29.2 29.33 23.67 25.62 21.19 21.02 24.26"/><polygon id="Fill-6" points="19.96 17.42 16.21 19.92 19.96 22.42 23.71 19.92 19.96 17.42"/><g id="Group-12"><g id="Group-9"><g class="cls-2"><path id="Fill-7" d="M32.3,23.76a.71.71,0,0,1,0,.14v0s0,.06,0,.09l0,0,0,.08s0,0,0,.05a.25.25,0,0,1,0,.07l0,0,0,.06,0,.05,0,.06s0,0,0,0l-.06.05,0,0,0,0-11.28,7.5a1,1,0,0,1-.59.18,1.07,1.07,0,0,1-.59-.18L8.09,24.64l0,0,0,0L8,24.54l0,0,0-.06,0-.05,0-.06,0,0,0-.07s0,0,0-.05l0-.08s0,0,0,0a.29.29,0,0,1,0-.09.06.06,0,0,1,0,0,.71.71,0,0,1,0-.14V16.25a.66.66,0,0,1,0-.14.06.06,0,0,1,0,0,.29.29,0,0,1,0-.09.43.43,0,0,1,0-.05l0-.08s0,0,0,0a.43.43,0,0,1,0-.07l0-.05,0-.06,0,0,0-.06,0,0L8,15.42l0,0h0l11.28-7.5a1.06,1.06,0,0,1,1.18,0l11.28,7.5h0l0,0,.06.05,0,0,0,.06a.1.1,0,0,1,0,0l0,.06,0,.05a.16.16,0,0,1,0,.07s0,0,0,0l0,.08s0,0,0,.05,0,.06,0,.09v0a.66.66,0,0,1,0,.14ZM20,.08A19.92,19.92,0,1,0,39.92,20,19.94,19.94,0,0,0,20,.08Z" transform="translate(0 -0.08)"/></g></g><polygon id="Fill-10" points="30.18 21.69 30.18 18.15 27.53 19.92 30.18 21.69"/></g></g></g></g></g></svg>