<svg width="40" height="40" xmlns="http://www.w3.org/2000/svg" xmlns:xlink="http://www.w3.org/1999/xlink"><defs><path id="a" d="M0 .076h39.924v39.84H0z"/></defs><g fill="none" fill-rule="evenodd"><path fill="#FEFEFE" d="M9.74 18.233v3.543l2.655-1.772zM18.901 15.661v-4.937l-8.311 5.529 3.712 2.478zM29.334 16.253l-8.311-5.529v4.937l4.598 3.07zM10.59 23.756l8.311 5.528v-4.937l-4.598-3.069zM21.023 24.347v4.937l8.31-5.528-3.712-2.478zM19.962 17.5l-3.752 2.504 3.752 2.504 3.752-2.504z"/><g transform="translate(0 .008)"><mask id="b" fill="#fff"><use xlink:href="#a"/></mask><path d="M32.304 23.749c0 .047-.003.093-.01.139-.001.014-.005.03-.008.045-.005.03-.01.06-.018.089l-.017.05c-.008.027-.017.053-.027.079-.007.017-.016.034-.024.05a1.294 1.294 0 01-.036.071l-.03.05a.947.947 0 01-.134.166l-.042.042-.06.05-.048.036c-.006.004-.012.01-.018.013L20.55 32.135a1.061 1.061 0 01-1.177 0L8.091 24.629c-.005-.003-.01-.009-.017-.013a.996.996 0 01-.108-.086c-.015-.013-.028-.028-.042-.042a.871.871 0 01-.134-.167 1.236 1.236 0 01-.066-.12c-.009-.016-.017-.033-.024-.05a1.068 1.068 0 01-.028-.078l-.016-.051c-.008-.03-.013-.06-.019-.09l-.008-.044a1.04 1.04 0 01-.01-.14v-7.505c0-.046.004-.092.01-.138l.008-.046c.006-.03.01-.06.019-.088a.952.952 0 01.179-.364l.036-.046c.017-.02.034-.039.053-.057.014-.014.027-.028.042-.041a1.03 1.03 0 01.108-.087l.017-.013 11.282-7.506c.357-.237.82-.237 1.177 0l11.282 7.506.018.013.048.036.06.05.042.042a.906.906 0 01.134.167l.03.05c.013.022.025.046.036.07l.024.051.027.077.017.052c.008.029.013.059.018.088.003.016.007.03.009.046.006.046.01.092.01.138v7.506zM19.962.076C8.937.076 0 8.995 0 19.996c0 11.002 8.937 19.92 19.962 19.92s19.962-8.918 19.962-19.92c0-11.001-8.937-19.92-19.962-19.92z" fill="#FEFEFE" mask="url(#b)"/></g><path fill="#FEFEFE" d="M30.183 21.776v-3.543l-2.654 1.771z"/></g></svg>