<svg id="Layer_1" data-name="Layer 1" xmlns="http://www.w3.org/2000/svg" xmlns:xlink="http://www.w3.org/1999/xlink" width="39.49" height="39.72" viewBox="0 0 39.49 39.72"><defs><style>.cls-1{fill:#fff;}.cls-2{mask:url(#mask);}</style><mask id="mask" x="0" y="0" width="39.49" height="39.72" maskUnits="userSpaceOnUse"><g transform="translate(0 0)"><g id="mask-2"><polygon id="path-1" class="cls-1" points="0 0 39.49 0 39.49 39.72 0 39.72 0 0"/></g></g></mask></defs><title>github--black</title><g id="Page-1"><g id="Contact"><g id="Social"><g id="GitHub"><g class="cls-2"><path id="Fill-1" d="M19.74,0C8.84,0,0,9.12,0,20.36A20.32,20.32,0,0,0,13.5,39.68c1,.19,1.35-.44,1.35-1s0-1.76,0-3.46c-5.49,1.23-6.65-2.73-6.65-2.73a5.33,5.33,0,0,0-2.19-3c-1.79-1.26.14-1.24.14-1.24a4.17,4.17,0,0,1,3,2.1c1.76,3.11,4.62,2.21,5.75,1.69a4.44,4.44,0,0,1,1.25-2.72c-4.38-.51-9-2.26-9-10.06a8,8,0,0,1,2-5.47,7.54,7.54,0,0,1,.19-5.38S11,7.9,14.8,10.53a18.32,18.32,0,0,1,9.89,0c3.77-2.63,5.42-2.08,5.42-2.08a7.51,7.51,0,0,1,.2,5.38,8,8,0,0,1,2,5.47c0,7.82-4.62,9.54-9,10.05a4.92,4.92,0,0,1,1.34,3.77c0,2.72,0,4.91,0,5.58s.36,1.18,1.36,1A20.32,20.32,0,0,0,39.49,20.36C39.49,9.12,30.65,0,19.74,0" transform="translate(0 0)"/></g></g></g></g></g></svg>