<svg width="40" height="40" xmlns="http://www.w3.org/2000/svg" xmlns:xlink="http://www.w3.org/1999/xlink"><defs><path id="a" d="M0 0h39.49v39.718H0z"/></defs><g fill="none" fill-rule="evenodd"><mask id="b" fill="#fff"><use xlink:href="#a"/></mask><path d="M19.744 0C8.84 0 0 9.116 0 20.362c0 8.995 5.656 16.628 13.504 19.32.988.186 1.348-.441 1.348-.981 0-.484-.017-1.764-.027-3.464-5.492 1.231-6.65-2.729-6.65-2.729-.9-2.352-2.194-2.978-2.194-2.978-1.792-1.264.136-1.238.136-1.238 1.982.144 3.024 2.098 3.024 2.098 1.762 3.112 4.62 2.213 5.747 1.692.18-1.316.688-2.214 1.253-2.722-4.384-.514-8.994-2.26-8.994-10.064 0-2.223.77-4.04 2.033-5.464-.204-.515-.881-2.585.193-5.387 0 0 1.658-.55 5.43 2.086a18.374 18.374 0 014.943-.685 18.4 18.4 0 014.943.685c3.77-2.635 5.424-2.086 5.424-2.086 1.078 2.802.4 4.872.197 5.387 1.265 1.424 2.03 3.241 2.03 5.464 0 7.822-4.617 9.544-9.016 10.049.71.627 1.341 1.87 1.341 3.77 0 2.722-.024 4.918-.024 5.586 0 .544.355 1.177 1.357.979 7.84-2.698 13.492-10.325 13.492-19.318C39.49 9.117 30.65 0 19.744 0" fill="#FEFEFE" mask="url(#b)"/></g></svg>