<?xml version="1.0" encoding="UTF-8"?>
<svg width="40px" height="40px" viewBox="0 0 40 40" version="1.1" xmlns="http://www.w3.org/2000/svg" xmlns:xlink="http://www.w3.org/1999/xlink">
    <!-- Generator: Sketch 54.1 (76490) - https://sketchapp.com -->
    <title>Group 3</title>
    <desc>Created with Sketch.</desc>
    <defs>
        <polygon id="path-1" points="0.000333333333 0.000333333333 40 0.000333333333 40 40 0.000333333333 40"></polygon>
    </defs>
    <g id="Page-1" stroke="none" stroke-width="1" fill="none" fill-rule="evenodd">
        <g id="More" transform="translate(-280.000000, -2909.000000)">
            <g id="Footer" transform="translate(-3.000000, 2683.000000)">
                <g id="Social" transform="translate(124.000000, 226.000000)">
                    <g id="Group-3" transform="translate(159.000000, 0.000000)">
                        <mask id="mask-2" fill="white">
                            <use xlink:href="#path-1"></use>
                        </mask>
                        <g id="Clip-2"></g>
                        <path d="M29.917,29.0836667 L25.4995,29.0836667 L25.4995,22.667 C25.4995,21.0003333 24.8328333,19.8328333 23.3336667,19.8328333 C22.1661667,19.8328333 21.5836667,20.5836667 21.2503333,21.3328333 C21.167,21.5836667 21.167,22.0003333 21.167,22.3328333 L21.167,28.9995 L16.8336667,28.9995 C16.8336667,28.9995 16.9161667,17.667 16.8336667,16.667 L21.167,16.667 L21.167,18.5828333 C21.417,17.7495 22.8336667,16.4995 25.0003333,16.4995 C27.7495,16.4995 29.917,18.2503333 29.917,22.0836667 L29.917,29.0836667 Z M12.417,15.167 C11.0003333,15.167 10.0836667,14.2503333 10.0836667,13.0003333 C10.0836667,11.7503333 11.0003333,10.8336667 12.417,10.8336667 C13.8336667,10.8336667 14.7503333,11.7503333 14.7503333,13.0003333 C14.7503333,14.2503333 13.917,15.167 12.417,15.167 L12.417,15.167 Z M10.667,29.0836667 L14.5003333,29.0836667 L14.5003333,16.7503333 L10.667,16.7503333 L10.667,29.0836667 Z M20.0003333,0.000333333333 C8.95866667,0.000333333333 0.000333333333,8.95866667 0.000333333333,20.0003333 C0.000333333333,31.042 8.95866667,40.0003333 20.0003333,40.0003333 C31.042,40.0003333 40.0003333,31.042 40.0003333,20.0003333 C40.0003333,8.95866667 31.042,0.000333333333 20.0003333,0.000333333333 L20.0003333,0.000333333333 Z" id="Fill-1" fill="#FFD6C2" mask="url(#mask-2)"></path>
                    </g>
                </g>
            </g>
        </g>
    </g>
</svg>