<svg xmlns="http://www.w3.org/2000/svg" viewBox="0 0 40 40" enable-background="new 0 0 40 40"><g><defs><filter id="a" filterUnits="userSpaceOnUse" x="0" y="0" width="40" height="40"><feColorMatrix values="1 0 0 0 0 0 1 0 0 0 0 0 1 0 0 0 0 0 1 0"/></filter></defs><mask maskUnits="userSpaceOnUse" x="0" y="0" width="40" height="40" id="b"><g filter="url(#a)"><path fill="#fff" d="M0 0h40v40H0z"/></g></mask><path d="M30 16.2v.6c0 6.4-4.9 13.7-13.7 13.7-2.7 0-5.3-.8-7.4-2.2.4 0 .8.1 1.1.1 2.3 0 4.3-.8 6-2.1-2.1 0-3.9-1.4-4.5-3.4.3.1.6.1.9.1.4 0 .9-.1 1.3-.2-2.2-.5-3.9-2.4-3.9-4.7V18c.6.4 1.4.6 2.2.6-1.3-.9-2.2-2.3-2.2-4 0-.9.2-1.7.7-2.4 2.4 2.9 5.9 4.8 9.9 5-.1-.4-.1-.7-.1-1.1 0-2.7 2.2-4.8 4.8-4.8 1.4 0 2.6.6 3.5 1.5 1.1-.2 2.1-.6 3.1-1.2-.4 1.1-1.1 2.1-2.1 2.7 1-.1 1.9-.4 2.8-.8-.6 1.2-1.4 2-2.4 2.7M20 0C9 0 0 9 0 20s9 20 20 20 20-9 20-20S31 0 20 0" mask="url(#b)" fill="#fff"/></g></svg>