<svg id="Layer_1" data-name="Layer 1" xmlns="http://www.w3.org/2000/svg" xmlns:xlink="http://www.w3.org/1999/xlink" width="40" height="40" viewBox="0 0 40 40"><defs><style>.cls-1{fill:#fff;}.cls-2{mask:url(#mask);}</style><mask id="mask" x="0" y="0" width="40" height="40" maskUnits="userSpaceOnUse"><g transform="translate(0 0)"><g id="mask-2"><polygon id="path-1" class="cls-1" points="0 0 40 0 40 40 0 40 0 0"/></g></g></mask></defs><title>twitter--black</title><g id="Page-1"><g id="Contact"><g id="Social"><g id="Group-3"><g class="cls-2"><path id="Fill-1" d="M30.05,16.21c0,.2,0,.41,0,.62A13.63,13.63,0,0,1,16.34,30.55,13.43,13.43,0,0,1,9,28.37a8.77,8.77,0,0,0,1.15.07,9.69,9.69,0,0,0,6-2.06A4.81,4.81,0,0,1,11.61,23a4.6,4.6,0,0,0,.91.09A4.81,4.81,0,0,0,13.79,23a4.83,4.83,0,0,1-3.87-4.73v-.06a4.74,4.74,0,0,0,2.18.6,4.82,4.82,0,0,1-1.5-6.43,13.68,13.68,0,0,0,9.94,5,4.42,4.42,0,0,1-.13-1.1A4.82,4.82,0,0,1,28.75,13a9.76,9.76,0,0,0,3.06-1.17,4.82,4.82,0,0,1-2.12,2.67,9.79,9.79,0,0,0,2.77-.76,9.88,9.88,0,0,1-2.41,2.5M20,0A20,20,0,1,0,40,20,20,20,0,0,0,20,0" transform="translate(0 0)"/></g></g></g></g></g></svg>