<?xml version="1.0" encoding="UTF-8"?>
<svg width="40px" height="40px" viewBox="0 0 40 40" version="1.1" xmlns="http://www.w3.org/2000/svg" xmlns:xlink="http://www.w3.org/1999/xlink">
    <!-- Generator: Sketch 54.1 (76490) - https://sketchapp.com -->
    <title>Group 3</title>
    <desc>Created with Sketch.</desc>
    <defs>
        <polygon id="path-1" points="0 1e-05 40 1e-05 40 40 0 40"></polygon>
    </defs>
    <g id="Page-1" stroke="none" stroke-width="1" fill="none" fill-rule="evenodd">
        <g id="More" transform="translate(-359.000000, -2909.000000)">
            <g id="Footer" transform="translate(-3.000000, 2683.000000)">
                <g id="Social" transform="translate(124.000000, 226.000000)">
                    <g id="Group-3" transform="translate(238.000000, 0.000000)">
                        <mask id="mask-2" fill="white">
                            <use xlink:href="#path-1"></use>
                        </mask>
                        <g id="Clip-2"></g>
                        <path d="M30.05,16.21001 C30.06,16.41001 30.06,16.62001 30.06,16.83001 C30.06,23.20001 25.21,30.55001 16.34,30.55001 C13.62,30.55001 11.08,29.75001 8.97,28.37001 C9.35,28.42001 9.73,28.44001 10.12,28.44001 C12.38,28.44001 14.46,27.67001 16.11,26.38001 C14,26.34001 12.22,24.95001 11.61,23.03001 C11.91,23.09001 12.21,23.12001 12.52,23.12001 C12.96,23.12001 13.39,23.06001 13.79,22.95001 C11.58,22.50001 9.92,20.56001 9.92,18.22001 L9.92,18.16001 C10.57,18.52001 11.31,18.74001 12.1,18.76001 C10.8,17.90001 9.95,16.42001 9.95,14.75001 C9.95,13.87001 10.19,13.04001 10.6,12.33001 C12.98,15.25001 16.53,17.17001 20.54,17.37001 C20.45,17.02001 20.41,16.65001 20.41,16.27001 C20.41,13.61001 22.57,11.45001 25.23,11.45001 C26.62,11.45001 27.87,12.03001 28.75,12.97001 C29.85,12.75001 30.88,12.35001 31.81,11.80001 C31.45,12.93001 30.69,13.87001 29.69,14.47001 C30.67,14.35001 31.6,14.09001 32.46,13.71001 C31.81,14.68001 30.99,15.53001 30.05,16.21001 M20,1e-05 C8.954,1e-05 0,8.95401 0,20.00001 C0,31.04601 8.954,40.00001 20,40.00001 C31.046,40.00001 40,31.04601 40,20.00001 C40,8.95401 31.046,1e-05 20,1e-05" id="Fill-1" fill="#FFD6C2" mask="url(#mask-2)"></path>
                    </g>
                </g>
            </g>
        </g>
    </g>
</svg>