<?xml version="1.0" encoding="utf-8"?>
<!-- Generator: Adobe Illustrator 22.1.0, SVG Export Plug-In . SVG Version: 6.00 Build 0)  -->
<svg version="1.1" id="Layer_1" xmlns="http://www.w3.org/2000/svg" xmlns:xlink="http://www.w3.org/1999/xlink" x="0px" y="0px"
	 viewBox="0 0 40 40" style="enable-background:new 0 0 40 40;" xml:space="preserve">
<style type="text/css">
	.st0{filter:url(#Adobe_OpacityMaskFilter);}
	.st1{fill:#FFFFFF;}
	.st2{mask:url(#mask-2_1_);fill:#FFFFFF;}
</style>
<title>Group 3</title>
<desc>Created with Sketch.</desc>
<g id="Page-1">
	<g id="Contact" transform="translate(-290.000000, -944.000000)">
		<g id="Social" transform="translate(52.000000, 944.000000)">
			<g id="Group-3" transform="translate(238.000000, 0.000000)">
				<g id="Clip-2">
				</g>
				<defs>
					<filter id="Adobe_OpacityMaskFilter" filterUnits="userSpaceOnUse" x="0" y="0" width="40" height="40">
						<feColorMatrix  type="matrix" values="1 0 0 0 0  0 1 0 0 0  0 0 1 0 0  0 0 0 1 0"/>
					</filter>
				</defs>
				<mask maskUnits="userSpaceOnUse" x="0" y="0" width="40" height="40" id="mask-2_1_">
					<g class="st0">
						<polygon id="path-1_1_" class="st1" points="0,0 40,0 40,40 0,40 						"/>
					</g>
				</mask>
				<path id="Fill-1" class="st2" d="M30,16.2c0,0.2,0,0.4,0,0.6c0,6.4-4.9,13.7-13.7,13.7c-2.7,0-5.3-0.8-7.4-2.2
					c0.4,0,0.8,0.1,1.1,0.1c2.3,0,4.3-0.8,6-2.1c-2.1,0-3.9-1.4-4.5-3.4c0.3,0.1,0.6,0.1,0.9,0.1c0.4,0,0.9-0.1,1.3-0.2
					c-2.2-0.5-3.9-2.4-3.9-4.7v-0.1c0.6,0.4,1.4,0.6,2.2,0.6c-1.3-0.9-2.2-2.3-2.2-4c0-0.9,0.2-1.7,0.7-2.4c2.4,2.9,5.9,4.8,9.9,5
					c-0.1-0.4-0.1-0.7-0.1-1.1c0-2.7,2.2-4.8,4.8-4.8c1.4,0,2.6,0.6,3.5,1.5c1.1-0.2,2.1-0.6,3.1-1.2c-0.4,1.1-1.1,2.1-2.1,2.7
					c1-0.1,1.9-0.4,2.8-0.8C31.8,14.7,31,15.5,30,16.2 M20,0C9,0,0,9,0,20s9,20,20,20s20-9,20-20S31,0,20,0"/>
			</g>
		</g>
	</g>
</g>
</svg>
