<?xml version="1.0" encoding="UTF-8"?>
<svg width="623px" height="126px" viewBox="0 0 623 126" version="1.1" xmlns="http://www.w3.org/2000/svg" xmlns:xlink="http://www.w3.org/1999/xlink">
    <title>Shape</title>
    <g id="Page-1" stroke="none" stroke-width="1" fill="none" fill-rule="evenodd">
        <path d="M195.731519,105.627279 C195.731519,99.8779764 195.427056,99.2694614 192.683543,98.3650021 C192.074617,98.3650021 190.856764,98.059082 190.247838,98.059082 C189.943375,98.059082 189.638912,98.059082 189.638912,97.7531619 C189.638912,97.4538923 189.943375,97.1479722 190.856764,97.1479722 C193.901395,97.1479722 198.471687,97.4538923 198.77615,97.4538923 C199.080614,97.4538923 203.650906,97.1479722 205.782148,97.1479722 C206.695537,97.1479722 207,97.4538923 207,97.7531619 C207,98.059082 206.695537,98.059082 206.391074,98.059082 C205.782148,98.059082 205.477684,98.3650021 204.564295,98.3650021 C202.737517,98.6642717 202.125245,99.8779764 202.125245,102.598005 C201.820782,104.722819 201.820782,106.837658 201.820782,109.866932 L201.820782,118.036993 C201.820782,121.069592 201.820782,121.368862 200.907392,121.974051 C196.3371,124.398136 189.940029,125 185.982009,125 C180.498327,125 170.447699,124.39481 162.528313,117.435129 C157.95802,113.49807 154,105.933199 154,96.855353 C154,85.6526928 159.483682,77.4759812 165.877407,73.5389229 C172.274478,69.3059201 179.280475,69 184.764156,69 C189.334449,69 194.205858,69.9077846 195.728174,70.2137046 C197.253835,70.5129743 199.68954,70.8188944 201.516318,70.8188944 C202.125245,70.8188944 202.426362,71.118164 202.426362,71.4240841 C202.426362,72.3318687 201.817436,74.4500327 201.817436,81.7189597 C201.817436,82.6267443 201.512973,83.231934 201.20851,83.231934 C200.904046,83.231934 200.599583,82.6267443 200.599583,82.0248798 C200.599583,81.1170952 200.29512,78.9922807 199.077268,77.1800368 C197.250489,74.4533579 191.462345,71.4274093 182.325106,71.4274093 C178.062622,71.4274093 172.578941,72.032599 167.095259,76.2722522 C163.133893,79.6041209 160.089262,85.9619381 160.089262,94.4379194 C160.089262,104.426875 165.268481,111.991746 167.704185,114.41583 C173.187867,119.865863 179.889401,121.980702 186.283126,121.980702 C189.023294,121.980702 192.680197,121.681432 194.506976,120.467728 C195.420365,119.862538 195.724828,119.260673 195.724828,118.043643 L195.724828,105.627279 L195.731519,105.627279 L195.731519,105.627279 Z M234.700165,103 C235,103 235,102.693035 235,102.38607 L229.299835,85.6831642 C229,84.7722786 228.700165,84.7722786 228.400329,85.6831642 L223,102.38607 C223,102.693035 223,103 223.30313,103 L234.700165,103 Z M229.041499,78.247644 C229.645893,76.409726 229.943136,76.0994719 230.243682,76.0994719 C230.844773,75.7959625 230.844773,76.0994719 231.749713,78.247644 C232.65135,80.4025607 241.971568,106.187371 245.881964,115.704076 C247.985784,121.23132 249.491815,122.151965 250.994543,122.765728 C251.89618,123.075982 252.797817,123.075982 253.398909,123.075982 C253.699454,123.075982 254,123.075982 254,123.379492 C254,123.689746 253.398909,124 252.797817,124 C251.89618,124 247.384693,124 243.177053,123.689746 C241.974871,123.689746 241.373779,123.689746 241.373779,123.379492 C241.373779,123.075982 241.674325,123.075982 241.974871,123.075982 C242.275416,122.765728 242.575962,122.155337 242.275416,121.23132 L236.561746,105.883861 C236.561746,105.573607 236.2612,105.573607 235.960655,105.573607 L223.030586,105.573607 C222.73004,105.573607 222.73004,105.883861 222.429495,106.187371 L218.822947,117.238485 C218.522401,118.772894 218.218553,120.003793 218.218553,121.23132 C218.218553,122.462219 219.420735,123.075982 220.325675,123.075982 L220.926766,123.075982 C221.527858,123.075982 221.527858,123.075982 221.527858,123.379492 C221.527858,123.689746 221.227312,124 220.626221,124 C219.123492,124 216.715824,123.689746 216.118036,123.689746 C215.216399,123.689746 211.907094,124 209.202183,124 C208.300546,124 208,123.689746 208,123.379492 C208,123.075982 208.300546,123.075982 208.601091,123.075982 L210.404365,123.075982 C213.109276,122.462219 214.314762,120.310675 215.516944,117.241857 L229.041499,78.247644 L229.041499,78.247644 Z M269.416313,105.86827 C269.416313,111.704041 269.416313,116.621749 269.723294,119.382687 C270.030274,121.228937 270.340628,122.460896 272.18251,122.764666 C273.103451,123.075187 274.331373,123.075187 274.945333,123.075187 C275.252314,123.075187 275.559294,123.378958 275.559294,123.378958 C275.559294,123.689479 275.252314,124 274.331373,124 C271.258196,124 267.267451,123.689479 266.960471,123.689479 C266.65349,123.689479 262.662745,124 260.820863,124 C260.203529,124 259.899922,123.689479 259.899922,123.378958 C259.899922,123.378958 259.899922,123.075187 260.513883,123.075187 C260.820863,123.075187 261.741804,123.075187 262.355765,122.764666 C263.583687,122.460896 263.890667,121.228937 263.890667,119.382687 C264.197647,116.621749 264.197647,111.704041 264.197647,105.86827 L264.197647,79.4402265 L255.291843,79.4402265 C251.297725,79.7507476 250.069804,80.0545182 248.841882,81.5902474 C248.227921,82.511685 248.227921,83.1259766 247.920941,83.4364977 C247.613961,84.0507894 247.613961,84.0507894 247.30698,84.0507894 C247,84.0507894 247,84.0507894 247,83.4364977 C247,82.822206 248.227921,77.5973515 248.227921,76.9830598 C248.534902,76.6725388 248.841882,76.0616223 248.841882,76.0616223 C249.455843,75.7578517 250.069804,76.675914 251.604705,76.675914 C253.446588,76.9864351 255.902431,76.9864351 256.519765,76.9864351 L279.553412,76.9864351 C281.702275,76.9864351 282.930196,76.675914 283.851137,76.675914 C284.772079,76.3721434 285.389413,76.3721434 285.69302,76.3721434 C285.996627,76.3721434 286,76.675914 286,76.9864351 C286,78.8326853 285.69302,83.1293519 285.69302,84.0541646 C285.69302,84.6684563 285.69302,84.6684563 285.386039,84.6684563 C285.079059,84.6684563 285.079059,84.6684563 284.768705,83.7537692 L284.768705,83.1327271 C284.461725,81.2932273 283.233803,79.7574981 277.397803,79.446977 L269.41294,79.446977 L269.41294,105.86827 L269.416313,105.86827 L269.416313,105.86827 Z M297.16,93.8093956 L297.16,80.7522143 C296.856667,78.6694537 296.55,77.7796358 294.426667,77.4862892 C294.123333,77.1864239 292.91,77.1864239 292.303333,77.1864239 C292.303333,77.1864239 292,77.1864239 292,76.8930773 C292,76.5932119 292.303333,76.2933466 292.91,76.2933466 C295.64,76.2933466 299.586667,76.5932119 299.89,76.5932119 L313.85,76.5932119 C314.76,76.5932119 315.973333,76.2933466 316.28,76.2933466 C316.58,76.2933466 316.886667,76 317.19,76 C317.49,76 317.49,76.2933466 317.49,76.5932119 C317.49,76.8930773 317.19,77.4830298 316.883333,79.265925 C316.883333,79.859137 316.883333,82.5253313 316.576667,83.125062 C316.576667,83.4184086 316.576667,84.0083611 316.276667,84.0083611 C315.97,84.0083611 315.663333,83.7150145 315.663333,83.125062 C315.663333,82.8251966 315.663333,81.6355134 315.363333,81.0423014 C315.056667,79.859137 314.453333,79.265925 311.113333,78.9660597 C309.9,78.6661943 303.526667,78.6661943 302.616667,78.6661943 C302.616667,78.6661943 302.313333,78.9660597 302.313333,79.265925 L302.313333,95.8823779 C302.313333,96.4755899 302.313333,96.4755899 302.616667,96.4755899 L312.326667,96.4755899 C313.846667,96.1757245 314.756667,96.1757245 315.363333,95.585772 C315.663333,94.9925601 315.97,94.6959541 316.273333,94.6959541 C316.273333,94.6959541 316.573333,94.9958195 316.573333,95.2956848 C316.573333,95.5890314 316.273333,96.7787147 315.966667,98.5550911 C315.966667,99.7447743 315.66,102.120881 315.66,102.414228 C315.66,103.013959 315.66,103.603911 315.36,103.603911 C315.053333,103.603911 314.753333,103.603911 314.753333,103.010699 L314.753333,101.227804 C314.446667,100.337986 313.843333,99.1515624 311.413333,99.1515624 C309.893333,98.851697 303.826667,98.851697 302.916667,98.851697 C302.613333,98.851697 302.31,98.851697 302.31,99.1515624 L302.31,114.878197 C302.613333,119.03394 303.523333,119.627152 309.29,119.627152 C311.11,119.627152 313.536667,119.627152 315.36,119.03394 C316.876667,118.43421 317.483333,117.251045 318.086667,114.578332 C318.086667,113.98512 318.086667,113.695033 318.393333,113.695033 C319,113.695033 319,114.288245 319,114.578332 C319,115.178063 318.393333,119.327287 318.09,120.51697 C317.79,122 317.186667,122 314.756667,122 C305.65,122 301.403333,121.700135 299.883333,121.700135 L297.456667,121.700135 C296.243333,122 294.726667,122 293.813333,122 C293.206667,122 292.903333,121.700135 292.903333,121.400269 C292.903333,121.400269 292.903333,121.106923 293.51,121.106923 C293.813333,121.106923 294.723333,121.106923 295.33,120.807057 C296.543333,120.513711 296.846667,119.324027 296.846667,117.541132 C297.15,114.874938 297.15,110.125983 297.15,104.49047 L297.15,93.8093956 L297.16,93.8093956 L297.16,93.8093956 Z M329.895337,123.156202 C329.298446,122.845526 329,122.541603 329,120.694429 C329,117.621432 329.301725,115.159659 329.301725,114.23776 C329.603451,113.623161 329.603451,113.315861 329.898617,113.315861 C330.200342,113.315861 330.200342,113.315861 330.200342,113.93046 C330.200342,114.551813 330.200342,115.473712 330.495508,116.088311 C331.390846,120.697805 335.27392,122.54498 339.45544,122.54498 C345.125909,122.54498 347.8152,118.239409 347.8152,114.241137 C347.8152,109.942319 346.021246,107.480545 340.947669,103.174974 L338.258377,100.7132 C331.994296,95.1784303 330.495508,91.4942119 330.495508,87.1852636 C330.495508,80.4246722 335.27392,76.1191007 343.036789,76.1191007 C345.125909,75.8151781 346.919863,76.1191007 348.412092,76.7337 C349.609154,76.7337 350.206046,77.0443765 350.501212,77.0443765 C351.104663,77.0443765 351.104663,77.0443765 351.104663,77.355053 L351.104663,83.8117217 C351.104663,85.0375432 350.802937,85.3482198 350.501212,85.3482198 C350.206046,85.3482198 350.206046,85.0375432 349.904321,84.7268667 C349.904321,83.8117217 349.609154,82.2650929 349.307429,81.3499479 C349.005704,80.7285949 347.218309,78.270198 341.846285,78.270198 C337.664765,78.270198 334.378583,80.7319718 334.378583,85.3482198 C334.378583,89.0358151 336.172537,91.1869123 341.846285,95.7964064 L343.338514,97.3329045 C350.501212,103.174974 352,106.862569 352,111.78274 C352,114.551813 351.104663,119.164684 346.919863,122.23768 C344.529018,124.084855 341.246114,125 337.966491,125 C335.179994,124.977772 332.429516,124.349445 329.895337,123.156202 L329.895337,123.156202 Z M387.297813,94.0908417 C387.001198,95.010715 386.697993,96.5472067 386.101468,98.0803289 C384.601918,103.909563 383.102367,109.432172 381.602816,115.264775 C380.103266,119.864142 378.603715,122.623762 377.700689,123.543635 C377.100869,124.156884 374.998202,126 371.999101,126 C369.89973,126 369,124.466878 369,123.543635 C369,122.320507 369.59982,122.010513 369.89973,121.700519 C370.499551,121.08727 370.799461,121.397264 371.399281,122.010513 C371.999101,123.233641 373.202037,124.156884 374.095176,124.156884 C374.994907,124.156884 376.201139,123.237011 377.397483,119.867511 C379.80006,111.278658 381.299611,102.383179 383.698891,94.0975807 L379.796764,94.0975807 C379.196944,93.7943258 379.493558,92.8744525 380.09997,92.2612036 L384.295416,92.2612036 C385.498352,87.6550981 386.697993,83.6723499 389.697094,80.2961116 C392.09967,77.2298672 395.098772,76 398.097873,76 C400.203835,76 402,77.2298672 402,79.3762383 C402,80.9093605 400.803655,82.4424826 399.900629,82.4424826 C399.597423,82.4424826 399.300809,81.8292338 399.300809,81.5226093 C398.997603,78.456365 397.498053,77.5331222 396.301708,77.5331222 C394.802157,77.5331222 393.599221,78.7629894 392.399581,80.2961116 C389.997004,83.6723499 389.097274,87.9617225 387.900929,92.2612036 L393.899131,92.2612036 C394.195746,92.8744525 394.195746,93.4843318 393.299311,94.0975807 L387.297813,94.0975807 L387.297813,94.0908417 L387.297813,94.0908417 Z M407.294351,95.4019769 C404.184048,99.3031301 402.314448,105.306425 402,107.698517 C402,109.500824 402.628896,111 404.184048,111 C405.424751,111 406.675709,110.400329 408.23086,108.304778 C410.408073,105.602965 412.896315,99.0065898 412.896315,96.3014827 C413.203928,94.8023064 412.896315,93 411.026715,93 C410.090206,93 408.849503,93.3031301 407.294351,95.4019769 L407.294351,95.4019769 Z M417,98.3003295 C416.686364,101.002354 415.142045,105.803389 411.4125,109.401695 C408.310227,112.703436 405.514773,113 404.273864,113 C400.857955,113 399,110.597835 399,106.403107 C399.306818,103.404519 401.171591,98.3003295 404.5875,95.3017417 C407.376136,92.6063079 409.547727,92 411.726136,92 C415.448864,92 417,94.7053193 417,98.3003295 L417,98.3003295 Z M428.437809,107.901601 C427.840037,109.097928 428.138923,109.704331 428.730198,109.704331 C429.32797,109.704331 431.394183,108.198211 433.762531,105.502354 C438.197092,101.003766 440.857828,95.2989642 442.336015,92.2999058 C443.521813,91.9967043 444.704363,92.6031073 444.704363,93.1996234 C444.411974,94.395951 441.156714,102.79661 439.087252,108.501412 C438.788366,109.40113 438.788366,109.704331 439.379641,109.704331 C440.266553,109.704331 442.933787,107.598399 444.113088,106.09887 C444.411974,105.80226 445,106.09887 445,106.698682 C443.814202,109.101224 439.087252,113 436.420019,113 C435.828744,113 434.941832,112.100282 435.240718,111.203861 L438.48948,102.200094 L438.48948,101.903484 C434.941832,106.698682 429.029084,113 426.365099,113 C424.295637,113 423.996751,110.900659 424.886912,108.804614 L429.32797,96.5051789 C429.620359,95.6054614 429.620359,95.3022599 429.32797,95.3022599 C428.441058,95.3022599 426.07271,97.4016008 424.886912,98.6045198 C424.295637,98.6045198 424,98.3013183 424,98.0047081 C425.185798,95.8987759 430.211634,92 432.287593,92 C432.878868,92 434.058168,92.606403 433.76578,93.4995292 L428.437809,107.901601 L428.437809,107.901601 Z M459.881314,102.798211 C463.507408,97.397458 468.34552,92 472.273788,92 C474.090156,92 474.996679,92.8995763 474.996679,94.7020242 C474.996679,95.3017417 474.691184,97.1041895 474.090156,98.0037659 C473.183632,100.6992 469.856392,108.801977 469.557539,109.098541 C469.252043,109.704849 469.252043,109.998117 469.557539,109.998117 C470.464062,109.998117 472.878137,108.498823 474.38901,106.696375 C475,106.696375 475,106.999529 475,107.302683 C473.183632,110.597835 469.255364,113 466.535794,113 C466.230299,113 465.323775,112.400282 465.323775,111.80386 C465.323775,111.207438 465.62927,110.904284 466.535794,108.502118 C467.741171,106.099953 469.557539,101.005649 470.467383,98.6034834 C471.071732,97.7039071 471.67276,95.9014593 471.67276,95.0051781 C471.67276,94.3988702 471.67276,93.8024478 470.766237,93.8024478 C469.560859,93.8024478 466.834648,96.2046132 464.118398,99.7996234 C461.395507,103.101365 459.280285,107.002824 456.557394,112.400282 C456.25854,112.703436 455.953045,113 455.657512,113 C455.046522,113 453.535649,112.703436 454.139998,111.80386 L459.884634,95.9014593 C460.190129,95.3017417 460.190129,94.7053193 459.579139,94.7053193 C458.679257,94.7053193 456.862889,95.9014593 455.352017,97.4007532 C454.747668,97.4007532 454.445493,97.1041895 454.445493,96.5077671 C456.560715,94.1056018 459.58246,92.0032952 461.999856,92.0032952 C463.211874,92.0032952 463.816223,92.9028715 463.211874,94.1088969 L459.881314,102.798211 L459.881314,102.798211 Z M493.87003,95.1407035 C491.73061,96.9664992 488.063032,101.847571 486.534875,104.896147 C485,108.252931 485,109.167504 485,109.777219 C485,110.386935 485.61798,111 485.916894,111 C486.833789,111 489.282199,110.085427 492.647504,106.420436 C496.624072,102.453936 498.15223,99.4053601 498.760134,96.6649916 C499.371397,94.5309883 498.760134,93 497.540967,93 C496.315082,93 495.095915,93.9179229 493.87003,95.1407035 L493.87003,95.1407035 Z M503.08494,83.5451575 C504.32536,80.5715712 504.32536,79.6762276 503.706859,79.378869 L502.466439,78.4867931 C502.466439,78.4867931 502.466439,78.1927022 502.773981,77.8920759 C503.706859,77.5914496 506.512326,77 508.685624,77 L509,77.3006263 C508.067122,79.9735863 507.130827,81.7610057 505.576031,85.9305619 C500.597266,99.6155941 498.106175,107.350186 497.80205,108.836979 C497.487674,109.431696 497.487674,110.023146 498.109592,110.023146 C499.04247,110.023146 502.15548,107.641009 503.710276,105.562767 C504.024652,105.562767 504.332194,105.863393 504.332194,106.157484 C503.091774,108.836979 498.423969,113 495.936295,113 C494.689041,113 494.067122,112.107924 494.067122,111.513207 C494.067122,110.91849 494.381499,110.026414 494.689041,108.539621 L496.558213,103.778615 L496.558213,103.484524 C492.826702,108.238994 489.088357,113 484.109592,113 C482.247254,113 481,111.513207 481,109.431696 C481,105.863393 483.80205,99.909685 487.847938,96.6420078 C491.271906,93.3677952 494.381499,92.175093 496.87259,92.175093 C497.805467,92.175093 499.049304,92.4757193 499.667806,93.6618862 L503.08494,83.5451575 L503.08494,83.5451575 Z M521.14791,96.2509324 C518.221865,99.1324078 515,106.19167 515,110.038334 C515,110.679445 515.59164,111 515.877814,111 C516.463023,111 517.926045,110.358889 520.562701,107.470369 C524.073955,103.623705 526.125402,99.1324078 527,95.9268545 C526.710611,94.9651886 525.832797,94 524.662379,94 C523.488746,94.0035226 522.610932,94.6481558 521.14791,96.2509324 Z M528.631652,91.1173569 C529.222927,90.8185291 530.701114,91.1173569 531,91.7085163 C530.113088,93.7775743 525.967667,104.428188 524.48948,109.154216 C524.197092,109.751871 524.197092,110.040955 524.788366,110.040955 C525.675278,110.040955 526.857828,109.449795 529.814202,106.78633 C530.113088,106.78633 530.411974,107.085158 530.411974,107.383985 C528.336015,110.339783 524.791615,113 522.124381,113 C521.243967,113 520.94508,112.113261 520.94508,111.522101 C520.94508,111.22977 520.94508,110.930942 521.243967,109.751871 L523.014542,105.311679 L522.722153,105.311679 C519.466894,109.453043 514.441058,113 512.075959,113 C510.890161,113 510,111.522101 510,110.343031 C510,109.157464 510.886912,105.019348 514.142172,100.585652 C516.51052,97.3310271 518.576733,95.5543007 520.646194,94.37523 C522.423267,93.189663 523.901454,92.8973314 525.087252,92.8973314 C525.678527,92.8973314 525.967667,93.189663 526.266553,93.189663 C526.266553,93.189663 526.857828,93.7808224 527.153465,94.37523 L528.631652,91.1173569 L528.631652,91.1173569 Z M547.100509,95.0738655 L542.764354,108.21729 C542.764354,109.113433 542.764354,109.41543 543.342508,109.41543 C543.920662,109.41543 547.103685,106.723719 548.54907,104.934717 C549.127224,104.934717 549.416301,105.230148 549.416301,105.830859 C546.519178,110.009575 542.183023,113 540.159485,113 C539.581331,113 539,112.402572 539,111.506429 C539,110.909001 539,110.314855 539.584507,108.821284 L543.920662,95.0738655 L540.451738,95.0738655 C540.159485,94.469872 540.451738,93.8757261 540.737639,93.5737294 L544.787893,92.976301 L547.386409,88.1935912 C547.678663,87.8981596 548.831794,87.8981596 549.124048,88.495588 L547.678663,93.2782977 L552.885225,93.2782977 C553.177479,93.8757261 552.885225,94.7718687 552.307071,95.0738655 L547.100509,95.0738655 Z M571,81.1215255 C571,82.8862314 570.142184,85 568.429694,85 C567.282797,85 567,83.5921138 567,82.5294118 C567,81.4667098 567.571877,79 569.290652,79 C570.428123,79.0038785 571,80.062702 571,81.1215255 Z M564.472322,96.2019774 C564.784241,95.6021657 564.784241,95.0056497 564.472322,95.0056497 C564.167184,95.0056497 562.62454,95.6054614 560.156311,97.7015066 C559.844391,97.7015066 559.539253,97.3983051 559.539253,96.8017891 C562.312621,93.8027307 566.326885,92 567.869528,92 C568.181448,92 568.486586,92.3032015 568.795115,92.3032015 C569.107034,92.9030132 569.107034,93.202919 568.483195,94.7057439 L562.312621,108.80791 C562.312621,109.407721 562.000702,110.004237 562.62454,110.004237 C563.550126,110.004237 566.014966,108.201507 567.869528,106.102166 C568.181448,106.405367 568.486586,106.701977 568.486586,107.001883 C567.869528,108.501412 562.62454,113 559.230724,113 C558.918805,113 558.613667,112.70339 558.305138,112.400188 C558,112.096987 558,111.800377 558,111.203861 L564.472322,96.2019774 Z M585.02729,95.4019769 C582.204831,99.3031301 580,105.306425 580,107.698517 C580,109.500824 580.634881,111 582.204831,111 C583.146801,111 584.40276,110.400329 586.290151,108.304778 C588.48808,105.602965 590.68256,99.0065898 591,96.3014827 C591,94.8023064 590.68256,93 588.80207,93 C587.85665,93 586.59724,93.3031301 585.02729,95.4019769 L585.02729,95.4019769 Z M593.966928,98.3003295 C593.966928,101.002354 592.387555,105.803389 588.613648,109.401695 C585.468725,112.703436 582.638295,113 581.058922,113 C577.914,113 575.712554,110.597835 576.030502,106.403107 C576.341538,103.404519 578.231948,98.3003295 581.694818,95.3017417 C584.214212,92.6063079 586.723238,92 588.613648,92 C592.387555,92 594.277964,94.7053193 593.966928,98.3003295 L593.966928,98.3003295 Z M608.029105,102.798211 C611.626329,97.397458 616.41057,92 620.007794,92 C622.102338,92 623,92.8995763 623,94.7020242 C623,95.3017417 622.401559,97.1041895 622.102338,98.0037659 C621.204676,100.6992 617.614029,108.801977 617.614029,109.098541 C617.31152,109.704849 617.31152,109.998117 617.614029,109.998117 C618.511691,109.998117 620.908744,108.498823 622.102338,106.696375 C623,106.696375 623,106.999529 623,107.302683 C621.201388,110.597835 617.31152,113 614.618535,113 C614.013517,113 613.418364,112.400282 613.418364,111.80386 C613.418364,111.207438 613.418364,110.904284 614.618535,108.502118 C615.50962,106.099953 617.308232,101.005649 618.511691,98.6034834 C618.807623,97.7039071 619.705285,95.9014593 619.705285,95.0051781 C619.705285,94.3988702 619.402776,93.8024478 618.807623,93.8024478 C617.614029,93.8024478 614.621823,96.2046132 611.922261,99.7996234 C609.525208,103.101365 607.433952,107.002824 604.441746,112.400282 C604.139238,112.703436 604.139238,113 603.544084,113 C602.948931,113 601.745473,112.703436 602.047981,111.80386 L608.032394,95.9014593 C608.032394,95.3017417 608.032394,94.7053193 607.729885,94.7053193 C606.536291,94.7053193 605.040188,95.9014593 603.241576,97.4007532 C602.945643,97.4007532 602.643135,97.1041895 602.643135,96.5077671 C604.441746,94.1056018 607.433952,92.0032952 610.12365,92.0032952 C611.021311,92.0032952 611.626329,92.9028715 611.32382,94.1088969 L608.029105,102.798211 L608.029105,102.798211 Z M12,30.5516475 L12,46.3258053 C12.3113072,49.6612366 12.3113072,50.8741207 14.4938783,51.7871159 C16.3617213,52.696779 19.4782139,53 20.7200216,53 C24.7704357,53 31,50.8741207 31,42.6838208 C31,38.4387264 29.4400432,32.0644206 24.1478214,28.4257682 C21.6539431,26.6064421 19.7895211,26.303221 17.9182571,26.303221 C16.9843356,26 13.2452287,26 12.3113072,26 C12,26 12,26.303221 12,26.6064421 L12,30.5516475 Z M12,22.8174505 C12,23.4087252 12,23.7043626 12.2887479,23.7043626 C12.8662436,23.7043626 14.0212351,24 16.334391,24 C20.0881133,24 21.2431047,23.7043626 22.6900171,22.2261757 C24.1337564,20.4523515 25,18.0872525 25,15.12763 C25,9.21163366 22.4012692,3 16.0456432,3 C15.1793996,3 13.7356602,3 12.5806688,3.29563738 C12.0031731,3.59127475 12.0031731,3.59127475 12.0031731,4.1825495 L12.0031731,22.8174505 L12,22.8174505 L12,22.8174505 Z M6.0005492,21.7010435 C6.0005492,10.6024898 6.0005492,8.79996339 5.7006865,6.40098859 C5.7006865,3.9987185 5.1009611,2.7992311 2.7020595,2.1994874 L0.2998627,2.1994874 C0,2.1994874 0,1.89961555 0,1.5997437 C0,1.29987185 0.2998627,1 0.899588101,1 C4.1980778,1 8.6993135,1.29987185 8.9991762,1.29987185 C10.4984897,1.29987185 13.197254,1 16.4990389,1 C27.8971167,1 30.5991762,8.20021969 30.5991762,11.7986819 C30.5991762,17.496247 27.3006865,21.0980045 23.9989016,24.699762 C29.0998627,26.2024165 36,31.300238 36,39.6999451 C36,47.2000366 30.3026087,55 18.3015103,55 C16.5023341,55 9.3023341,54.7001282 9.0024714,54.7001282 L2.1023341,54.7001282 C1.202746,54.7001282 0.902883295,54.7001282 0.902883295,54.4002563 C0.902883295,54.1003845 1.202746,53.7972173 1.5026087,53.7972173 C2.1023341,53.7972173 3.0019222,53.7972173 3.6016476,53.4973455 C5.1009611,53.1974736 5.4008238,51.6981144 5.7006865,49.5957161 C6.0005492,46.5969976 6.0005492,41.196009 6.0005492,34.2956612 L6.0005492,21.7010435 L6.0005492,21.7010435 Z M57.4141719,37.5617461 C57.4141719,43.2721137 57.4141719,48.0874497 57.7081628,50.7923607 C57.7081628,52.295089 58.0021538,53.7978173 59.7660995,54.098363 C60.6480724,54.098363 62.1180271,54.3989087 62.4120181,54.3989087 C62.706009,54.3989087 63,54.3989087 63,54.6994543 C63,55 62.706009,55 62.1180271,55 L48.8819729,55 C48.293991,55 48,55 48,54.6994543 C48,54.3989087 48.293991,54.3989087 48.5879819,54.3989087 C49.1759638,54.3989087 49.7639457,54.098363 50.3519276,54.098363 C51.5278914,53.7978173 51.8218824,52.295089 52.1158734,50.7923607 C52.4098643,48.0874497 52.4098643,43.2754164 52.4098643,37.5617461 L52.4098643,26.7387995 C52.4098643,17.1180356 52.4098643,15.6153073 52.1158734,13.508185 C52.1158734,11.4043653 51.5246608,10.5027283 50.3519276,10.2021827 C49.4699548,9.90163699 48.8787422,9.90163699 48.293991,9.90163699 C48,9.90163699 48,9.60109133 48,9.60109133 C48,9 48.293991,9 48.8819729,9 C50.6459186,9 54.4710317,9.30054566 54.7650226,9.30054566 C55.0590136,9.30054566 58.8841266,9 60.6480724,9 C61.2360543,9 61.5300452,9 61.5300452,9.60109133 C61.5300452,9.60109133 61.2360543,9.90163699 60.9420633,9.90163699 L59.4688779,9.90163699 C57.9989231,10.2021827 57.4109412,11.4043653 57.4109412,13.508185 L57.4109412,37.5617461 L57.4141719,37.5617461 Z M83.3830058,37.3730651 C83.3830058,46.3341893 83.6880925,50.2192025 84.9084393,51.1149868 C85.8236994,52.3093659 87.3524855,52.6079606 92.2338728,52.6079606 C95.2880925,52.6079606 98.0338728,52.6079606 99.5593064,50.816392 C100.474566,49.9206077 101.08474,48.4243527 101.08474,47.2332549 C101.08474,46.6360653 101.389827,46.3374706 101.694913,46.3374706 C102,46.3374706 102,46.6360653 102,47.2332549 C102,47.8304444 101.694913,51.7154576 101.08474,53.5070262 C100.779653,54.7014052 100.474566,55 97.4236994,55 C88.5728324,55 84.6033526,54.7014052 80.9389595,54.7014052 L74.8338728,54.7014052 C74.2236994,54.7014052 73.9186127,54.7014052 73.9186127,54.4028105 C73.9186127,54.1042157 74.2236994,54.1042157 74.5287861,54.1042157 C74.8338728,54.1042157 75.7491329,53.8056209 76.3593064,53.8056209 C77.5796532,53.5070262 77.8847399,52.0140524 77.8847399,50.5210785 C78.4949133,47.8337257 78.4949133,43.0529282 78.4949133,37.3763464 L78.4949133,26.6236536 C78.4949133,17.0653399 78.4949133,15.5723661 78.1898266,13.4789215 C78.1898266,11.3887581 77.5796532,10.4929738 75.7491329,9.89578429 L73.613526,9.89578429 C73.3084393,9.89578429 73,9.59718953 73,9.59718953 C73,9 73.3084393,9 73.9152601,9 C76.6610405,9 80.6305202,9.29859476 80.9356069,9.29859476 C81.2406936,9.29859476 85.8203468,9 87.6508671,9 C88.2643931,9 88.5661272,9 88.5661272,9.59718953 C88.5661272,9.59718953 88.2610405,9.89578429 87.9559538,9.89578429 L86.1254335,9.89578429 C84.2949133,10.1943791 83.6813873,11.3887581 83.6813873,13.4789215 C83.3763006,15.5723661 83.3763006,17.0653399 83.3763006,26.6236536 L83.3763006,37.3730651 L83.3830058,37.3730651 L83.3830058,37.3730651 Z M117.383006,37.3730651 C117.383006,46.3341893 117.688092,50.2192025 118.603353,51.1149868 C119.518613,52.3093659 121.044046,52.6079606 125.928786,52.6079606 C129.28474,52.6079606 132.03052,52.6079606 133.25422,50.816392 C134.16948,49.9206077 134.779653,48.4243527 135.08474,47.2332549 C135.08474,46.6360653 135.08474,46.3374706 135.389827,46.3374706 C135.694913,46.3374706 136,46.6360653 136,47.2332549 C136,47.8304444 135.389827,51.7154576 135.08474,53.5070262 C134.474566,54.7014052 134.474566,55 131.11526,55 C122.264393,55 118.294913,54.7014052 114.633873,54.7014052 L108.833873,54.7014052 C107.918613,54.7014052 107.613526,54.7014052 107.613526,54.4028105 C107.613526,54.1042157 107.918613,54.1042157 108.223699,54.1042157 C108.833873,54.1042157 109.444046,53.8056209 110.05422,53.8056209 C111.274566,53.5070262 111.579653,52.0140524 111.88474,50.5210785 C112.189827,47.8337257 112.189827,43.0529282 112.189827,37.3763464 L112.189827,26.6236536 C112.189827,17.0653399 112.189827,15.5723661 111.88474,13.4789215 C111.88474,11.3887581 111.579653,10.4929738 109.440694,9.89578429 L107.305087,9.89578429 C107,9.89578429 107,9.59718953 107,9.59718953 C107,9 107.305087,9 107.91526,9 C110.66104,9 114.325434,9.29859476 114.63052,9.29859476 C114.935607,9.29859476 119.51526,9 121.342428,9 C121.955954,9 122.257688,9 122.257688,9.59718953 L121.952601,9.89578429 L119.813642,9.89578429 C117.983121,10.1943791 117.678035,11.3887581 117.372948,13.4789215 L117.372948,37.3730651 L117.383006,37.3730651 L117.383006,37.3730651 Z M159,28.902197 L159,27.7413182 C159,26.5804394 158.357647,26 157.394118,26 C156.430588,26 154.821176,26.8706591 153.215294,28.902197 C151.288235,30.9337349 150.642353,32.6782424 150,35 C153.098532,33.088935 156.101498,31.0543248 159,28.902197 L159,28.902197 Z M147,39.4804611 C147,37.0752414 147.908637,32.5621505 151.849393,28.353016 C155.181062,25.0458388 158.516059,24.44123 159.424696,24.44123 C161.847728,24.44123 162.150607,25.9444924 162.756365,26.5457973 C164.876519,24.7418825 168.511067,21.130749 170.02879,19.0261818 C170.637877,18.1242244 171.846064,16.0196571 171.846064,14.8137433 C171.846064,13.9117859 171.543185,13.6111335 171.240306,13.310481 C170.634548,12.7091761 170.634548,12.7091761 170.634548,12.1078711 C170.634548,10.6013049 171.543185,10 172.754701,10 C173.966217,10 174.874854,10.6013049 174.874854,12.7058722 C174.874854,15.4117444 173.360459,18.7222254 168.511067,23.2353163 C164.270761,27.4444508 155.783491,34.062109 150.331669,37.6732425 L150.331669,38.2745474 C150.331669,44.5915531 155.483941,47.0000767 159.421368,47.0000767 C163.661674,47.0000767 168.813946,43.9902481 171.842736,38.5785037 C173.962889,34.9673703 174.571975,32.261498 174.571975,28.0490596 C173.962889,27.7484072 173.054252,27.1471022 171.842736,27.1471022 C170.328341,27.1471022 168.208188,28.6503646 168.208188,30.4542794 C168.208188,31.0555843 168.511067,31.6568892 168.511067,32.2581942 C168.813946,32.8594991 169.120153,33.460804 169.120153,33.7614565 C169.120153,34.062109 168.817274,35.2647188 167.302879,35.2647188 C166.394242,35.2647188 165.182726,34.3627614 165.182726,33.1601516 C165.182726,31.6535854 166.091363,29.5490181 168.514395,27.1437984 C170.637877,25.640536 173.060909,25.0392311 173.666667,25.0392311 C176.392578,25.0392311 177.906973,26.8431459 180.636212,29.2483656 C181.847728,30.150323 181.847728,30.4509755 182.756365,30.4509755 C183.362123,30.4509755 183.665002,29.8496706 183.665002,28.9444093 L183.665002,27.7417994 C183.362123,27.1404945 183.362123,27.1404945 183.362123,26.8431459 C183.362123,26.2385371 183.967882,25.640536 184.876519,25.640536 C186.394242,25.640536 187,27.1437984 187,28.3464082 C187,29.5490181 186.394242,30.4509755 186.091363,31.0522804 C185.485605,31.3529329 185.182726,31.3529329 184.576968,31.3529329 C183.668331,31.6535854 181.851057,32.2548903 180.636212,32.5555428 C180.333333,33.1568477 179.727575,32.8561952 179.424696,32.5555428 C179.121817,31.9542378 177.607422,30.1470192 176.093027,28.6437568 C176.093027,29.5457142 175.790148,32.2548903 175.790148,33.1568477 C175.790148,34.66011 174.578632,39.7745058 170.641205,44.2875967 C167.003328,48.1993827 161.851057,50 158.216509,50 C150.02879,50.0066013 147,44.8955094 147,39.4804611 L147,39.4804611 Z M258.163076,45.925166 C258.467682,48.3449004 258.772288,52.2715751 261.818349,53.4797827 C263.306546,53.8920037 264.845664,54.0953497 266.390788,54.0838865 C267,54.0838865 267,54.0838865 267,54.3859384 C267,54.6879903 266.390788,54.9933615 265.476969,54.9933615 C263.953939,54.9933615 256.335439,54.6913096 253.593984,54.6913096 C252.067606,54.3892577 251.766348,54.0872058 251.766348,53.7851539 C251.766348,53.483102 251.766348,53.483102 252.070954,53.483102 C252.680166,53.1810501 252.680166,51.9695232 252.37556,50.7613156 L249.024893,13.8943874 L248.720287,13.8943874 L231.351044,51.0633675 C229.824666,54.0838865 229.824666,54.9933615 229.215454,54.9933615 C228.606242,54.9933615 228.304983,54.0872058 226.778605,51.6707906 C224.950969,48.0461678 218.8555,35.6554013 218.550893,35.0512975 C215.355832,28.2225117 212.207049,21.3725282 209.104757,14.5018105 L208.800151,14.5018105 L206.058696,47.7441159 L206.058696,51.3687387 C206.058696,52.5769463 206.671255,53.4864212 207.886333,53.7884731 C209.104757,53.7884731 210.018575,54.090525 210.627787,54.090525 C210.627787,54.090525 210.932394,54.090525 210.932394,54.3925769 C210.932394,55 210.627787,55 209.713969,55 C207.273773,55 203.6185,54.6979481 203.009288,54.6979481 C202.400075,54.6979481 199.046061,55 197.218424,55 C196.609212,55 196,55 196,54.3925769 C196,54.090525 196.304606,54.090525 196.609212,54.090525 C197.218424,54.090525 197.827637,54.090525 198.744802,53.7884731 C201.184998,53.4864212 201.486257,50.4659022 201.790863,47.7441159 L206.667908,1.2082076 C206.972514,0.302051901 207.27712,0 207.578379,0 C207.882985,0 208.190939,0.302051901 208.796804,0.906155703 L230.433879,45.9284852 L251.461742,0.906155703 C251.766348,0.298732649 251.766348,0 252.37556,0 C252.984772,0 252.984772,0.604103802 253.289378,1.81231141 L258.163076,45.925166 Z M278.154757,26.4612785 L278.154757,13.2312025 C278.154757,11.0751901 277.548315,9.84849338 275.425768,9.53759504 C275.122547,9.53759504 273.909663,9.23007603 273.606442,9.23007603 C273.303221,9.23007603 273,9.23007603 273,8.92255703 C273,8.61503802 273.303221,8.30751901 273.909663,8.30751901 C276.638652,8.30751901 280.583858,8.61503802 280.887079,8.61503802 L294.84191,8.61503802 C295.751573,8.61503802 296.964458,8.30751901 297.271011,8.30751901 C297.574232,8.30751901 297.877453,8 298.180674,8 C298.483895,8 298.483895,8.30751901 298.483895,8.61503802 C298.483895,8.92255703 298.180674,9.84511405 297.874121,11.3827091 C297.874121,11.9977471 297.874121,14.7654182 297.5709,15.6913545 C297.5709,15.9988736 297.5709,16.3063926 297.267679,16.3063926 C296.964458,16.3063926 296.661237,15.9988736 296.661237,15.3838355 C296.661237,15.0763165 296.661237,13.8428612 296.358016,13.2312025 C296.054795,12.3086455 295.448352,11.3860884 292.112921,11.0751901 C290.900037,11.0751901 284.529063,10.7676711 283.6194,10.7676711 C283.6194,10.7676711 283.316179,11.0751901 283.316179,11.3827091 L283.316179,28.6172909 C283.316179,29.2323289 283.316179,29.5398479 283.6194,29.5398479 C284.529063,29.5398479 292.112921,29.5398479 293.329137,29.2323289 C294.845243,29.2323289 295.754906,28.9248099 296.361348,28.3097719 C296.664569,28.0022529 296.96779,27.6913545 297.271011,27.6913545 C297.271011,27.6913545 297.574232,27.6913545 297.574232,27.9988736 C297.574232,28.3063926 297.271011,29.5364686 296.96779,31.6891017 C296.96779,32.9191777 296.664569,35.0718108 296.664569,35.6902281 C296.664569,35.9977471 296.664569,36.6127851 296.361348,36.6127851 C296.058127,36.6127851 295.754906,36.6127851 295.754906,36.3052661 L295.754906,34.1492537 C295.451685,33.2266967 294.845243,32.3041397 292.419474,31.9966207 C290.903369,31.6891017 284.835616,31.6891017 283.925953,31.6891017 C283.622732,31.6891017 283.316179,31.6891017 283.316179,31.9966207 L283.316179,48.3052661 C283.6194,52.6105322 284.532395,53.2289496 290.600148,53.2289496 C292.116253,53.2289496 294.845243,53.2289496 296.361348,52.6139116 C297.877453,51.9988736 298.487227,50.7687975 299.090337,48.3086455 C299.090337,47.3860884 299.393558,47.3860884 299.696779,47.3860884 C300,47.3860884 300,47.6936074 300,48.3086455 C300,48.6161645 299.390226,52.9248099 299.090337,54.1548859 C298.787116,56 298.180674,56 295.754906,56 C286.654943,56 282.709737,55.384962 280.890411,55.384962 C280.58719,55.384962 279.677527,55.692481 278.464643,55.692481 L274.822658,55.692481 C274.216216,55.692481 273.912995,55.692481 273.912995,55.0740636 C273.912995,55.0740636 273.912995,54.7665446 274.519437,54.7665446 C274.822658,54.7665446 275.732321,54.7665446 276.338763,54.4590256 C277.551648,54.1515066 277.854869,52.9214306 277.854869,51.0763165 C278.15809,48.6161645 278.15809,43.692481 278.15809,37.5387215 L278.15809,26.4612785 L278.154757,26.4612785 L278.154757,26.4612785 Z M318.683505,36.1958617 C318.683505,45.0979308 318.683505,48.9573413 319.907063,50.1438492 C320.822217,51.0337302 322.350826,51.6269841 327.235002,51.6269841 C330.587215,51.6269841 333.336031,51.3303571 334.556236,49.8472222 C335.471391,48.6607143 336.081493,47.1775794 336.389897,45.9878118 C336.389897,45.6911848 336.389897,45.3945578 336.691596,45.3945578 C337,45.3945578 337,45.6911848 337,46.2844388 C337,46.8809524 336.691596,50.4404762 336.389897,52.2202381 C335.779794,53.703373 335.474743,54 332.420876,54 C323.56768,54 319.602011,53.406746 315.941394,53.406746 C315.63299,53.406746 314.717836,53.703373 313.49763,53.703373 L310.142065,53.703373 C309.531962,53.703373 308.921859,53.703373 308.921859,53.1068594 C308.921859,53.1068594 309.22691,52.8102324 309.531962,52.8102324 C310.142065,52.8102324 310.752167,52.8102324 311.36227,52.5136054 C312.582476,52.2169785 312.887527,51.0304705 313.192579,49.2507086 C313.49763,46.8776927 313.49763,42.1284014 313.49763,36.192602 L313.49763,25.510771 C313.49763,16.3120748 313.49763,14.5290533 313.192579,12.7492914 C313.192579,10.6696429 312.582476,9.48639456 310.748815,9.18650794 C310.138712,9.18650794 309.223558,8.88988095 308.613455,8.88988095 C308.308404,8.88988095 308,8.88988095 308,8.59325397 C308,8.29662698 308.305051,8 309.220206,8 C311.969021,8 315.629638,8.29662698 315.93469,8.29662698 C316.236389,8.29662698 320.818865,8 322.645821,8 C323.262629,8 323.560976,8.29662698 323.560976,8.59325397 C323.560976,8.88988095 323.259276,8.88988095 323.259276,8.88988095 C322.642469,8.88988095 321.727315,9.18650794 321.117212,9.18650794 C319.290255,9.48313492 318.673448,10.3730159 318.673448,12.7492914 L318.673448,36.1958617 L318.683505,36.1958617 L318.683505,36.1958617 Z M354.408915,36.3755795 C354.408915,42.3499037 354.408915,47.1300193 354.706072,49.5184366 C354.99677,51.3097497 355.293928,52.5072391 357.054264,52.8025105 C357.936047,53.1010627 359.118217,53.1010627 359.702842,53.1010627 C360,53.1010627 360,53.3996149 360,53.3996149 C360,53.698167 359.702842,54 359.118217,54 C355.881783,54 352.354651,53.7014478 352.057494,53.7014478 C351.760336,53.7014478 347.945736,54 346.178941,54 C345.591085,54 345.297158,54 345.297158,53.3996149 C345.297158,53.3996149 345.297158,53.1010627 345.594315,53.1010627 C346.182171,53.1010627 346.766796,53.1010627 347.354651,52.8025105 C348.533592,52.5039583 348.824289,51.3097497 349.121447,49.5184366 C349.418605,47.1300193 349.418605,42.3499037 349.418605,36.3755795 L349.418605,25.6244205 L349.418605,12.7801155 C349.121447,10.6869695 348.536822,9.49604165 347.354651,9.19420869 C346.766796,9.19420869 345.885013,8.89565652 345.594315,8.89565652 C345.297158,8.89565652 345,8.89565652 345,8.59710434 C345,8.29855217 345.297158,8 345.881783,8 C347.945736,8 351.760336,8.29855217 352.057494,8.29855217 C352.354651,8.29855217 355.881783,8 357.645349,8 C358.233204,8 358.527132,8.29855217 358.527132,8.59710434 C358.527132,8.89565652 358.229974,8.89565652 358.229974,8.89565652 C357.642119,8.89565652 357.348191,9.19420869 356.760336,9.19420869 C354.99354,9.49276086 354.702842,10.3884174 354.405685,12.7801155 L354.405685,36.3755795 L354.408915,36.3755795 L354.408915,36.3755795 Z M377.279418,47.1347418 C377.589433,52.3330069 378.199353,53.8609207 379.735948,54.4720862 C380.959159,54.777669 382.192479,54.777669 382.802399,54.777669 C383.112414,54.777669 383.415689,55.0832517 383.415689,55.0832517 C383.415689,55.6977753 383.112414,55.6977753 382.192479,55.6977753 C378.816013,55.6977753 376.362852,55.3921925 375.749562,55.3921925 C375.136272,55.3921925 372.683111,55.6977753 369.919935,55.6977753 C369.306645,55.6977753 369,55.6977753 369,55.0832517 C369,55.0832517 369,54.777669 369.310015,54.777669 C369.923305,54.777669 370.84324,54.777669 371.766545,54.4720862 C373.299771,54.1665034 373.609786,52.3330069 373.609786,46.5235763 L373.609786,11.0591857 C373.609786,8.61116552 373.913061,8 374.522982,8 C374.832996,8 376.062946,9.22233105 376.676237,9.83349657 C377.596172,11.0558276 386.798895,20.8378341 395.998248,31.2343641 C401.02339,36.5298797 405.934206,41.9319846 410.727322,47.4369666 L410.107292,15.9485099 C410.107292,11.6669931 409.804017,10.4446621 407.657501,9.83349657 C406.737566,9.83349657 405.20097,9.52791381 404.894325,9.52791381 C404.281035,9.52791381 404.281035,9.52791381 404.281035,9.22233105 C404.281035,8.91674829 404.894325,8.61116552 405.504246,8.61116552 C408.267421,8.61116552 411.333872,8.91674829 411.947163,8.91674829 L417.776789,8.91674829 C418.39008,8.91674829 419,8.91674829 419,9.22233105 C419,9.52791381 418.696725,9.83349657 418.38671,9.83349657 L416.853484,9.83349657 C414.706969,10.4446621 414.396954,11.6669931 414.396954,15.3373443 L413.783664,51.1073178 C413.783664,55.0798937 413.473649,56 413.170373,56 C412.550344,56 411.940423,55.3888345 408.563957,52.024066 C407.950667,51.4129005 399.05459,42.5476424 392.618412,35.210298 C385.555466,27.5673709 383.109044,24.2059605 378.199353,18.0909473 L377.279418,47.1347418 L377.279418,47.1347418 Z M435.003295,32.404703 L435.003295,45.7291151 C435.003295,47.2424969 435.306425,49.9665842 435.602965,50.575263 C436.502471,51.7859684 438.904448,53 445.803954,53 C451.504119,53 456.601318,50.8779394 460.205931,47.245823 C463.500824,44.2157333 465,38.1622061 465,32.7107054 C465,24.8377939 461.705107,19.6889697 459.30313,16.9648824 C453.602965,10.9080291 446.70346,10 439.500824,10 C438.304778,10 436.205931,10.3026764 435.599671,10.6053527 C435.30313,10.9080291 435,11.2140316 435,11.8160582 L435,32.404703 L435.003295,32.404703 L435.003295,32.404703 Z M430.149155,26.1560851 L430.149155,12.925542 C429.84333,10.7694535 429.544154,9.54271345 427.423327,9.23180413 C426.818326,9.23180413 425.910825,8.92427426 425.305825,8.92427426 C425,8.92427426 425,8.92427426 425,8.6167444 C425,8.30921453 425.305825,8.00168466 425.907501,8.00168466 C428.633329,8.00168466 432.263333,8.30921453 432.569157,8.30921453 C433.47001,8.30921453 437.106663,8.00168466 440.736667,8.00168466 C446.786674,8.00168466 457.985836,7.6941548 465.252493,15.3891604 C468.277497,18.464459 471,23.6958462 471,31.0799425 C471,39.0790984 467.974996,44.9255454 464.644168,48.6159038 C461.924989,51.6912024 456.476658,56 446.184998,56 C441.042492,56 433.174158,55.0774104 432.569157,55.0774104 C432.263333,55.0774104 428.633329,55.3849403 426.818326,55.3849403 C426.213326,55.3849403 425.910825,55.3849403 425.910825,54.7665011 C425.910825,54.7665011 425.910825,54.4589712 426.21665,54.4589712 C426.821651,54.4589712 427.423327,54.4589712 428.028328,54.1514414 C429.241653,53.8439115 429.547478,52.613792 429.846654,50.7686128 C430.152479,48.3083739 430.152479,43.3845166 430.152479,37.2305398 L430.152479,26.1560851 L430.149155,26.1560851 L430.149155,26.1560851 Z M497.703297,34 C498,34 498,33.6911037 498,33.3822073 L492.296703,16.6950167 C492,15.7683278 491.696703,15.7683278 491.403297,16.6950167 L486,33.3822073 C486,33.6911037 486,34 486.296703,34 L497.703297,34 L497.703297,34 Z M492.046313,10.4635314 C492.941409,8.31089834 493.245279,8 493.549149,8 C493.846413,8 494.150284,8.30751901 494.748115,10.1560124 C495.649817,12.6161645 505.277878,38.4578992 508.881381,47.6902281 C510.985352,53.2289496 512.792059,54.4590256 513.991025,54.7665446 C514.892726,55.0740636 515.797731,55.0740636 516.398866,55.0740636 C516.702736,55.0740636 517,55.0740636 517,55.3815827 C517,56 516.398866,56 515.801034,56 L506.480146,56 C505.28118,55.692481 504.67344,55.692481 504.67344,55.3815827 C504.67344,55.0740636 504.67344,55.0740636 504.97731,55.0740636 C505.28118,54.7665446 505.578445,54.4590256 505.28118,53.2289496 L499.867667,37.8462405 C499.563797,37.5387215 499.563797,37.5387215 499.259927,37.5387215 L486.332232,37.5387215 C486.009287,37.560104 485.751997,37.8233452 485.731098,38.1537595 L482.117685,49.2278231 C481.516551,50.7654182 481.222589,52.3030132 481.222589,53.2289496 C481.222589,54.4590256 482.421555,55.0740636 483.63043,55.0740636 L483.927694,55.0740636 C484.528829,55.0740636 484.829396,55.3815827 484.829396,55.3815827 C484.829396,56 484.228262,56 483.927694,56 C482.424858,56 479.71645,55.692481 479.115316,55.692481 C478.514181,55.692481 475.204638,56 472.198966,56 C471.597832,56 471,56 471,55.3815827 C471,55.3815827 471.297264,55.0740636 471.601134,55.0740636 L473.407841,55.0740636 C476.109643,54.4590256 477.318518,52.3063926 478.517484,49.2312025 L492.046313,10.4635314 L492.046313,10.4635314 Z" id="Shape" fill="#FFFFFF" fill-rule="nonzero"></path>
    </g>
</svg>