<svg width="141" height="114" xmlns="http://www.w3.org/2000/svg"><g fill-rule="nonzero" fill="none"><path d="M66.995 39.53a11.426 11.426 0 01.481-3.54c4.062 1.142 6.537 3.127 6.566 5.267 0 .83-.591 1.853-2.451 2.058-2.517.283-4.115-.975-4.377-2.663v-1.13m6.192 15.4c-2.98 0-5.395 2.406-5.395 5.374v29.972c.172 2.838 2.532 5.05 5.385 5.05 2.853 0 5.213-2.212 5.385-5.05V60.315c0-2.968-2.416-5.374-5.395-5.374M23.457 90.268v6.691c0 3.461-2.816 6.267-6.29 6.267s-6.29-2.806-6.29-6.267V54.707a5.369 5.369 0 00-2.594-4.923 5.412 5.412 0 00-5.581 0 5.369 5.369 0 00-2.594 4.923V96.96c.006 7.778 5.304 14.562 12.87 16.48 7.566 1.918 15.474-1.517 19.212-8.345a17.019 17.019 0 01-8.713-14.835m117.098-68.177C134.33 8.509 120.66-.14 105.674 0c-16.152.05-30.56 10.126-36.096 25.242a17.186 17.186 0 019.046 7.52c2.656-12.79 13.94-21.981 27.05-22.033 10.745-.073 20.534 6.138 25.013 15.869a5.398 5.398 0 004.42 3.09A5.406 5.406 0 00140 27.42a5.361 5.361 0 00.476-5.358" fill="#FFF"/><path d="M122.836 74.702c-3.165 7.716-11.364 12.127-19.576 10.532-8.212-1.595-14.147-8.751-14.17-17.086v-28.88c-.004-8.357 5.935-15.544 14.167-17.144 8.233-1.6 16.449 2.835 19.598 10.58a5.368 5.368 0 01-3.014 6.891c-2.72 1.098-5.82-.17-6.981-2.854a6.74 6.74 0 00-7.556-4.124 6.717 6.717 0 00-5.446 6.65v28.87a6.717 6.717 0 005.449 6.568 6.74 6.74 0 007.523-4.05c1.161-2.685 4.263-3.953 6.981-2.855a5.368 5.368 0 013.015 6.892M63.82 24.247c-9.43.01-17.073 7.625-17.083 17.02v48.992c0 3.46-2.816 6.266-6.29 6.266s-6.29-2.805-6.29-6.266V48.016c-.172-2.837-2.532-5.05-5.385-5.05-2.853 0-5.213 2.213-5.385 5.05V90.26c0 9.4 7.649 17.02 17.084 17.02 9.435 0 17.084-7.62 17.084-17.02V41.267a6.248 6.248 0 013.265-5.496 6.296 6.296 0 016.407.23 6.266 6.266 0 012.937 5.266c0 .829-.264 1.853-1.096 2.058-1.126.283-1.84-.975-1.958-2.663v-.448c0 3.784 2.144 8.173 7.107 8.173a6.738 6.738 0 004.963-2.08 6.686 6.686 0 001.841-5.04 17.017 17.017 0 00-5.053-12.068 17.147 17.147 0 00-12.148-4.952" fill="#ADADAD"/></g></svg>