<svg width="582" height="98" xmlns="http://www.w3.org/2000/svg"><g fill-rule="nonzero" fill="none"><path d="M425.083 1h17.765v75.395-.195.877c0 4.968 2.414 7.5 7.338 7.695H475v8.572c0 .974-.483 1.656-1.545 1.656H433.29C420.834 95 419 88.084 419 81.85V6.26c0-3.604 1.352-5.26 5.503-5.163h.58M377.83 1H396v89.032c0 3.994-1.652 4.968-5.053 4.968H372V5.968c.097-3.02 1.166-4.968 5.344-4.87h-.291L377.83 1M.004 14.637v-.487c0-3.8-.196-7.89 2.16-10.423C4.322 1.487 7.855 1 12.273 1H64v9.059c0 .584-.294 1.266-1.178 1.266h-31.31c-4.516.195-6.086 1.753-6.283 6.234v23.864h36.808v9.546c0 .779-.589 1.168-1.374 1.168H25.229V88.86v-.195 1.266c-.098 3.702-1.864 5.163-5.987 5.065H.004V14.637M81.534 1.097h18.058v71.34c0 6.114.874 10.385 5.146 12.909 5.728 3.3 16.408 3.397 22.233.097 3.98-2.233 5.534-5.63 5.534-12.521V5.756c.097-3.106 1.165-4.756 5.34-4.659H156v63.38c0 4.271 0 14.171-3.301 19.607-3.398 5.63-8.544 9.415-15.728 11.453-11.942 3.3-30 3.3-41.262-.097C82.214 91.363 76 83.404 76 70.398V7.212v.291-1.455c0-1.748.485-3.398 1.068-3.98.68-.68 1.942-1.068 3.98-1.068h.486M554.093 1.097c-4.764 0-7.293 2.141-8.557 6.423L530.27 72.23h-.389S515.88 8.882 514.031 1h-21.586C488.265 1 487 3.14 487 6.45V94.902h9.14c1.459 0 2.042-.779 2.042-2.238v-74.15h1.459l.972 3.504c.195.68 16.53 64.807 18.572 72.884h12.835c4.862 0 6.613-1.946 7.78-6.715l17.502-69.575h1.458V95h17.114c4.181 0 6.126-1.654 6.126-5.741V1.097h-27.907M308.02 1.097c-4.353 0-7.835.487-9.963 2.728-2.322 2.532-2.225 6.623-2.225 10.422V38.306c0 .39-.194.682-.484.877L279 52.137h16.832v42.858h18.96c3.966.098 5.804-1.363 5.9-5.065v-1.266.195-36.722h34.922c.774 0 1.355-.39 1.355-1.168v-9.546h-36.18V17.559c.194-4.383 1.742-5.942 6.192-6.234h30.858c.87 0 1.161-.585 1.161-1.266V1h-50.98M271 52h-24v43h18.947c3.401 0 5.053-.975 5.053-4.973V52M269.64 33.434c.874-.676 1.36-1.159 1.36-2.606V1.003H252.053h.291C248.166.907 247.097 2.837 247 5.83V51l22.64-17.566M187.425 87.31c10.31-1.459 13.778-7.679 13.778-16.815V6.06c0-3.888 2.216-5.151 4.72-5.054H225v60.938c0 14.967-3.083 22.548-11.947 28.962C208.43 94.21 200.432 98 183.09 98c-9.924 0-14.356-.583-14.934-.68-.867-.195-1.156-.68-1.156-1.361v-7.97c4.143.098 13.488.39 20.425-.68" fill="#000"/><path d="M425.279.004h18.051v75.47-.195.78c0 4.973 2.453 7.508 7.457 7.703H476v8.58c0 .975-.49 1.658-1.57 1.658h-40.91C420.864 94 419 87.077 419 80.837V5.172c0-3.608 1.373-5.265 5.592-5.168h.687M378.83 0H397v89.032c0 3.994-1.652 4.968-5.053 4.968H373V4.968c.097-3.02 1.166-4.968 5.344-4.87h-.291L378.83 0M1.004 13.623v-.487c0-3.795-.196-7.882 2.254-10.411C5.414.487 8.942 0 13.352 0H65v9.05c0 .583-.294 1.264-1.176 1.264H32.561c-4.508.195-6.076 1.849-6.272 6.228v23.84h36.75v9.535c0 .778-.587 1.167-1.371 1.167h-35.38v36.781-.194 1.264c-.097 3.698-1.861 5.158-5.978 5.06H1.004V13.623M82.534 0h18.058v71.437c0 6.114.874 10.385 5.146 12.909 5.728 3.3 16.408 3.397 22.233.097 3.98-2.233 5.534-5.63 5.534-12.521V4.756c.097-3.106 1.165-4.756 5.34-4.659H157v63.38c0 4.174 0 14.171-3.301 19.607-3.398 5.63-8.544 9.415-15.728 11.453-11.942 3.3-30 3.3-41.262-.097C83.214 90.363 77 82.404 77 69.398V6.212v.291-1.359c0-1.747.485-3.397 1.068-3.98.68-.679 1.942-1.067 3.98-1.067h.486M554.093.097c-4.764 0-7.293 2.141-8.557 6.423L530.27 71.23h-.389S515.88 7.882 514.031 0h-21.586C488.265 0 487 2.14 487 5.45V93.902h9.14c1.459 0 2.042-.681 2.042-2.238v-74.15h1.459l.972 3.504c.195.68 16.53 64.807 18.572 72.884h12.835c4.862 0 6.613-1.946 7.78-6.715l17.502-69.575h1.458V94h17.114c4.181 0 6.126-1.654 6.126-5.741V.097h-27.907M307.959.097c-4.359 0-7.845.486-9.976 2.722-2.324 2.527-2.228 6.61-2.228 10.4v24.107c0 .389-.193.68-.387.875L279 51.129h16.852v42.866h18.983c3.971.098 5.811-1.36 5.908-5.054v-1.264.195-36.646h34.964c.775 0 1.356-.389 1.356-1.166v-9.721h-36.32V16.525c.194-4.375 1.744-5.93 6.199-6.221h30.896c.871 0 1.162-.584 1.162-1.264V0h-51.041M271 51h-24v43h18.947c3.401 0 5.053-.975 5.053-4.973V51" fill="#FFF"/><path d="M269.64 32.434c.874-.676 1.36-1.159 1.36-2.606V.003H252.053h.291c-4.178-.096-5.247 1.834-5.344 4.826V50l22.64-17.566" fill="#ADADAD"/><path d="M187.425 86.31c10.31-1.459 13.778-7.679 13.778-16.815V5.06c0-3.888 2.216-5.151 4.72-5.054H225v60.938c0 14.967-3.083 22.548-11.947 28.962C208.43 93.21 200.432 97 183.09 97c-9.924 0-14.356-.583-14.934-.68-.867-.195-1.156-.68-1.156-1.361v-7.97c4.047 0 13.392.292 20.425-.68" fill="#FFF"/></g></svg>