<svg width="623" height="126" xmlns="http://www.w3.org/2000/svg"><path d="M195.732 105.627c0-5.749-.305-6.358-3.048-7.262-.61 0-1.827-.306-2.436-.306-.305 0-.61 0-.61-.306 0-.3.305-.605 1.219-.605 3.044 0 7.615.306 7.92.306.304 0 4.874-.306 7.005-.306.914 0 1.218.306 1.218.605 0 .306-.304.306-.609.306-.609 0-.913.306-1.827.306-1.826.3-2.439 1.513-2.439 4.233-.304 2.125-.304 4.24-.304 7.269v8.17c0 3.033 0 3.332-.914 3.937-4.57 2.424-10.967 3.026-14.925 3.026-5.484 0-15.534-.605-23.454-7.565-4.57-3.937-8.528-11.502-8.528-20.58 0-11.202 5.484-19.379 11.877-23.316C172.274 69.306 179.28 69 184.764 69c4.57 0 9.442.908 10.964 1.214 1.526.299 3.962.605 5.788.605.61 0 .91.3.91.605 0 .908-.609 3.026-.609 10.295 0 .908-.304 1.513-.608 1.513-.305 0-.61-.605-.61-1.207 0-.908-.304-3.033-1.522-4.845-1.827-2.727-7.615-5.753-16.752-5.753-4.262 0-9.746.606-15.23 4.845-3.961 3.332-7.006 9.69-7.006 18.166 0 9.989 5.18 17.554 7.615 19.978 5.484 5.45 12.185 7.565 18.58 7.565 2.74 0 6.396-.3 8.223-1.513.913-.605 1.218-1.207 1.218-2.424v-12.417h.007zM234.7 103c.3 0 .3-.307.3-.614l-5.7-16.703c-.3-.91-.6-.91-.9 0l-5.4 16.703c0 .307 0 .614.303.614H234.7zm-5.659-24.752c.605-1.838.902-2.149 1.203-2.149.6-.303.6 0 1.506 2.149.901 2.155 10.222 27.94 14.132 37.456 2.104 5.527 3.61 6.448 5.113 7.062.901.31 1.803.31 2.404.31.3 0 .601 0 .601.303 0 .31-.601.621-1.202.621-.902 0-5.413 0-9.62-.31-1.203 0-1.804 0-1.804-.31 0-.304.3-.304.6-.304.301-.31.602-.92.301-1.845l-5.713-15.347c0-.31-.3-.31-.601-.31h-12.93c-.301 0-.301.31-.602.613l-3.606 11.051c-.3 1.535-.604 2.766-.604 3.993 0 1.231 1.202 1.845 2.107 1.845h.6c.602 0 .602 0 .602.303 0 .31-.3.621-.902.621-1.503 0-3.91-.31-4.508-.31-.902 0-4.21.31-6.916.31-.901 0-1.202-.31-1.202-.62 0-.304.3-.304.601-.304h1.803c2.705-.614 3.91-2.765 5.113-5.834l13.524-38.994zm40.375 27.62c0 5.836 0 10.754.307 13.515.307 1.846.618 3.078 2.46 3.382.92.31 2.148.31 2.762.31.307 0 .614.304.614.304 0 .31-.307.621-1.228.621-3.073 0-7.064-.31-7.37-.31-.308 0-4.298.31-6.14.31-.617 0-.921-.31-.921-.621 0 0 0-.304.614-.304.307 0 1.228 0 1.842-.31 1.228-.304 1.535-1.536 1.535-3.382.307-2.761.307-7.679.307-13.515V79.44h-8.906c-3.994.31-5.222.615-6.45 2.15-.614.922-.614 1.536-.921 1.846-.307.615-.307.615-.614.615s-.307 0-.307-.615c0-.614 1.228-5.839 1.228-6.453.307-.31.614-.921.614-.921.614-.304 1.228.614 2.763.614 1.842.31 4.297.31 4.915.31h23.033c2.15 0 3.377-.31 4.298-.31.921-.304 1.538-.304 1.842-.304.304 0 .307.304.307.614 0 1.847-.307 6.143-.307 7.068 0 .614 0 .614-.307.614s-.307 0-.617-.914v-.621c-.307-1.84-1.535-3.376-7.371-3.686h-7.985v26.421h.003zM297.16 93.81V80.752c-.303-2.083-.61-2.972-2.733-3.266-.304-.3-1.517-.3-2.124-.3 0 0-.303 0-.303-.293 0-.3.303-.6.91-.6 2.73 0 6.677.3 6.98.3h13.96c.91 0 2.123-.3 2.43-.3.3 0 .607-.293.91-.293.3 0 .3.293.3.593s-.3.89-.607 2.673c0 .593 0 3.26-.306 3.86 0 .292 0 .882-.3.882-.307 0-.614-.293-.614-.883 0-.3 0-1.49-.3-2.083-.306-1.183-.91-1.776-4.25-2.076-1.213-.3-7.586-.3-8.496-.3 0 0-.304.3-.304.6v16.616c0 .594 0 .594.304.594h9.71c1.52-.3 2.43-.3 3.036-.89.3-.593.607-.89.91-.89 0 0 .3.3.3.6 0 .293-.3 1.483-.606 3.26 0 1.189-.307 3.565-.307 3.858 0 .6 0 1.19-.3 1.19-.307 0-.607 0-.607-.593v-1.783c-.306-.89-.91-2.076-3.34-2.076-1.52-.3-7.586-.3-8.496-.3-.304 0-.607 0-.607.3v15.726c.303 4.156 1.213 4.75 6.98 4.75 1.82 0 4.247 0 6.07-.594 1.517-.6 2.123-1.783 2.727-4.456 0-.593 0-.883.306-.883.607 0 .607.593.607.883 0 .6-.607 4.75-.91 5.939-.3 1.483-.903 1.483-3.333 1.483-9.107 0-13.354-.3-14.874-.3h-2.426c-1.214.3-2.73.3-3.644.3-.606 0-.91-.3-.91-.6 0 0 0-.293.607-.293.303 0 1.213 0 1.82-.3 1.213-.293 1.517-1.483 1.517-3.266.303-2.666.303-7.415.303-13.05V93.808h.01zm32.735 29.347c-.597-.31-.895-.614-.895-2.462 0-3.073.302-5.534.302-6.456.301-.615.301-.922.597-.922.301 0 .301 0 .301.614 0 .622 0 1.544.296 2.158.895 4.61 4.778 6.457 8.96 6.457 5.67 0 8.36-4.306 8.36-8.304 0-4.299-1.795-6.76-6.868-11.066l-2.69-2.462c-6.264-5.535-7.762-9.219-7.762-13.528 0-6.76 4.778-11.066 12.54-11.066 2.09-.304 3.884 0 5.376.615 1.197 0 1.794.31 2.09.31.603 0 .603 0 .603.311v6.457c0 1.226-.302 1.536-.604 1.536-.295 0-.295-.31-.597-.621 0-.915-.295-2.462-.597-3.377-.301-.621-2.089-3.08-7.46-3.08-4.182 0-7.468 2.462-7.468 7.078 0 3.688 1.794 5.839 7.467 10.448l1.493 1.537c7.162 5.842 8.661 9.53 8.661 14.45 0 2.769-.895 7.382-5.08 10.455-2.391 1.847-5.674 2.762-8.954 2.762a19.3 19.3 0 01-8.07-1.844zm57.403-29.065c-.297.92-.6 2.456-1.197 3.99-1.5 5.829-2.999 11.351-4.498 17.184-1.5 4.6-3 7.359-3.902 8.279-.6.613-2.703 2.456-5.702 2.456-2.1 0-2.999-1.533-2.999-2.456 0-1.223.6-1.533.9-1.843.6-.614.9-.304 1.5.31.6 1.223 1.802 2.146 2.695 2.146.9 0 2.106-.92 3.302-4.29 2.403-8.588 3.903-17.484 6.302-25.77h-3.902c-.6-.303-.303-1.223.303-1.836h4.195c1.203-4.606 2.403-8.589 5.402-11.965C392.1 77.23 395.1 76 398.097 76c2.107 0 3.903 1.23 3.903 3.376 0 1.533-1.196 3.066-2.1 3.066-.303 0-.6-.613-.6-.92-.302-3.066-1.802-3.989-2.998-3.989-1.5 0-2.703 1.23-3.902 2.763-2.403 3.376-3.303 7.666-4.5 11.965h6c.296.613.296 1.223-.6 1.837h-6.002v-.007zm19.996 1.311c-3.11 3.901-4.98 9.904-5.294 12.297 0 1.802.629 3.301 2.184 3.301 1.24 0 2.492-.6 4.047-2.695 2.177-2.702 4.665-9.298 4.665-12.004.308-1.499 0-3.301-1.87-3.301-.936 0-2.176.303-3.732 2.402zM417 98.3c-.314 2.702-1.858 7.503-5.587 11.102-3.103 3.301-5.898 3.598-7.14 3.598-3.415 0-5.273-2.402-5.273-6.597.307-2.998 2.172-8.103 5.587-11.101 2.79-2.696 4.96-3.302 7.14-3.302 3.722 0 5.273 2.705 5.273 6.3zm11.438 9.602c-.598 1.196-.3 1.802.292 1.802.598 0 2.664-1.506 5.033-4.202 4.434-4.498 7.095-10.203 8.573-13.202 1.186-.303 2.368.303 2.368.9-.292 1.196-3.547 9.597-5.617 15.301-.299.9-.299 1.203.293 1.203.887 0 3.554-2.106 4.733-3.605.299-.297.887 0 .887.6-1.186 2.402-5.913 6.301-8.58 6.301-.591 0-1.478-.9-1.18-1.796l3.25-9.004v-.297C434.941 106.7 429.03 113 426.364 113c-2.07 0-2.368-2.1-1.478-4.195l4.441-12.3c.292-.9.292-1.203 0-1.203-.887 0-3.255 2.1-4.441 3.303-.591 0-.887-.304-.887-.6 1.186-2.106 6.212-6.005 8.288-6.005.59 0 1.77.606 1.478 1.5l-5.328 14.402zm31.443-5.104c3.626-5.4 8.465-10.798 12.393-10.798 1.816 0 2.723.9 2.723 2.702 0 .6-.306 2.402-.907 3.302-.906 2.695-4.234 10.798-4.532 11.095-.306.606-.306.9 0 .9.906 0 3.32-1.5 4.831-3.303.611 0 .611.304.611.607-1.816 3.295-5.745 5.697-8.464 5.697-.306 0-1.212-.6-1.212-1.196 0-.597.305-.9 1.212-3.302 1.205-2.402 3.022-7.496 3.931-9.899.605-.9 1.206-2.702 1.206-3.598 0-.606 0-1.203-.907-1.203-1.205 0-3.931 2.403-6.648 5.998-2.722 3.301-4.838 7.203-7.56 12.6-.3.303-.605.6-.9.6-.611 0-2.122-.297-1.518-1.196l5.745-15.903c.305-.6.305-1.196-.306-1.196-.9 0-2.716 1.196-4.227 2.696-.604 0-.907-.297-.907-.893 2.116-2.402 5.137-4.505 7.555-4.505 1.212 0 1.816.9 1.212 2.106l-3.33 8.69zm33.989-7.657c-2.14 1.825-5.807 6.707-7.335 9.755-1.535 3.357-1.535 4.272-1.535 4.881 0 .61.618 1.223.917 1.223.917 0 3.365-.915 6.73-4.58 3.977-3.966 5.505-7.015 6.113-9.755.611-2.134 0-3.665-1.219-3.665-1.226 0-2.445.918-3.671 2.14zm9.215-11.596c1.24-2.973 1.24-3.869.622-4.166l-1.24-.892s0-.294.307-.595c.933-.3 3.738-.892 5.912-.892l.314.3c-.933 2.674-1.87 4.461-3.424 8.63-4.979 13.686-7.47 21.42-7.774 22.907-.314.595-.314 1.186.308 1.186.932 0 4.045-2.382 5.6-4.46.315 0 .622.3.622.594-1.24 2.68-5.908 6.843-8.396 6.843-1.247 0-1.869-.892-1.869-1.487 0-.595.314-1.487.622-2.973l1.87-4.761v-.294c-3.732 4.754-7.47 9.515-12.45 9.515-1.862 0-3.109-1.487-3.109-3.568 0-3.569 2.802-9.522 6.848-12.79 3.424-3.274 6.533-4.467 9.025-4.467.932 0 2.176.3 2.795 1.487l3.417-10.117zm18.063 12.706c-2.926 2.881-6.148 9.94-6.148 13.787 0 .641.592.962.878.962.585 0 2.048-.641 4.685-3.53 3.511-3.846 5.562-8.338 6.437-11.543-.29-.962-1.167-1.927-2.338-1.927-1.173.004-2.051.648-3.514 2.25zm7.484-5.134c.59-.298 2.07 0 2.368.592-.887 2.069-5.032 12.72-6.51 17.445-.293.598-.293.887.298.887.887 0 2.07-.591 5.026-3.255.3 0 .598.3.598.598-2.076 2.956-5.62 5.616-8.288 5.616-.88 0-1.179-.887-1.179-1.478 0-.292 0-.591.299-1.77l1.77-4.44h-.292c-3.255 4.141-8.28 7.688-10.646 7.688-1.186 0-2.076-1.478-2.076-2.657 0-1.186.887-5.324 4.142-9.757 2.369-3.255 4.435-5.032 6.504-6.21 1.777-1.186 3.255-1.479 4.441-1.479.592 0 .88.293 1.18.293 0 0 .59.59.886 1.185l1.479-3.258zm18.469 3.957l-4.337 13.143c0 .896 0 1.198.579 1.198.578 0 3.76-2.691 5.206-4.48.578 0 .867.295.867.896-2.897 4.179-7.233 7.169-9.257 7.169-.578 0-1.159-.597-1.159-1.494 0-.597 0-1.191.585-2.685l4.336-13.747h-3.47c-.292-.604 0-1.198.287-1.5l4.05-.598 2.598-4.782c.293-.296 1.446-.296 1.738.302l-1.445 4.782h5.206c.292.598 0 1.494-.578 1.796h-5.206zM571 81.122c0 1.764-.858 3.878-2.57 3.878-1.147 0-1.43-1.408-1.43-2.47 0-1.063.572-3.53 2.29-3.53 1.138.004 1.71 1.063 1.71 2.122zm-6.528 15.08c.312-.6.312-1.196 0-1.196-.305 0-1.847.6-4.316 2.696-.312 0-.617-.304-.617-.9 2.774-3 6.788-4.802 8.33-4.802.312 0 .618.303.926.303.312.6.312.9-.312 2.403l-6.17 14.102c0 .6-.312 1.196.312 1.196.925 0 3.39-1.802 5.245-3.902.311.303.617.6.617.9-.617 1.5-5.862 5.998-9.256 5.998-.312 0-.617-.297-.926-.6-.305-.303-.305-.6-.305-1.196l6.472-15.002zm20.555-.8c-2.822 3.901-5.027 9.904-5.027 12.297 0 1.802.635 3.301 2.205 3.301.942 0 2.198-.6 4.085-2.695 2.198-2.702 4.393-9.298 4.71-12.004 0-1.499-.317-3.301-2.198-3.301-.945 0-2.205.303-3.775 2.402zm8.94 2.898c0 2.702-1.58 7.503-5.353 11.102-3.145 3.301-5.976 3.598-7.555 3.598-3.145 0-5.346-2.402-5.028-6.597.31-2.998 2.2-8.103 5.664-11.101 2.52-2.696 5.028-3.302 6.919-3.302 3.774 0 5.664 2.705 5.353 6.3zm14.062 4.498c3.597-5.4 8.382-10.798 11.979-10.798 2.094 0 2.992.9 2.992 2.702 0 .6-.598 2.402-.898 3.302-.897 2.695-4.488 10.798-4.488 11.095-.302.606-.302.9 0 .9.898 0 3.295-1.5 4.488-3.303.898 0 .898.304.898.607-1.799 3.295-5.688 5.697-8.381 5.697-.605 0-1.2-.6-1.2-1.196 0-.597 0-.9 1.2-3.302.89-2.402 2.69-7.496 3.893-9.899.296-.9 1.193-2.702 1.193-3.598 0-.606-.302-1.203-.897-1.203-1.194 0-4.186 2.403-6.886 5.998-2.397 3.301-4.488 7.203-7.48 12.6-.303.303-.303.6-.898.6s-1.799-.297-1.496-1.196l5.984-15.903c0-.6 0-1.196-.302-1.196-1.194 0-2.69 1.196-4.488 2.696-.296 0-.599-.297-.599-.893 1.799-2.402 4.791-4.505 7.48-4.505.898 0 1.503.9 1.2 2.106l-3.294 8.69zM12 30.552v15.774c.311 3.335.311 4.548 2.494 5.461 1.868.91 4.984 1.213 6.226 1.213C24.77 53 31 50.874 31 42.684c0-4.245-1.56-10.62-6.852-14.258-2.494-1.82-4.358-2.123-6.23-2.123C16.984 26 13.245 26 12.311 26c-.311 0-.311.303-.311.606v3.946zm0-7.735c0 .592 0 .887.289.887.577 0 1.732.296 4.045.296 3.754 0 4.91-.296 6.356-1.774 1.444-1.774 2.31-4.139 2.31-7.098C25 9.212 22.401 3 16.046 3c-.867 0-2.31 0-3.465.296-.578.295-.578.295-.578.887v18.634H12zm-6-1.116C6 10.602 6 8.8 5.7 6.401c0-2.402-.599-3.602-2.998-4.202H.3c-.3 0-.3-.3-.3-.6S.3 1 .9 1c3.298 0 7.8.3 8.1.3 1.498 0 4.197-.3 7.499-.3 11.398 0 14.1 7.2 14.1 10.799 0 5.697-3.298 9.299-6.6 12.9C29.099 26.203 36 31.3 36 39.7 36 47.2 30.303 55 18.302 55c-1.8 0-9-.3-9.3-.3h-6.9c-.9 0-1.2 0-1.2-.3s.3-.603.6-.603c.6 0 1.5 0 2.1-.3 1.499-.3 1.799-1.799 2.099-3.901.3-2.999.3-8.4.3-15.3V21.7zm51.414 15.86c0 5.711 0 10.526.294 13.231 0 1.503.294 3.006 2.058 3.306.882 0 2.352.3 2.646.3.294 0 .588 0 .588.301s-.294.301-.882.301H48.882c-.588 0-.882 0-.882-.3 0-.301.294-.301.588-.301.588 0 1.176-.3 1.764-.3 1.176-.301 1.47-1.804 1.764-3.307.294-2.705.294-7.517.294-13.23V26.739c0-9.621 0-11.124-.294-13.23 0-2.105-.591-3.006-1.764-3.307-.882-.3-1.473-.3-2.058-.3-.294 0-.294-.3-.294-.3C48 9 48.294 9 48.882 9c1.764 0 5.589.3 5.883.3.294 0 4.12-.3 5.883-.3.588 0 .882 0 .882.601 0 0-.294.3-.588.3H59.47c-1.47.301-2.058 1.503-2.058 3.607v24.054h.003zm25.969-.188c0 8.961.305 12.846 1.525 13.742.916 1.194 2.444 1.493 7.326 1.493 3.054 0 5.8 0 7.325-1.792.916-.895 1.526-2.392 1.526-3.583 0-.597.305-.896.61-.896s.305.3.305.896c0 .597-.305 4.482-.915 6.274-.305 1.194-.61 1.493-3.661 1.493-8.851 0-12.82-.299-16.485-.299h-6.105c-.61 0-.915 0-.915-.298 0-.299.305-.299.61-.299s1.22-.298 1.83-.298c1.22-.299 1.526-1.792 1.526-3.285.61-2.687.61-7.468.61-13.145V26.624c0-9.559 0-11.052-.305-13.145 0-2.09-.61-2.986-2.44-3.583h-2.136c-.306 0-.614-.299-.614-.299C73 9 73.308 9 73.915 9c2.746 0 6.716.299 7.02.299.306 0 4.885-.299 6.716-.299.613 0 .915 0 .915.597 0 0-.305.299-.61.299h-1.83c-1.831.298-2.445 1.493-2.445 3.583-.305 2.093-.305 3.586-.305 13.145v10.75h.007zm34 0c0 8.961.305 12.846 1.22 13.742.916 1.194 2.441 1.493 7.326 1.493 3.356 0 6.102 0 7.325-1.792.915-.895 1.526-2.392 1.83-3.583 0-.597 0-.896.306-.896.305 0 .61.3.61.896 0 .597-.61 4.482-.915 6.274-.61 1.194-.61 1.493-3.97 1.493-8.85 0-12.82-.299-16.481-.299h-5.8c-.915 0-1.22 0-1.22-.298 0-.299.305-.299.61-.299.61 0 1.22-.298 1.83-.298 1.22-.299 1.526-1.792 1.83-3.285.306-2.687.306-7.468.306-13.145V26.624c0-9.559 0-11.052-.305-13.145 0-2.09-.305-2.986-2.444-3.583h-2.136c-.305 0-.305-.299-.305-.299 0-.597.305-.597.915-.597 2.746 0 6.41.299 6.716.299.305 0 4.884-.299 6.711-.299.614 0 .916 0 .916.597l-.305.299h-2.14c-1.83.298-2.135 1.493-2.44 3.583v23.894h.01zM159 28.903V27.74c0-1.16-.642-1.741-1.606-1.741-.963 0-2.573.87-4.179 2.902-1.927 2.032-2.573 3.776-3.215 6.098a126.415 126.415 0 009-6.098zM147 39.48c0-2.405.909-6.918 4.85-11.127 3.331-3.307 6.666-3.912 7.575-3.912 2.423 0 2.726 1.503 3.331 2.105 2.12-1.804 5.755-5.415 7.273-7.52.609-.902 1.817-3.006 1.817-4.212 0-.902-.303-1.203-.606-1.504-.605-.6-.605-.6-.605-1.202 0-1.507.908-2.108 2.12-2.108 1.211 0 2.12.601 2.12 2.706 0 2.706-1.515 6.016-6.364 10.53-4.24 4.208-12.728 10.826-18.18 14.437v.602c0 6.317 5.153 8.725 9.09 8.725 4.24 0 9.393-3.01 12.422-8.421 2.12-3.612 2.729-6.318 2.729-10.53-.61-.3-1.518-.902-2.73-.902-1.514 0-3.634 1.503-3.634 3.307 0 .602.303 1.203.303 1.804.303.601.61 1.203.61 1.503 0 .301-.304 1.504-1.818 1.504-.909 0-2.12-.902-2.12-2.105 0-1.506.908-3.611 3.331-6.016 2.124-1.503 4.547-2.105 5.153-2.105 2.726 0 4.24 1.804 6.97 4.21 1.21.901 1.21 1.202 2.12 1.202.605 0 .908-.601.908-1.507v-1.202c-.303-.602-.303-.602-.303-.899 0-.604.606-1.202 1.515-1.202 1.517 0 2.123 1.503 2.123 2.705 0 1.203-.606 2.105-.909 2.706-.605.3-.908.3-1.514.3-.909.302-2.726.903-3.94 1.204-.304.6-.91.3-1.212 0-.303-.602-1.818-2.409-3.332-3.912 0 .902-.303 3.61-.303 4.513 0 1.503-1.211 6.618-5.149 11.13C167.003 48.2 161.851 50 158.217 50 150.029 50.007 147 44.896 147 39.48zm111.163 6.445c.305 2.42.61 6.347 3.655 7.555 1.489.412 3.028.615 4.573.604.609 0 .609 0 .609.302s-.61.607-1.523.607c-1.523 0-9.142-.302-11.883-.302-1.526-.302-1.828-.604-1.828-.906 0-.302 0-.302.305-.302.61-.302.61-1.513.305-2.722l-3.351-36.867h-.305l-17.369 37.17c-1.526 3.02-1.526 3.93-2.136 3.93-.609 0-.91-.907-2.436-3.323-1.828-3.625-7.923-16.016-8.228-16.62a1674.85 1674.85 0 01-9.446-20.55h-.305l-2.741 33.243v3.625c0 1.208.612 2.117 1.827 2.42 1.219 0 2.133.302 2.742.302 0 0 .304 0 .304.302 0 .607-.304.607-1.218.607-2.44 0-6.095-.302-6.705-.302-.609 0-3.963.302-5.79.302-.61 0-1.219 0-1.219-.607 0-.302.305-.302.61-.302.608 0 1.218 0 2.135-.303 2.44-.302 2.741-3.322 3.046-6.044l4.877-46.536c.305-.906.61-1.208.91-1.208.305 0 .613.302 1.219.906l21.637 45.022L251.462.906c.304-.607.304-.906.914-.906.609 0 .609.604.913 1.812l4.874 44.113zm19.992-19.464v-13.23c0-2.156-.607-3.383-2.73-3.693-.302 0-1.515-.308-1.819-.308-.303 0-.606 0-.606-.307 0-.308.303-.615.91-.615 2.729 0 6.674.307 6.977.307h13.955c.91 0 2.122-.307 2.429-.307.303 0 .606-.308.91-.308.303 0 .303.308.303.615 0 .308-.303 1.23-.61 2.768 0 .615 0 3.382-.303 4.308 0 .308 0 .615-.303.615-.304 0-.607-.307-.607-.922 0-.308 0-1.541-.303-2.153-.303-.922-.91-1.845-4.245-2.156-1.213 0-7.584-.307-8.494-.307 0 0-.303.307-.303.615v17.234c0 .615 0 .923.303.923.91 0 8.494 0 9.71-.308 1.516 0 2.426-.307 3.032-.922.304-.308.607-.619.91-.619 0 0 .303 0 .303.308 0 .307-.303 1.537-.606 3.69 0 1.23-.303 3.383-.303 4.001 0 .308 0 .923-.304.923-.303 0-.606 0-.606-.308V34.15c-.303-.922-.91-1.845-3.336-2.152-1.516-.308-7.583-.308-8.493-.308-.303 0-.61 0-.61.308v16.308c.303 4.306 1.216 4.924 7.284 4.924 1.516 0 4.245 0 5.761-.615s2.126-1.845 2.73-4.305c0-.923.303-.923.606-.923s.303.308.303.923c0 .307-.61 4.616-.91 5.846C298.787 56 298.18 56 295.755 56c-9.1 0-13.045-.615-14.865-.615-.303 0-1.212.307-2.425.307h-3.642c-.607 0-.91 0-.91-.618 0 0 0-.307.606-.307.304 0 1.213 0 1.82-.308 1.213-.307 1.516-1.538 1.516-3.383.303-2.46.303-7.384.303-13.537V26.46h-.003zm40.529 9.735c0 8.902 0 12.761 1.223 13.948.915.89 2.444 1.483 7.328 1.483 3.352 0 6.101-.297 7.321-1.78.915-1.186 1.525-2.67 1.834-3.86 0-.296 0-.592.302-.592.308 0 .308.296.308.89 0 .596-.308 4.155-.61 5.935-.61 1.483-.915 1.78-3.97 1.78-8.852 0-12.818-.593-16.479-.593-.308 0-1.223.296-2.443.296h-3.356c-.61 0-1.22 0-1.22-.596 0 0 .305-.297.61-.297.61 0 1.22 0 1.83-.296 1.22-.297 1.526-1.484 1.83-3.263.306-2.373.306-7.123.306-13.058V25.51c0-9.199 0-10.982-.305-12.762 0-2.08-.61-3.263-2.444-3.562-.61 0-1.525-.297-2.136-.297-.305 0-.613 0-.613-.297 0-.296.305-.593 1.22-.593 2.749 0 6.41.297 6.715.297.301 0 4.884-.297 6.71-.297.618 0 .916.297.916.593 0 .297-.302.297-.302.297-.617 0-1.532.297-2.142.297-1.827.296-2.444 1.186-2.444 3.562v23.447h.01zm35.725.18c0 5.974 0 10.754.297 13.142.29 1.792.588 2.99 2.348 3.285.882.298 2.064.298 2.649.298.297 0 .297.299.297.299 0 .298-.297.6-.882.6-3.236 0-6.763-.299-7.06-.299-.298 0-4.112.299-5.88.299-.587 0-.88 0-.88-.6 0 0 0-.299.296-.299.588 0 1.173 0 1.76-.298 1.18-.299 1.47-1.493 1.767-3.285.298-2.388.298-7.168.298-13.142V12.78c-.298-2.093-.882-3.284-2.064-3.586-.588 0-1.47-.298-1.76-.298-.298 0-.595 0-.595-.299 0-.298.297-.597.882-.597 2.064 0 5.878.299 6.175.299.298 0 3.825-.299 5.588-.299.588 0 .882.299.882.597 0 .299-.297.299-.297.299-.588 0-.882.298-1.47.298-1.766.299-2.057 1.194-2.354 3.586v23.596h.003zm22.87 10.759c.31 5.198.92 6.726 2.457 7.337 1.223.306 2.456.306 3.066.306.31 0 .614.305.614.305 0 .615-.304.615-1.224.615-3.376 0-5.83-.306-6.442-.306-.614 0-3.067.306-5.83.306-.613 0-.92 0-.92-.615 0 0 0-.305.31-.305.613 0 1.533 0 2.457-.306 1.533-.305 1.843-2.139 1.843-7.948V11.059c0-2.448.303-3.059.913-3.059.31 0 1.54 1.222 2.153 1.833.92 1.223 10.123 11.005 19.322 21.401a511.35 511.35 0 0114.73 16.203l-.62-31.488c0-4.282-.304-5.504-2.45-6.116-.92 0-2.457-.305-2.764-.305-.613 0-.613 0-.613-.306 0-.305.613-.61 1.223-.61 2.763 0 5.83.305 6.443.305h5.83c.613 0 1.223 0 1.223.305 0 .306-.303.611-.613.611h-1.534c-2.146.612-2.456 1.834-2.456 5.504l-.613 35.77c0 3.973-.31 4.893-.614 4.893-.62 0-1.23-.611-4.606-3.976-.613-.611-9.51-9.476-15.946-16.814-7.063-7.643-9.509-11.004-14.419-17.12l-.92 29.045zm57.724-14.73v13.324c0 1.513.303 4.238.6 4.846.9 1.211 3.301 2.425 10.201 2.425 5.7 0 10.797-2.122 14.402-5.754C463.5 44.216 465 38.162 465 32.71c0-7.873-3.295-13.022-5.697-15.746-5.7-6.057-12.6-6.965-19.802-6.965-1.196 0-3.295.303-3.901.605-.297.303-.6.609-.6 1.211v20.589h.003zm-4.854-6.249v-13.23c-.306-2.157-.605-3.383-2.726-3.694-.605 0-1.512-.308-2.117-.308-.306 0-.306 0-.306-.307 0-.308.306-.615.908-.615 2.725 0 6.355.307 6.661.307.901 0 4.538-.307 8.168-.307 6.05 0 17.249-.308 24.515 7.387 3.025 3.075 5.748 8.307 5.748 15.69 0 8-3.025 13.847-6.356 17.537C461.925 51.69 456.477 56 446.185 56c-5.143 0-13.01-.923-13.616-.923-.306 0-3.936.308-5.75.308-.606 0-.908 0-.908-.618 0 0 0-.308.306-.308.605 0 1.206 0 1.811-.308 1.214-.307 1.52-1.537 1.819-3.382.305-2.46.305-7.384.305-13.538V26.156h-.003zM497.703 34c.297 0 .297-.309.297-.618l-5.703-16.687c-.297-.927-.6-.927-.894 0L486 33.382c0 .31 0 .618.297.618h11.406zm-5.657-23.536C492.941 8.31 493.246 8 493.55 8c.297 0 .601.308 1.2 2.156.9 2.46 10.529 28.302 14.132 37.534 2.104 5.539 3.911 6.769 5.11 7.077.902.307 1.807.307 2.408.307.304 0 .601 0 .601.308 0 .618-.601.618-1.199.618h-9.32c-1.2-.308-1.808-.308-1.808-.618 0-.308 0-.308.304-.308.304-.307.601-.615.304-1.845l-5.413-15.383c-.304-.307-.304-.307-.608-.307h-12.928a.652.652 0 00-.6.615l-3.614 11.074c-.601 1.537-.895 3.075-.895 4 0 1.231 1.199 1.846 2.407 1.846h.298c.6 0 .901.308.901.308 0 .618-.6.618-.901.618-1.503 0-4.212-.308-4.813-.308-.6 0-3.91.308-6.916.308-.601 0-1.199 0-1.199-.618 0 0 .297-.308.601-.308h1.807c2.702-.615 3.91-2.768 5.11-5.843l13.528-38.767z" fill="#FFF" fill-rule="nonzero"/></svg>