<svg width="571" height="121" xmlns="http://www.w3.org/2000/svg"><g fill="#FFF" fill-rule="nonzero"><path d="M60.346 0l3.415 2.245L31.83 51.657 0 2.245 3.415 0 31.83 44.099 60.346 0zm20.491 51.177h4.098V.806h-4.098v50.371zM114.22.806h-4.08v50.371h25.613v-4.182h-21.345V.805h-.188zm93.132 4.181h25.99V.806h-25.99v4.181zM294.626 0L259.81 23.995V.805h-4.098v50.372h4.098V28.005L294.626 52 297 48.47 264.214 25.93 297 3.394 294.626 0zm-87.274 28.16h25.99v-4.182h-25.99v4.182zm0 23.017h25.99v-4.182h-25.99v4.182zM184.419 44.1a20.903 20.903 0 01-21.769.937c-6.861-3.793-11.044-11.108-10.846-18.967-.095-11.774 9.308-21.41 21.038-21.561a19.893 19.893 0 0111.577 3.53l.956.652 2.203-3.548-.94-.634a24.559 24.559 0 00-13.66-4.182c-14.013.16-25.27 11.642-25.204 25.708-.057 14.062 11.195 25.54 25.204 25.709a24.695 24.695 0 0013.66-4.182l.94-.651-2.203-3.548-.956.737zM331.956 68l26.541 51.056-3.63 1.944-22.911-43.949L309.011 121l-3.63-1.944L331.955 68zm95.583 52.191h4.11V69.618h-4.11v50.573zm-64.778-46.375h21.49v46.461h4.11v-46.46h21.49v-4.2h-47.244v4.2h.154zm-136.183 39.578L186.92 69.618h-3.425v50.573h4.11V76.604l39.487 43.794h3.424v-50.78h-3.938v43.776zM0 120.191h4.11v-23.11h21.815v-4.199H4.11V73.816h28.288v-4.198H0v50.573zm94.796-25.21c0 14.028-11.316 25.4-25.275 25.4-13.958 0-25.274-11.372-25.274-25.4 0-14.026 11.316-25.398 25.274-25.398 13.959 0 25.275 11.372 25.275 25.399zm-4.093 0c.22-7.745-3.768-14.999-10.409-18.937a21.092 21.092 0 00-21.528 0c-6.642 3.938-10.628 11.192-10.41 18.938-.218 7.746 3.768 15 10.41 18.938a21.092 21.092 0 0021.528 0c6.641-3.938 10.628-11.192 10.41-18.938zm412.351 0c0 14.028-11.316 25.4-25.274 25.4-13.959 0-25.275-11.372-25.275-25.4 0-9.073 4.818-17.458 12.638-21.995a25.167 25.167 0 0125.274 0c7.82 4.537 12.637 12.922 12.637 21.996zm-46.233 0c-.22 7.747 3.767 15 10.408 18.939a21.092 21.092 0 0021.529 0c6.641-3.938 10.628-11.192 10.409-18.938.22-7.746-3.768-15-10.409-18.938a21.092 21.092 0 00-21.529 0c-6.64 3.938-10.628 11.192-10.408 18.938zm-298.497 0c.219 7.747-3.768 15-10.41 18.939a21.092 21.092 0 01-21.528 0c-6.64-3.938-10.628-11.192-10.409-18.938V69.618h-4.11v25.364c0 14.027 11.316 25.399 25.275 25.399 13.959 0 25.274-11.372 25.274-25.4V69.619h-4.092v25.364zm135.703 0c.105 13.881-10.983 25.231-24.794 25.382H252.64V69.618h16.593c13.805.15 24.89 11.49 24.794 25.364zm-37.123 21.012h12.329c11.547 0 20.907-9.407 20.907-21.011s-9.36-21.01-20.907-21.01h-12.33v42.02zM566.89 69.618v43.793l-39.504-43.793h-3.424v50.573h4.11V76.604l39.503 43.76H571V69.617h-4.11z"/></g></svg>