<svg id="Layer_1" data-name="Layer 1" xmlns="http://www.w3.org/2000/svg" xmlns:xlink="http://www.w3.org/1999/xlink" width="40" height="40" viewBox="0 0 40 40"><defs><style>.cls-1{fill:#fff;}.cls-2{mask:url(#mask);}</style><mask id="mask" x="0" y="0" width="40" height="40" maskUnits="userSpaceOnUse"><g id="mask-2"><polygon id="path-1" class="cls-1" points="0 0 40 0 40 40 0 40 0 0"/></g></mask></defs><title>linkedin--black</title><g id="Page-1"><g id="Contact"><g id="Social"><g id="Group-3"><g class="cls-2"><path id="Fill-1" d="M20,0A20,20,0,1,0,40,20,20,20,0,0,0,20,0ZM14.5,29.08H10.67V16.75H14.5ZM12.42,15.17a2.18,2.18,0,1,1,0-4.34A2.15,2.15,0,0,1,14.75,13,2.1,2.1,0,0,1,12.42,15.17Zm17.5,13.91H25.5V22.67c0-1.67-.67-2.84-2.17-2.84a2.2,2.2,0,0,0-2.08,1.5,3.9,3.9,0,0,0-.08,1V29H16.83s.09-11.33,0-12.33h4.34v1.91A4,4,0,0,1,25,16.5c2.75,0,4.92,1.75,4.92,5.58Z"/></g></g></g></g></g></svg>