<svg width="40" height="40" xmlns="http://www.w3.org/2000/svg" xmlns:xlink="http://www.w3.org/1999/xlink"><defs><path id="a" d="M0 0h40v40H0z"/></defs><g fill="none" fill-rule="evenodd"><mask id="b" fill="#fff"><use xlink:href="#a"/></mask><path d="M30.05 16.21c.01.2.01.41.01.62 0 6.37-4.85 13.72-13.72 13.72-2.72 0-5.26-.8-7.37-2.18a9.693 9.693 0 007.14-1.99 4.815 4.815 0 01-4.5-3.35 4.807 4.807 0 002.18-.08 4.827 4.827 0 01-3.87-4.73v-.06c.65.36 1.39.58 2.18.6a4.8 4.8 0 01-2.15-4.01c0-.88.24-1.71.65-2.42a13.68 13.68 0 009.94 5.04c-.09-.35-.13-.72-.13-1.1 0-2.66 2.16-4.82 4.82-4.82 1.39 0 2.64.58 3.52 1.52 1.1-.22 2.13-.62 3.06-1.17a4.82 4.82 0 01-2.12 2.67c.98-.12 1.91-.38 2.77-.76-.65.97-1.47 1.82-2.41 2.5M20 0C8.954 0 0 8.954 0 20s8.954 20 20 20 20-8.954 20-20S31.046 0 20 0" fill="#FFD6C2" mask="url(#b)"/></g></svg>