<?xml version="1.0" encoding="UTF-8"?>
<svg width="1015px" height="110px" viewBox="0 0 1015 110" version="1.1" xmlns="http://www.w3.org/2000/svg" xmlns:xlink="http://www.w3.org/1999/xlink">
    <title>cset</title>
    <defs>
        <polygon id="path-1" points="6.01182208e-12 109.083516 1014.35724 109.083516 1014.35724 -1.21139765e-11 6.01182208e-12 -1.21139765e-11"></polygon>
        <polygon id="path-3" points="6.01182208e-12 109.083516 1014.35724 109.083516 1014.35724 -1.21139765e-11 6.01182208e-12 -1.21139765e-11"></polygon>
        <polygon id="path-5" points="6.01182208e-12 109.083516 1014.35724 109.083516 1014.35724 -1.21139765e-11 6.01182208e-12 -1.21139765e-11"></polygon>
        <polygon id="path-7" points="6.01182208e-12 109.083516 1014.35724 109.083516 1014.35724 -1.21139765e-11 6.01182208e-12 -1.21139765e-11"></polygon>
        <polygon id="path-9" points="6.01182208e-12 109.083516 1014.35724 109.083516 1014.35724 -1.21139765e-11 6.01182208e-12 -1.21139765e-11"></polygon>
        <polygon id="path-11" points="6.01182208e-12 109.083516 1014.35724 109.083516 1014.35724 -1.21139765e-11 6.01182208e-12 -1.21139765e-11"></polygon>
        <polygon id="path-13" points="6.01182208e-12 109.083516 1014.35724 109.083516 1014.35724 -1.21139765e-11 6.01182208e-12 -1.21139765e-11"></polygon>
        <polygon id="path-15" points="6.01182208e-12 109.083516 1014.35724 109.083516 1014.35724 -1.21139765e-11 6.01182208e-12 -1.21139765e-11"></polygon>
        <polygon id="path-17" points="6.01182208e-12 109.083516 1014.35724 109.083516 1014.35724 -1.21139765e-11 6.01182208e-12 -1.21139765e-11"></polygon>
        <polygon id="path-19" points="6.01182208e-12 109.083516 1014.35724 109.083516 1014.35724 -1.21139765e-11 6.01182208e-12 -1.21139765e-11"></polygon>
        <polygon id="path-21" points="6.01182208e-12 109.083516 1014.35724 109.083516 1014.35724 -1.21139765e-11 6.01182208e-12 -1.21139765e-11"></polygon>
        <polygon id="path-23" points="6.01182208e-12 109.083516 1014.35724 109.083516 1014.35724 -1.21139765e-11 6.01182208e-12 -1.21139765e-11"></polygon>
        <polygon id="path-25" points="6.01182208e-12 109.083516 1014.35724 109.083516 1014.35724 -1.21139765e-11 6.01182208e-12 -1.21139765e-11"></polygon>
        <polygon id="path-27" points="6.01182208e-12 109.083516 1014.35724 109.083516 1014.35724 -1.21139765e-11 6.01182208e-12 -1.21139765e-11"></polygon>
        <polygon id="path-29" points="6.01182208e-12 109.083516 1014.35724 109.083516 1014.35724 -1.21139765e-11 6.01182208e-12 -1.21139765e-11"></polygon>
        <polygon id="path-31" points="6.01182208e-12 109.083516 1014.35724 109.083516 1014.35724 -1.21139765e-11 6.01182208e-12 -1.21139765e-11"></polygon>
        <polygon id="path-33" points="6.01182208e-12 109.083516 1014.35724 109.083516 1014.35724 -1.21139765e-11 6.01182208e-12 -1.21139765e-11"></polygon>
        <polygon id="path-35" points="6.01182208e-12 109.083516 1014.35724 109.083516 1014.35724 -1.21139765e-11 6.01182208e-12 -1.21139765e-11"></polygon>
        <polygon id="path-37" points="6.01182208e-12 109.083516 1014.35724 109.083516 1014.35724 -1.21139765e-11 6.01182208e-12 -1.21139765e-11"></polygon>
        <polygon id="path-39" points="6.01182208e-12 109.083516 1014.35724 109.083516 1014.35724 -1.21139765e-11 6.01182208e-12 -1.21139765e-11"></polygon>
        <polygon id="path-41" points="6.01182208e-12 109.083516 1014.35724 109.083516 1014.35724 -1.21139765e-11 6.01182208e-12 -1.21139765e-11"></polygon>
        <polygon id="path-43" points="6.01182208e-12 109.083516 1014.35724 109.083516 1014.35724 -1.21139765e-11 6.01182208e-12 -1.21139765e-11"></polygon>
        <polygon id="path-45" points="6.01182208e-12 109.083516 1014.35724 109.083516 1014.35724 -1.21139765e-11 6.01182208e-12 -1.21139765e-11"></polygon>
        <polygon id="path-47" points="6.01182208e-12 109.083516 1014.35724 109.083516 1014.35724 -1.21139765e-11 6.01182208e-12 -1.21139765e-11"></polygon>
        <polygon id="path-49" points="6.01182208e-12 109.083516 1014.35724 109.083516 1014.35724 -1.21139765e-11 6.01182208e-12 -1.21139765e-11"></polygon>
        <polygon id="path-51" points="6.01182208e-12 109.083516 1014.35724 109.083516 1014.35724 -1.21139765e-11 6.01182208e-12 -1.21139765e-11"></polygon>
        <polygon id="path-53" points="6.01182208e-12 109.083516 1014.35724 109.083516 1014.35724 -1.21139765e-11 6.01182208e-12 -1.21139765e-11"></polygon>
        <polygon id="path-55" points="6.01182208e-12 109.083516 1014.35724 109.083516 1014.35724 -1.21139765e-11 6.01182208e-12 -1.21139765e-11"></polygon>
        <polygon id="path-57" points="6.01182208e-12 109.083516 1014.35724 109.083516 1014.35724 -1.21139765e-11 6.01182208e-12 -1.21139765e-11"></polygon>
        <polygon id="path-59" points="6.01182208e-12 109.083516 1014.35724 109.083516 1014.35724 -1.21139765e-11 6.01182208e-12 -1.21139765e-11"></polygon>
        <polygon id="path-61" points="6.01182208e-12 109.083516 1014.35724 109.083516 1014.35724 -1.21139765e-11 6.01182208e-12 -1.21139765e-11"></polygon>
        <polygon id="path-63" points="6.01182208e-12 109.083516 1014.35724 109.083516 1014.35724 -1.21139765e-11 6.01182208e-12 -1.21139765e-11"></polygon>
    </defs>
    <g id="Page-1" stroke="none" stroke-width="1" fill="none" fill-rule="evenodd">
        <g id="cset">
            <path d="M464,12.4741935 C462.884615,11.3455119 461.185838,10.006662 459.381691,9.14782609 C457.521003,8.29158485 455.341634,7.75448808 453.270206,7.75448808 C445.092432,7.75448808 439.040057,14.4020337 439.040057,22.6608696 C439.040057,32.3675316 446.845179,37.2455119 453.324176,37.2455119 C455.714286,37.2455119 458.052995,36.5475456 459.913683,35.5823282 C461.928571,34.5652174 463.365207,33.2237728 464,32.5828892 L464,37.512763 C460.070454,40.3539271 455.981567,41 453.324176,41 C442.810262,41 435,32.9591164 435,22.6089762 C435,11.9370968 442.915633,4 453.537487,4 C455.662886,4 459.754342,4.26725105 464,7.53913043 L464,12.4741935 Z" id="Fill-1" fill="#FFFFFF" fill-rule="nonzero"></path>
            <polygon id="Fill-3" fill="#FFFFFF" fill-rule="nonzero" points="491 7.77916425 476.06042 7.77916425 476.06042 18.4663378 490.558881 18.4663378 490.558881 22.245502 476.06042 22.245502 476.06042 36.2208358 491 36.2208358 491 40 472 40 472 4 491 4"></polygon>
            <polygon id="Fill-5" fill="#FFFFFF" fill-rule="nonzero" points="499 40.3860633 499 3 527.014012 32.3189828 527.014012 4.50460553 531 4.50460553 531 42 502.983381 12.6810172 502.983381 40.3860633"></polygon>
            <polygon id="Fill-7" fill="#FFFFFF" fill-rule="nonzero" points="549.451915 7.77916425 549.451915 40 545.548085 40 545.548085 7.77916425 537 7.77916425 537 4 558 4 558 7.77916425"></polygon>
            <polygon id="Fill-9" fill="#FFFFFF" fill-rule="nonzero" points="583 7.77916425 568.06042 7.77916425 568.06042 18.4663378 582.558881 18.4663378 582.558881 22.245502 568.06042 22.245502 568.06042 36.2208358 583 36.2208358 583 40 564 40 564 4 583 4"></polygon>
            <path d="M594.025197,20.677066 L596.581422,20.677066 C601.585935,20.677066 604.579165,18.3028368 604.579165,14.0924327 C604.579165,12.0943191 603.981572,10.1014293 601.696502,8.80330842 C600.061677,7.88652688 598.213614,7.77943844 596.470854,7.77943844 L594.025197,7.77943844 L594.025197,20.677066 Z M595.820609,4 C598.266266,4 601.912373,4.16193862 604.634449,5.9955017 C606.753667,7.40071102 608.604363,10.1536676 608.604363,13.9827324 C608.604363,19.4912573 604.958255,23.5397228 599.466717,23.9184503 L611,40 L606.103422,40 L595.057164,24.2397156 L594.025197,24.2397156 L594.025197,40 L590,40 L590,4 L595.820609,4 Z" id="Fill-11" fill="#FFFFFF" fill-rule="nonzero"></path>
            <path d="M632.731605,20.9713694 C632.462014,20.9713694 632.355733,20.8094417 632.462014,20.4333514 L632.677168,19.5140196 C632.786042,19.1353176 632.892323,18.9733898 633.322632,18.9733898 L637.980857,18.9733898 C639.590628,14.3323313 641.410369,9.85320061 644.248853,6.66949194 C645.752343,4.9431331 648.697109,3 652.178465,3 C655.28654,3 657,4.8882866 657,6.18370867 C657,7.85783275 655.929412,8.6648598 654.856231,8.6648598 C653.142772,8.6648598 652.660618,7.69590499 652.4999,6.50756418 C652.448056,5.96693441 651.911466,4.9431331 650.304287,4.9431331 C645.322034,4.9431331 643.39342,12.929828 641.625523,18.9733898 L646.822931,18.9733898 C647.144367,18.9733898 647.250648,19.1353176 647.144367,19.6211009 L646.877368,20.5926674 C646.822931,20.9165229 646.714058,20.9713694 646.286341,20.9713694 L641.195214,20.9713694 C639.80319,25.3434189 637.337986,34.6803824 634.660219,41.5884295 C631.394018,50.0086729 627.588634,56 621.857228,56 C619.716052,56 618,54.5426502 618,52.8162913 C618,51.5757158 618.90987,50.4944562 620.304487,50.4944562 C621.857228,50.4944562 622.660818,52.0066525 622.821535,52.9233726 C622.930409,53.4613906 623.306281,53.8400926 623.731406,53.8400926 C626.305484,53.8400926 629.195813,49.3087271 632.091326,39.3240526 L637.498704,20.9713694 L632.731605,20.9713694 Z" id="Fill-13" fill="#FFFFFF" fill-rule="nonzero"></path>
            <path d="M662.849776,23.5070423 C662.904377,21.8324625 661.937166,20.4844389 660.163946,20.4844389 C657.907121,20.4844389 655.06009,22.5378237 652.37426,26.9084507 C650.549039,29.8213312 649.254225,33.1182417 649.254225,35.6549296 C649.254225,37.3843707 650.439838,38.4084507 651.729453,38.4084507 C657.316915,38.4084507 662.849776,27.0704225 662.849776,23.5070423 M647,34.0352113 C647,27.2323944 652.106457,18 659.251336,18 C662.849776,18 665,20.6464107 665,24.3195139 C665,30.2549977 660.325148,41 652.532861,41 C649.579229,41 647,38.1393685 647,34.0352113" id="Fill-15" fill="#FFFFFF" fill-rule="nonzero"></path>
            <path d="M669.035662,40 C668.662798,40 668.451937,39.7876003 668.557368,39.526579 L671.535138,30.9589392 C672.489156,27.9955799 674.137473,22.445039 674.137473,21.7029196 C674.137473,21.2269396 673.710607,20.9121787 673.234884,20.9121787 C672.170293,20.9121787 669.781391,23.2895196 669.035662,24.1902989 C668.92766,24.3489589 668.716799,24.2952193 668.608797,24.1902989 L668.079073,23.6605793 C667.973642,23.555659 667.973642,23.3944399 668.079073,23.2357799 C669.195094,21.5979993 672.383725,18 675.999222,18 C677.05867,18 677.485535,18.9007793 677.485535,19.8501803 C677.539536,20.858439 676.636948,23.8192393 675.572357,27.3634989 L675.83979,27.4684192 C677.272103,24.5050599 681.525326,18 684.500524,18 C686.040839,18 687,18.954519 687,20.3799 C687,21.7566593 685.935409,22.8135396 684.92739,22.8135396 C684.446523,22.8135396 684.02223,22.7060603 683.597936,22.286379 C683.173642,21.8615796 682.906209,21.651739 682.214481,21.651739 C680.779597,21.651739 677.804399,26.1965802 675.677787,29.6871002 C675.042632,30.6953588 674.402335,31.9108992 673.605177,34.2907991 L671.854001,39.6289403 C671.74857,40 671.589139,40 671.162274,40 L669.035662,40 Z" id="Fill-17" fill="#FFFFFF" fill-rule="nonzero"></path>
            <path d="M722.576059,11.6698457 C722.104885,10.7046283 721.312804,9.63043478 720.523269,8.98955119 C719.840704,8.45245442 718.577448,7.75448808 716.578143,7.75448808 C713.104191,7.75448808 710.682102,9.95476858 710.682102,13.2785414 C710.682102,14.6718794 711.051401,15.4788219 711.998842,16.3869565 C713.050706,17.4611501 714.364899,18.0501403 715.681639,18.6417251 L719.048622,20.1414446 C721.103959,21.0547686 722.998842,22.019986 724.470942,23.5197055 C726.261403,25.3437588 727,27.4350631 727,30.0063815 C727,36.6020337 722.206761,41 715.890484,41 C713.577912,41 710.682102,40.5173913 708.262561,38.1069425 C706.525585,36.3892707 705.471174,33.9217391 705,31.7785414 L708.784672,30.7043478 C709.049549,32.5828892 709.895115,34.1915849 710.893494,35.2631837 C712.419078,36.8173913 714.156055,37.2455119 715.943969,37.2455119 C720.734661,37.2455119 722.998842,33.7608696 722.998842,30.1672511 C722.998842,28.5611501 722.522575,27.1678121 721.261866,25.987237 C720.263487,25.0220196 718.890715,24.3785414 717.051864,23.5197055 L713.891179,22.019986 C712.523501,21.373913 710.786525,20.626648 709.207455,19.0698457 C707.681871,17.5701262 706.787914,15.9069425 706.787914,13.2240533 C706.787914,7.7 710.944432,4 716.631628,4 C718.78884,4 720.523269,4.43071529 722.260245,5.61388499 C723.683955,6.57650771 724.893725,8.0243338 725.680713,9.57854137 L722.576059,11.6698457 Z" id="Fill-19" fill="#FFFFFF" fill-rule="nonzero"></path>
            <polygon id="Fill-21" fill="#FFFFFF" fill-rule="nonzero" points="754 7.77916425 739.06042 7.77916425 739.06042 18.4663378 753.558881 18.4663378 753.558881 22.245502 739.06042 22.245502 739.06042 36.2208358 754 36.2208358 754 40 735 40 735 4 754 4"></polygon>
            <path d="M789,12.4741935 C787.884615,11.3455119 786.185838,10.006662 784.381691,9.14782609 C782.521003,8.29158485 780.341634,7.75448808 778.270206,7.75448808 C770.092432,7.75448808 764.040057,14.4020337 764.040057,22.6608696 C764.040057,32.3675316 771.845179,37.2455119 778.324176,37.2455119 C780.714286,37.2455119 783.052995,36.5475456 784.913683,35.5823282 C786.928571,34.5652174 788.365207,33.2237728 789,32.5828892 L789,37.512763 C785.070454,40.3539271 780.981567,41 778.324176,41 C767.810262,41 760,32.9591164 760,22.6089762 C760,11.9370968 767.915633,4 778.537487,4 C780.662886,4 784.754342,4.26725105 789,7.53913043 L789,12.4741935 Z" id="Fill-23" fill="#FFFFFF" fill-rule="nonzero"></path>
            <path d="M800.902501,26.286488 C800.902501,29.3399373 800.902501,32.6623432 803.697295,35.1145952 C805.121491,36.3697263 807.548749,37.1845068 809.501276,37.1845068 C811.453803,37.1845068 813.875957,36.3697263 815.302705,35.1145952 C818.097499,32.6623432 818.097499,29.3399373 818.097499,26.286488 L818.097499,4 L822,4 L822,27.3781357 C822,30.4289481 821.683512,33.3716505 819.787136,36.0981328 C817.676365,39.0935718 813.983155,41 809.501276,41 C805.014293,41 801.326187,39.0935718 799.215416,36.0981328 C797.316488,33.3716505 797,30.4289481 797,27.3781357 L797,4 L800.902501,4 L800.902501,26.286488 Z" id="Fill-25" fill="#FFFFFF" fill-rule="nonzero"></path>
            <path d="M836.022565,20.677066 L838.581422,20.677066 C843.585935,20.677066 846.576533,18.3028368 846.576533,14.0924327 C846.576533,12.0943191 845.981572,10.1014293 843.696502,8.80330842 C842.06431,7.88652688 840.213614,7.77943844 838.473486,7.77943844 L836.022565,7.77943844 L836.022565,20.677066 Z M837.817977,4 C840.268898,4 843.915006,4.16193862 846.631816,5.9955017 C848.753667,7.40071102 850.604363,10.1536676 850.604363,13.9827324 C850.604363,19.4912573 846.958255,23.5397228 841.464084,23.9184503 L853,40 L848.10079,40 L837.059797,24.2397156 L836.022565,24.2397156 L836.022565,40 L832,40 L832,4 L837.817977,4 Z" id="Fill-27" fill="#FFFFFF" fill-rule="nonzero"></path>
            <g id="Fill-29-Clipped">
                <mask id="mask-2" fill="white">
                    <use xlink:href="#path-1"></use>
                </mask>
                <g id="path-1"></g>
                <polygon id="Fill-29" fill="#FFFFFF" fill-rule="nonzero" mask="url(#mask-2)" points="859.663433 39.918375 863.642478 39.918375 863.642478 4.0584375 859.663433 4.0584375"></polygon>
            </g>
            <g id="Fill-31-Clipped">
                <mask id="mask-4" fill="white">
                    <use xlink:href="#path-3"></use>
                </mask>
                <g id="path-1"></g>
                <polygon id="Fill-31" fill="#FFFFFF" fill-rule="nonzero" mask="url(#mask-4)" points="882.240999 7.82185781 882.240999 39.9173344 878.261955 39.9173344 878.261955 7.82185781 869.55487 7.82185781 869.55487 4.05739688 890.948085 4.05739688 890.948085 7.82185781"></polygon>
            </g>
            <g id="Fill-32-Clipped">
                <mask id="mask-6" fill="white">
                    <use xlink:href="#path-5"></use>
                </mask>
                <g id="path-1"></g>
                <polygon id="Fill-32" fill="#FFFFFF" fill-rule="nonzero" mask="url(#mask-6)" points="905.52387 24.4882477 893.753181 4.05817734 898.374594 4.05817734 907.513392 20.0812008 916.753618 4.05817734 921.380232 4.05817734 909.500314 24.4882477 909.500314 39.9181148 905.52387 39.9181148"></polygon>
            </g>
            <g id="Fill-33-Clipped">
                <mask id="mask-8" fill="white">
                    <use xlink:href="#path-7"></use>
                </mask>
                <g id="path-1"></g>
                <path d="M948.254906,26.9082211 C949.006503,25.3498852 949.544844,24.0074789 949.544844,22.4439398 C949.544844,20.9948695 949.006503,19.2726352 947.016981,19.2726352 C942.073083,19.2726352 936.322974,30.6180492 936.322974,35.727518 C936.322974,36.9606586 936.858715,37.6084477 937.774155,37.6084477 C940.46066,37.6084477 947.284851,28.8984164 948.254906,26.9082211 L948.254906,26.9082211 Z M955.027083,17.5530023 C955.243058,17.5530023 955.297554,17.8209633 955.188326,18.036893 C954.163657,20.2404164 951.425138,27.6600727 951.157268,28.5211898 C950.832182,29.4343383 948.57739,36.0995414 948.57739,36.5860336 C948.57739,37.0699242 948.845261,37.2312211 949.167745,37.2312211 C949.812715,37.2312211 952.553834,34.4345414 952.930933,33.9532523 C953.092175,33.7919555 953.253418,33.6826898 953.360046,33.8439867 L953.841172,34.3799086 C954.002414,34.5412055 954.057029,34.6504711 953.950401,34.811768 C953.360046,35.8888148 948.684018,40.4571586 945.620414,40.4571586 C944.978046,40.4571586 944.491718,40.2412289 944.491718,39.5414086 C944.491718,38.7349242 945.030059,37.0699242 947.068995,31.3699008 L946.803725,31.2606352 C944.546332,34.7025023 939.116107,40.4571586 935.300906,40.4571586 C934.065582,40.4571586 932.398544,39.4347445 932.398544,37.0152914 C932.398544,29.1689789 941.212257,17.5530023 947.768578,17.5530023 C950.028571,17.5530023 951.048039,18.5207836 951.58638,19.3792992 L952.605848,17.9302289 C952.76709,17.7142992 952.930933,17.5530023 953.144189,17.5530023 L955.027083,17.5530023 Z" id="Fill-33" fill="#FFFFFF" fill-rule="nonzero" mask="url(#mask-8)"></path>
            </g>
            <g id="Fill-34-Clipped">
                <mask id="mask-10" fill="white">
                    <use xlink:href="#path-9"></use>
                </mask>
                <g id="path-1"></g>
                <path d="M958.906522,39.9170742 C958.313566,39.9170742 958.206938,39.8104102 958.313566,39.4357852 L962.131368,29.4874102 C963.418706,26.1548086 964.924501,22.2862852 964.924501,21.3705352 C964.924501,20.8320117 964.708644,20.4573867 964.12089,20.4573867 C963.096221,20.4573867 960.518945,23.0355352 959.603504,24.0553477 C959.442262,24.2192461 959.28362,24.2192461 959.067764,24.005918 L958.584037,23.5220273 C958.36818,23.3060977 958.313566,23.1994336 958.474808,22.9835039 C959.28362,22.0157227 963.257463,17.5514414 967.12988,17.5514414 C968.365204,17.5514414 968.848931,18.4671914 968.848931,19.1644102 C968.848931,20.8320117 966.536924,25.9388789 966.110412,27.1772227 L966.321068,27.2864883 C967.936091,24.7031367 973.792829,17.5514414 978.575484,17.5514414 C980.187907,17.5514414 981.26459,18.3605273 981.26459,19.7575664 C981.26459,22.1249883 980.026665,24.9190664 978.2556,29.2714805 C976.801818,32.8200117 975.51188,35.8326211 975.51188,36.6911367 C975.51188,37.016332 975.727737,37.3935586 976.15945,37.3935586 C976.963061,37.3935586 979.329682,35.4033633 980.026665,34.6489102 C980.242522,34.4876133 980.458378,34.5422461 980.61962,34.7555742 L980.996719,35.1874336 C981.209975,35.4033633 981.26459,35.5100273 981.048733,35.7805898 C980.403764,36.6391055 976.050221,40.4581992 972.450876,40.4581992 C971.748692,40.4581992 971.160938,40.1876367 971.160938,39.3811523 C971.160938,38.3587383 973.093245,34.1129883 974.762883,29.4874102 C975.51188,27.3931523 977.446788,22.9288711 977.446788,21.7477617 C977.446788,20.9933086 977.069689,20.5120195 976.104835,20.5120195 C974.008685,20.5120195 968.687689,25.4575898 966.321068,29.2714805 C965.353614,30.8350195 964.495388,32.2320586 963.096221,35.9965195 L961.754269,39.5944805 C961.647641,39.8104102 961.538412,39.9170742 961.002672,39.9170742 L958.906522,39.9170742 Z" id="Fill-34" fill="#FFFFFF" fill-rule="nonzero" mask="url(#mask-10)"></path>
            </g>
            <g id="Fill-35-Clipped">
                <mask id="mask-12" fill="white">
                    <use xlink:href="#path-11"></use>
                </mask>
                <g id="path-1"></g>
                <path d="M998.956773,30.3493078 C1000.46257,28.3044797 1002.45209,24.9198469 1002.45209,22.8203859 C1002.45209,20.2968703 1001.32079,19.2718547 999.601743,19.2718547 C994.548616,19.2718547 988.853122,31.0465266 988.853122,35.9946984 C988.853122,37.1237766 989.656732,37.7169328 990.41093,37.7169328 C992.668323,37.7169328 996.806009,33.3046828 998.956773,30.3493078 L998.956773,30.3493078 Z M1005.29724,5.45495625 C1004.86812,5.45495625 1004.81351,5.23902656 1004.86812,5.08293281 L1005.19061,3.95125313 C1005.24262,3.73532344 1005.35185,3.62865938 1005.83818,3.62865938 L1012.44651,3.62865938 C1013.19811,3.62865938 1013.30474,4.16718281 1013.09148,4.59644062 C1012.28527,6.47997188 1002.8786,31.6396828 1001.96576,34.8630188 C1001.48204,36.5306203 1001.42742,37.3397062 1002.18162,37.3397062 C1003.09446,37.3397062 1005.67434,34.8630188 1005.94481,34.540425 C1006.16066,34.3791281 1006.37132,34.3791281 1006.53516,34.5950578 L1007.0735,35.1335812 C1007.23475,35.2402453 1007.23475,35.456175 1007.0735,35.6721047 C1006.6964,36.1533937 1002.07499,40.4563781 999.227244,40.4563781 C998.363818,40.4563781 997.773463,40.1858156 997.773463,39.2206359 C997.773463,38.1435891 998.956773,34.4857922 1000.14008,31.4237531 L999.708371,31.3170891 C997.07648,35.5108078 992.023354,40.4563781 988.369395,40.4563781 C986.541115,40.4563781 984.928691,39.2206359 984.928691,36.9078469 C984.928691,32.6594953 987.937681,26.2622531 992.345838,21.9072375 C994.06749,20.2422375 997.183108,17.5522219 1000.78505,17.5522219 C1002.23623,17.5522219 1003.2557,18.2520422 1004.17114,19.3264875 L1008.30623,7.55181562 C1008.68333,6.53200313 1008.41546,5.45495625 1006.96428,5.45495625 L1005.29724,5.45495625 Z" id="Fill-35" fill="#FFFFFF" fill-rule="nonzero" mask="url(#mask-12)"></path>
            </g>
            <g id="Fill-36-Clipped">
                <mask id="mask-14" fill="white">
                    <use xlink:href="#path-13"></use>
                </mask>
                <g id="path-1"></g>
                <polygon id="Fill-36" fill="#FFFFFF" fill-rule="nonzero" mask="url(#mask-14)" points="455.468726 67.7366227 440.850289 67.7366227 440.850289 78.3822164 455.039613 78.3822164 455.039613 82.1466773 440.850289 82.1466773 440.850289 96.0702398 455.468726 96.0702398 455.468726 99.8347008 436.873845 99.8347008 436.873845 63.9747633 455.468726 63.9747633"></polygon>
            </g>
            <g id="Fill-37-Clipped">
                <mask id="mask-16" fill="white">
                    <use xlink:href="#path-15"></use>
                </mask>
                <g id="path-1"></g>
                <polygon id="Fill-37" fill="#FFFFFF" fill-rule="nonzero" mask="url(#mask-16)" points="460.206649 99.8357414 466.172615 61.9856086 479.932827 92.2521867 493.960909 61.9309758 499.547175 99.8357414 495.466704 99.8357414 492.080615 74.886757 479.878212 101.339445 467.839653 74.886757 464.292322 99.8357414"></polygon>
            </g>
            <g id="Fill-38-Clipped">
                <mask id="mask-18" fill="white">
                    <use xlink:href="#path-17"></use>
                </mask>
                <g id="path-1"></g>
                <polygon id="Fill-38" fill="#FFFFFF" fill-rule="nonzero" mask="url(#mask-18)" points="525.149855 67.7366227 510.528817 67.7366227 510.528817 78.3822164 524.718141 78.3822164 524.718141 82.1466773 510.528817 82.1466773 510.528817 96.0702398 525.149855 96.0702398 525.149855 99.8347008 506.554974 99.8347008 506.554974 63.9747633 525.149855 63.9747633"></polygon>
            </g>
            <g id="Fill-39-Clipped">
                <mask id="mask-20" fill="white">
                    <use xlink:href="#path-19"></use>
                </mask>
                <g id="path-1"></g>
                <path d="M535.101887,80.5870406 L537.62975,80.5870406 C542.573648,80.5870406 545.528023,78.2196188 545.528023,74.0285016 C545.528023,72.0383063 544.940269,70.0481109 542.680276,68.7603375 C541.067853,67.8445875 539.242173,67.7379234 537.520522,67.7379234 L535.101887,67.7379234 L535.101887,80.5870406 Z M536.875552,63.9760641 C539.294187,63.9760641 542.896132,64.1373609 545.582638,65.9610562 C547.678788,67.3632984 549.507068,70.1027438 549.507068,73.9192359 C549.507068,79.4059312 545.905122,83.4357516 540.474897,83.8129781 L551.871088,99.8360016 L547.031218,99.8360016 L536.123955,84.1355719 L535.101887,84.1355719 L535.101887,99.8360016 L531.125443,99.8360016 L531.125443,63.9760641 L536.875552,63.9760641 Z" id="Fill-39" fill="#FFFFFF" fill-rule="nonzero" mask="url(#mask-20)"></path>
            </g>
            <g id="Fill-40-Clipped">
                <mask id="mask-22" fill="white">
                    <use xlink:href="#path-21"></use>
                </mask>
                <g id="path-1"></g>
                <path d="M575.313381,81.823043 L590.254302,81.823043 L590.254302,82.6841602 C590.254302,86.6619492 589.073592,90.9649336 586.813599,94.0269727 C585.739517,95.4786445 581.708459,100.478848 573.485101,100.478848 C562.843108,100.478848 554.89022,92.3619727 554.89022,81.9323086 C554.89022,71.500043 562.897722,63.383168 573.59433,63.383168 C577.035033,63.383168 581.060889,64.2416836 584.556207,66.9316992 C586.171231,68.1674414 587.674425,69.7804102 588.696494,71.1774492 L585.739517,73.8674648 C584.717449,72.415793 583.536739,71.1228164 582.356029,70.1576367 C580.634377,68.7605977 577.945272,67.1476289 573.646343,67.1476289 C564.993872,67.1476289 558.973292,73.6515352 558.973292,81.9843398 C558.973292,91.7688164 566.767538,96.7169883 573.539715,96.7169883 C578.322371,96.7169883 582.462657,94.2975352 584.501592,90.6943711 C585.149162,89.5678945 585.848746,87.8456602 585.955374,85.5875039 L575.313381,85.5875039 L575.313381,81.823043 Z" id="Fill-40" fill="#FFFFFF" fill-rule="nonzero" mask="url(#mask-22)"></path>
            </g>
            <g id="Fill-41-Clipped">
                <mask id="mask-24" fill="white">
                    <use xlink:href="#path-23"></use>
                </mask>
                <g id="path-1"></g>
                <polygon id="Fill-41" fill="#FFFFFF" fill-rule="nonzero" mask="url(#mask-24)" points="596.232491 99.8349609 600.211536 99.8349609 600.211536 63.9750234 596.232491 63.9750234"></polygon>
            </g>
            <g id="Fill-42-Clipped">
                <mask id="mask-26" fill="white">
                    <use xlink:href="#path-25"></use>
                </mask>
                <g id="path-1"></g>
                <polygon id="Fill-42" fill="#FFFFFF" fill-rule="nonzero" mask="url(#mask-26)" points="608.168584 99.8357414 608.168584 62.4668977 636.11812 91.7682961 636.11812 63.9758039 640.094564 63.9758039 640.094564 101.44871 612.145028 72.1473117 612.145028 99.8357414"></polygon>
            </g>
            <g id="Fill-43-Clipped">
                <mask id="mask-28" fill="white">
                    <use xlink:href="#path-27"></use>
                </mask>
                <g id="path-1"></g>
                <path d="M666.550528,81.823043 L681.491449,81.823043 L681.491449,82.6841602 C681.491449,86.6619492 680.310739,90.9649336 678.050746,94.0269727 C676.976664,95.4786445 672.945606,100.478848 664.722248,100.478848 C654.082855,100.478848 646.127367,92.3619727 646.127367,81.9323086 C646.127367,71.500043 654.134869,63.383168 664.831476,63.383168 C668.27218,63.383168 672.300637,64.2416836 675.793354,66.9316992 C677.408377,68.1674414 678.911572,69.7804102 679.93364,71.1774492 L676.976664,73.8674648 C675.954596,72.415793 674.773886,71.1228164 673.593176,70.1576367 C671.871524,68.7605977 669.182418,67.1476289 664.886091,67.1476289 C656.231019,67.1476289 650.210439,73.6515352 650.210439,81.9843398 C650.210439,91.7688164 658.004685,96.7169883 664.776862,96.7169883 C669.559517,96.7169883 673.699804,94.2975352 675.738739,90.6943711 C676.386309,89.5678945 677.085893,87.8456602 677.192521,85.5875039 L666.550528,85.5875039 L666.550528,81.823043 Z" id="Fill-43" fill="#FFFFFF" fill-rule="nonzero" mask="url(#mask-28)"></path>
            </g>
            <g id="Fill-44-Clipped">
                <mask id="mask-30" fill="white">
                    <use xlink:href="#path-29"></use>
                </mask>
                <g id="path-1"></g>
                <polygon id="Fill-44" fill="#FFFFFF" fill-rule="nonzero" mask="url(#mask-30)" points="707.577336 67.7366227 707.577336 99.8347008 703.598291 99.8347008 703.598291 67.7366227 694.893807 67.7366227 694.893807 63.9747633 716.284421 63.9747633 716.284421 67.7366227"></polygon>
            </g>
            <g id="Fill-45-Clipped">
                <mask id="mask-32" fill="white">
                    <use xlink:href="#path-31"></use>
                </mask>
                <g id="path-1"></g>
                <polygon id="Fill-45" fill="#FFFFFF" fill-rule="nonzero" mask="url(#mask-32)" points="738.972256 67.7366227 724.353819 67.7366227 724.353819 78.3822164 738.543143 78.3822164 738.543143 82.1466773 724.353819 82.1466773 724.353819 96.0702398 738.972256 96.0702398 738.972256 99.8347008 720.377375 99.8347008 720.377375 63.9747633 738.972256 63.9747633"></polygon>
            </g>
            <g id="Fill-46-Clipped">
                <mask id="mask-34" fill="white">
                    <use xlink:href="#path-33"></use>
                </mask>
                <g id="path-1"></g>
                <path d="M772.358259,71.8777898 C771.226962,70.7487117 769.507911,69.4037039 767.679631,68.5451883 C765.799337,67.6814695 763.596559,67.1481492 761.500409,67.1481492 C753.225037,67.1481492 747.095228,73.8133523 747.095228,82.0915242 C747.095228,91.8239695 754.998702,96.7175086 761.555023,96.7175086 C763.973658,96.7175086 766.337678,96.0176883 768.217972,95.049907 C770.262109,94.027493 771.710689,92.6850867 772.358259,92.0372977 L772.358259,96.982868 C768.381815,99.836782 764.241528,100.479368 761.555023,100.479368 C750.91303,100.479368 743.012156,92.4145242 743.012156,82.039493 C743.012156,71.3392664 751.019658,63.3836883 761.77088,63.3836883 C763.921644,63.3836883 768.05673,63.6516492 772.358259,66.9322195 L772.358259,71.8777898 Z" id="Fill-46" fill="#FFFFFF" fill-rule="nonzero" mask="url(#mask-34)"></path>
            </g>
            <g id="Fill-47-Clipped">
                <mask id="mask-36" fill="white">
                    <use xlink:href="#path-35"></use>
                </mask>
                <g id="path-1"></g>
                <polygon id="Fill-47" fill="#FFFFFF" fill-rule="nonzero" mask="url(#mask-36)" points="782.313932 78.542993 800.692956 78.542993 800.692956 63.974243 804.672 63.974243 804.672 99.836782 800.692956 99.836782 800.692956 82.3074539 782.313932 82.3074539 782.313932 99.836782 778.334887 99.836782 778.334887 63.974243 782.313932 63.974243"></polygon>
            </g>
            <g id="Fill-48-Clipped">
                <mask id="mask-38" fill="white">
                    <use xlink:href="#path-37"></use>
                </mask>
                <g id="path-1"></g>
                <polygon id="Fill-48" fill="#FFFFFF" fill-rule="nonzero" mask="url(#mask-38)" points="812.641012 99.8357414 812.641012 62.4668977 840.585346 91.7682961 840.585346 63.9758039 844.56439 63.9758039 844.56439 101.44871 816.614855 72.1473117 816.614855 99.8357414"></polygon>
            </g>
            <g id="Fill-49-Clipped">
                <mask id="mask-40" fill="white">
                    <use xlink:href="#path-39"></use>
                </mask>
                <g id="path-1"></g>
                <path d="M854.679745,81.9310078 C854.679745,90.1571484 861.186653,96.7182891 869.246169,96.7182891 C877.308285,96.7182891 883.812592,90.1571484 883.812592,81.9310078 C883.812592,73.7048672 877.308285,67.1463281 869.246169,67.1463281 C861.186653,67.1463281 854.679745,73.7048672 854.679745,81.9310078 M850.596674,81.9310078 C850.596674,71.2307812 858.92666,63.3844687 869.246169,63.3844687 C879.565677,63.3844687 887.895663,71.2307812 887.895663,81.9310078 C887.895663,92.5766016 879.620291,100.477547 869.246169,100.477547 C858.874646,100.477547 850.596674,92.5766016 850.596674,81.9310078" id="Fill-49" fill="#FFFFFF" fill-rule="nonzero" mask="url(#mask-40)"></path>
            </g>
            <g id="Fill-50-Clipped">
                <mask id="mask-42" fill="white">
                    <use xlink:href="#path-41"></use>
                </mask>
                <g id="path-1"></g>
                <polygon id="Fill-50" fill="#FFFFFF" fill-rule="nonzero" mask="url(#mask-42)" points="897.907251 63.9752836 897.907251 96.0707602 907.795046 96.0707602 907.795046 99.8352211 893.930808 99.8352211 893.930808 63.9752836"></polygon>
            </g>
            <g id="Fill-51-Clipped">
                <mask id="mask-44" fill="white">
                    <use xlink:href="#path-43"></use>
                </mask>
                <g id="path-1"></g>
                <path d="M912.208405,81.9310078 C912.208405,90.1571484 918.710111,96.7182891 926.774828,96.7182891 C934.834343,96.7182891 941.338651,90.1571484 941.338651,81.9310078 C941.338651,73.7048672 934.834343,67.1463281 926.774828,67.1463281 C918.710111,67.1463281 912.208405,73.7048672 912.208405,81.9310078 M908.122732,81.9310078 C908.122732,71.2307812 916.455319,63.3844687 926.774828,63.3844687 C937.094337,63.3844687 945.424323,71.2307812 945.424323,81.9310078 C945.424323,92.5766016 937.14635,100.477547 926.774828,100.477547 C916.400705,100.477547 908.122732,92.5766016 908.122732,81.9310078" id="Fill-51" fill="#FFFFFF" fill-rule="nonzero" mask="url(#mask-44)"></path>
            </g>
            <g id="Fill-52-Clipped">
                <mask id="mask-46" fill="white">
                    <use xlink:href="#path-45"></use>
                </mask>
                <g id="path-1"></g>
                <path d="M969.94798,81.823043 L984.888901,81.823043 L984.888901,82.6841602 C984.888901,86.6619492 983.708191,90.9649336 981.448198,94.0269727 C980.371515,95.4786445 976.343058,100.478848 968.1197,100.478848 C957.480307,100.478848 949.522218,92.3619727 949.522218,81.9323086 C949.522218,71.500043 957.532321,63.383168 968.228928,63.383168 C971.669631,63.383168 975.695488,64.2416836 979.190805,66.9316992 C980.803229,68.1674414 982.306423,69.7804102 983.331092,71.1774492 L980.371515,73.8674648 C979.352048,72.415793 978.171338,71.1228164 976.985427,70.1576367 C975.266375,68.7605977 972.57987,67.1476289 968.280942,67.1476289 C959.628471,67.1476289 953.607891,73.6515352 953.607891,81.9843398 C953.607891,91.7688164 961.402137,96.7169883 968.174314,96.7169883 C972.956969,96.7169883 977.094655,94.2975352 979.136191,90.6943711 C979.783761,89.5678945 980.480744,87.8456602 980.587372,85.5875039 L969.94798,85.5875039 L969.94798,81.823043 Z" id="Fill-52" fill="#FFFFFF" fill-rule="nonzero" mask="url(#mask-46)"></path>
            </g>
            <g id="Fill-53-Clipped">
                <mask id="mask-48" fill="white">
                    <use xlink:href="#path-47"></use>
                </mask>
                <g id="path-1"></g>
                <polygon id="Fill-53" fill="#FFFFFF" fill-rule="nonzero" mask="url(#mask-48)" points="998.502174 84.4053539 986.731485 63.9752836 991.352898 63.9752836 1000.4917 79.9957055 1009.73192 63.9752836 1014.35854 63.9752836 1002.47862 84.4053539 1002.47862 99.8352211 998.502174 99.8352211"></polygon>
            </g>
            <g id="Fill-54-Clipped">
                <mask id="mask-50" fill="white">
                    <use xlink:href="#path-49"></use>
                </mask>
                <g id="path-1"></g>
                <path d="M197.92859,97.6964766 C189.263115,102.103523 182.215266,102.985453 176.340324,102.985453 C158.275982,102.985453 146.086583,96.8145469 137.863225,88.7366953 C129.052112,80.2139766 122.589416,67.2868125 122.589416,51.5681719 C122.589416,36.1435078 129.052112,23.2163437 137.863225,14.693625 C146.528699,6.31919531 159.157614,0.590554688 174.431423,0.590554688 C180.894119,0.590554688 188.384085,1.91214844 197.92859,6.02782031 L197.92859,32.176125 C192.935279,26.8871484 185.445313,21.7464609 175.019177,21.7464609 C166.793218,21.7464609 160.184883,24.3896484 155.045934,29.3846484 C149.613109,34.673625 145.795306,42.6057891 145.795306,52.0078359 C145.795306,62.1435234 149.906986,69.3446484 154.312542,73.6034063 C156.367081,75.6612422 163.417532,81.8295469 175.458692,81.8295469 C181.333634,81.8295469 189.263115,80.2139766 197.92859,71.6938594 L197.92859,97.6964766 Z" id="Fill-54" fill="#FFFFFF" fill-rule="nonzero" mask="url(#mask-50)"></path>
            </g>
            <g id="Fill-55-Clipped">
                <mask id="mask-52" fill="white">
                    <use xlink:href="#path-51"></use>
                </mask>
                <g id="path-1"></g>
                <path d="M259.159061,26.7404203 C251.817334,20.12985 245.502876,19.6901859 242.709743,19.6901859 C239.627934,19.6901859 235.807532,20.12985 233.165238,23.0670141 C231.695853,24.5368969 230.668583,26.7404203 230.668583,29.2379203 C230.668583,31.5871312 231.404576,33.3509906 232.871361,34.6725844 C235.219777,36.8761078 238.598064,37.7580375 245.206399,40.2555375 L252.550726,43.0470141 C256.810644,44.6625844 262.095231,46.8661078 265.915634,50.5395141 C271.642337,55.9741781 273.111723,63.0270141 273.111723,68.7556547 C273.111723,78.8913422 269.585197,87.7080375 264.446248,92.9944125 C255.780774,102.105084 243.151859,102.987014 236.689163,102.987014 C229.641313,102.987014 223.472494,101.956795 217.303675,98.8713422 C212.310365,96.3738422 206.583661,91.8211078 202.914098,88.1477016 L214.661382,71.9893969 C217.158037,74.4868969 221.124078,77.863725 223.766371,79.4792953 C227.584173,81.8311078 231.550214,83.0044125 236.101409,83.0044125 C239.04018,83.0044125 243.151859,82.4190609 246.381907,79.6275844 C248.290808,78.0120141 249.905832,75.366225 249.905832,71.6928188 C249.905832,68.4616781 248.584685,66.4064438 246.530146,64.6425844 C243.885252,62.4390609 237.864672,60.2355375 235.074139,59.2053187 L226.996419,56.4164437 C222.445225,54.8008734 217.158037,52.7430375 213.340235,48.6299672 C208.198685,43.1953031 207.465293,36.2881547 207.465293,31.5871312 C207.465293,22.9213266 210.110187,15.5745141 215.982528,9.55189687 C222.88474,2.5016625 231.108098,0.592115625 240.213088,0.592115625 C246.969661,0.592115625 257.837914,1.76542031 269.29132,10.2855375 L259.159061,26.7404203 Z" id="Fill-55" fill="#FFFFFF" fill-rule="nonzero" mask="url(#mask-52)"></path>
            </g>
            <g id="Fill-56-Clipped">
                <mask id="mask-54" fill="white">
                    <use xlink:href="#path-53"></use>
                </mask>
                <g id="path-1"></g>
                <polygon id="Fill-56" fill="#FFFFFF" fill-rule="nonzero" mask="url(#mask-54)" points="337.495782 21.8929289 304.745386 21.8929289 304.745386 40.8427102 335.880758 40.8427102 335.880758 59.9407805 304.745386 59.9407805 304.745386 81.6846398 337.495782 81.6846398 337.495782 100.78271 282.12985 100.78271 282.12985 2.79485859 337.495782 2.79485859"></polygon>
            </g>
            <g id="Fill-57-Clipped">
                <mask id="mask-56" fill="white">
                    <use xlink:href="#path-55"></use>
                </mask>
                <g id="path-1"></g>
                <polygon id="Fill-57" fill="#FFFFFF" fill-rule="nonzero" mask="url(#mask-56)" points="388.259805 21.8929289 388.259805 100.78271 365.64427 100.78271 365.64427 21.8929289 344.349881 21.8929289 344.349881 2.79485859 409.554195 2.79485859 409.554195 21.8929289"></polygon>
            </g>
            <g id="Fill-58-Clipped">
                <mask id="mask-58" fill="white">
                    <use xlink:href="#path-57"></use>
                </mask>
                <g id="path-1"></g>
                <path d="M84.319071,84.3494203 C77.2764225,91.3944516 68.5355283,95.7286547 59.4019311,97.3546312 C67.997187,88.3610297 73.3910027,77.0832563 75.0060266,64.9131469 C76.4233986,63.6227719 77.8147638,62.2933734 79.1801222,60.9301547 C85.8404703,54.2649516 91.6295898,46.9649672 96.5084703,39.0926391 C100.617549,54.7384359 96.5552826,72.1090688 84.319071,84.3494203 M27.2470915,91.6181859 C29.569501,90.9495844 31.8737058,90.2081391 34.1623065,89.39385 C35.7331188,91.8731391 37.4365659,94.2691781 39.254443,96.5845687 C35.0881495,95.5075219 31.0414874,93.8555297 27.2470915,91.6181859 M17.86903,84.3494203 C1.7968116,68.2717641 -0.174505802,43.3539984 11.9472758,25.1066391 C12.6754669,25.9131234 13.4270642,26.6987953 14.1968662,27.4714594 C16.222798,29.4980766 18.360559,31.3712016 20.589344,33.0960375 C20.3422792,35.8198734 20.2122451,38.5645219 20.2122451,41.3273812 C20.2122451,52.9667719 22.4202246,64.3121859 26.7737672,75.0514359 C28.2769618,78.7612641 30.0168184,82.3410141 31.9829345,85.7828812 C28.9245317,86.8443187 25.8349208,87.7730766 22.7141017,88.5717562 C21.0262587,87.2917875 19.4060334,85.8869437 17.86903,84.3494203 M17.86903,17.8768969 C20.1342246,15.6083344 22.5788662,13.6207406 25.153542,11.9141156 C23.309658,17.2343109 21.9703065,22.6923891 21.1588935,28.2493266 C19.7675283,27.081225 18.4177741,25.8506859 17.1174328,24.5473031 C16.1915898,23.6237484 15.304757,22.6715766 14.4413304,21.6959906 C15.5050096,20.3769984 16.6441085,19.0996312 17.86903,17.8768969 M36.4431051,6.45863906 C43.5273645,9.13824844 50.0264703,13.3137563 55.5399174,18.8290688 C62.114443,25.4084203 66.7878696,33.3822094 69.2871256,42.0818344 C66.5017945,42.4616625 63.6800539,42.6593813 60.8193031,42.6593813 C47.7690778,42.6593813 35.3404157,38.6373656 24.9376853,31.1812875 C25.8505249,23.4130219 27.8088389,15.8788969 30.7424089,8.7454125 C32.6018969,7.85567812 34.5055966,7.09342031 36.4431051,6.45863906 M75.5261631,57.1162641 C75.5261631,53.1358734 75.125658,49.2179203 74.3506546,45.4040297 C80.3556307,44.1552797 86.1239447,42.0818344 91.5229618,39.235725 C87.1330096,45.9581625 82.033071,52.2305297 76.2569549,58.0086 C76.0098901,58.2609516 75.7550232,58.5081 75.4975556,58.7604516 C75.5157604,58.2141234 75.5261631,57.6651937 75.5261631,57.1162641 M37.6576239,83.6522016 C37.075071,83.8863422 36.4925181,84.1152797 35.9125659,84.3416156 C28.3679857,71.4222563 24.342129,56.6870062 24.342129,41.3273813 C24.342129,39.5140922 24.4045454,37.7086078 24.5137741,35.9109281 C35.1973782,42.9871781 47.7144635,46.7880609 60.8193031,46.7880609 C64.015542,46.7880609 67.1727706,46.561725 70.2779857,46.1168578 C71.0139788,49.6992094 71.3962792,53.3778188 71.3962792,57.1162641 C71.3962792,59.0544281 71.2896512,60.9795844 71.0893986,62.878725 C61.1625932,71.6928187 49.9458491,78.6676078 37.6576239,83.6522016 M52.6817672,98.0648578 C50.3255488,98.1455062 47.964129,98.0492484 45.6235147,97.7786859 C42.8693918,94.6516078 40.3623338,91.3554281 38.1205454,87.9135609 C38.4820403,87.770475 38.8461358,87.6273891 39.2076307,87.4817016 C50.3983679,82.941975 60.7334805,76.8100922 70.0465249,69.1953187 C67.8177399,79.0422328 62.8530369,88.0826625 55.5399174,95.4008578 C54.6140744,96.3244125 53.6596239,97.2141469 52.6817672,98.0648578 M84.319071,17.8768969 C88.727228,22.2865453 92.0717058,27.3595922 94.3603065,32.7812484 C87.9574259,36.9359437 80.8653645,39.8470922 73.3858014,41.3846156 C70.7279038,31.8446859 65.6513713,23.1034359 58.4630846,15.9101156 C53.8832826,11.3287641 48.676716,7.60852969 43.0332348,4.82225625 C57.5892553,2.30654531 73.1049276,6.65635781 84.319071,17.8768969 M36.5497331,2.09581875 C35.4470437,2.42361562 34.354757,2.78783437 33.2676717,3.19367812 C32.1961904,3.59171719 31.1377126,4.02617812 30.0870369,4.49445937 C29.234013,4.87949062 28.3965932,5.28273281 27.5643747,5.71459219 C23.0209823,8.06640469 18.7558628,11.1466547 14.9484635,14.9527406 C13.8223679,16.0792172 12.7612894,17.2473187 11.7678287,18.4492406 C10.8497877,19.5523031 9.98115973,20.6813812 9.17494812,21.8416781 C-4.74910648,41.7722484 -2.82460137,69.4918969 14.9484635,87.270975 C15.8144908,88.1372953 16.7039242,88.9645922 17.6167638,89.7554672 C18.9769208,90.9365766 20.3838901,92.0344359 21.8298696,93.0438422 C28.4330027,97.6616156 35.8891597,100.533741 43.555972,101.668022 C44.8459106,101.857936 46.1332485,102.003623 47.4257877,102.092077 C48.2215966,102.149311 49.0148048,102.188334 49.8106137,102.206545 C51.3008048,102.245569 52.7935966,102.21435 54.281187,102.120694 C66.2885386,101.376647 78.0826341,96.4310766 87.2396375,87.270975 C101.522586,72.9831937 105.566648,52.2747562 99.3822246,34.3473891 C99.3692212,34.3161703 99.3588184,34.2875531 99.3510164,34.2589359 C98.8958969,32.9451469 98.3809618,31.6469672 97.8166137,30.3696 C97.6605727,30.0105844 97.4915283,29.6541703 97.3250846,29.2977562 C94.8856444,24.1050375 91.5229618,19.2401156 87.2396375,14.9527406 C73.5418423,1.2529125 53.9404976,-3.03186094 36.5497331,2.09581875" id="Fill-58" fill="#FFFFFF" fill-rule="nonzero" mask="url(#mask-58)"></path>
            </g>
            <g id="Fill-59-Clipped">
                <mask id="mask-60" fill="white">
                    <use xlink:href="#path-59"></use>
                </mask>
                <g id="path-1"></g>
                <path d="M30.7395481,53.6249672 C34.1074321,56.9939906 34.1074321,62.4572719 30.7395481,65.8262953 C27.3716642,69.1953187 21.9102307,69.1953187 18.5423468,65.8262953 C15.1744628,62.4572719 15.1744628,56.9939906 18.5423468,53.6249672 C21.9102307,50.2559438 27.3716642,50.2559438 30.7395481,53.6249672" id="Fill-59" fill="#FFFFFF" fill-rule="nonzero" mask="url(#mask-60)"></path>
            </g>
            <g id="Fill-60-Clipped">
                <mask id="mask-62" fill="white">
                    <use xlink:href="#path-61"></use>
                </mask>
                <g id="path-1"></g>
                <path d="M103.400019,28.0144055 C106.767903,31.3834289 106.767903,36.8467102 103.400019,40.2157336 C100.032135,43.584757 94.5707017,43.584757 91.2028177,40.2157336 C87.8323331,36.8467102 87.8323331,31.3834289 91.2028177,28.0144055 C94.5707017,24.645382 100.032135,24.645382 103.400019,28.0144055" id="Fill-60" fill="#FFFFFF" fill-rule="nonzero" mask="url(#mask-62)"></path>
            </g>
            <g id="Fill-61-Clipped">
                <mask id="mask-64" fill="white">
                    <use xlink:href="#path-63"></use>
                </mask>
                <g id="path-1"></g>
                <path d="M62.5432956,94.3542492 C65.9111795,97.7232727 65.9111795,103.186554 62.5432956,106.555577 C59.1754116,109.924601 53.7139782,109.924601 50.3460942,106.555577 C46.9756096,103.186554 46.9756096,97.7232727 50.3460942,94.3542492 C53.7139782,90.9852258 59.1754116,90.9852258 62.5432956,94.3542492" id="Fill-61" fill="#FFFFFF" fill-rule="nonzero" mask="url(#mask-64)"></path>
            </g>
        </g>
    </g>
</svg>