<svg width="580" height="80" xmlns="http://www.w3.org/2000/svg"><g fill-rule="nonzero" fill="none"><path d="M291.452 5c-3.688.955-9.893 2.496-14.452 3.357v1.911c6.691.575 6.884.477 6.884 6.326v47.788c0 5.364-.492 5.842-6.598 6.417V73h20.558v-2.2c-5.915-.576-6.398-1.054-6.398-6.418V39.959c2.42-2.781 6.012-4.212 9.99-4.408 7.076 0 9.597 4.506 9.597 11.397v17.434c0 5.364-.479 5.842-6.598 6.417V73H325v-2.292c-5.908-.485-6.405-.962-6.405-6.326V44.078c0-8.53-5.039-13.99-13.382-13.795-5.234.189-10.467 3.256-13.76 6.7V5zM234 9c-2.695 0-5 2.203-5 5.05 0 2.754 2.305 4.95 5 4.95 2.789 0 4.993-2.19 5-4.937 0-2.837-2.21-5.03-5-5.063zm242.007 0C473.322 9 471 11.203 471 14.05c0 2.754 2.318 4.95 5.007 4.95 2.782 0 4.986-2.19 4.993-4.937 0-2.837-2.19-5.03-4.993-5.063zm-354.125 1c-12.41 0-19.51 7.993-19.51 17.314 0 11.29 12.788 15.726 15.916 17.23 6.066 2.918 12.225 6.206 12.225 14.208 0 7.338-4.55 12.15-11.757 12.15-10.039 0-14.873-10.455-16.384-14.874l-2.372.368c.948 5.083 1.987 11.763 2.743 14.208 1.134.48 2.846 1.225 5.212 1.982 2.372.757 5.587 1.414 9.001 1.414C128.995 74 138 65.999 138 55.079c0-11.664-9.953-15.53-16.209-18.25-7.2-3.206-12.224-6.321-12.224-13.285 0-5.556 3.51-10.439 10.236-10.439 8.625 0 11.28 6.587 12.887 12.137l2.366-.284c-.752-5.646-1.323-9.41-1.703-12.705-1.041-.185-2.366-.66-3.6-1.033-1.993-.66-5.212-1.22-7.87-1.22zm138.921 9l-6.314 6.312v6.028h-4.668L247 34.017l.393.95h7.095v27.454c0 7.655 3.402 11.579 9.63 11.579.675 0 1.94-.29 2.913-.768L275 69.31l-.98-2.105c-1.847 1.051-3.984 1.817-5.735 1.817-2.622 0-6.222-1.338-6.222-8.797l.007-.034V34.967h10.596c1.171-1.048 1.459-2.576.68-3.628H262.07V19h-1.267zM158.52 30c-4.869 1.73-9.55 2.89-13.942 3.851v1.724c6.303.769 6.49.863 6.49 6.615h-.007v22.175c0 5.375-.471 5.847-7.06 6.423V73h20.726v-2.212c-5.736-.576-6.214-1.049-6.214-6.423v-24.28c3.064-2.495 6.881-4.51 10.7-4.51 6.582 0 8.586 4.418 8.586 9.978v18.811c0 5.375-.47 5.848-6.68 6.424V73h20.235v-2.212c-5.633-.576-6.11-1.049-6.11-6.424V42.861c0-.862-.096-1.624-.19-2.679 3.534-3.073 7.257-4.607 10.603-4.607 7.064 0 8.873 4.796 8.873 10.36v18.43c0 5.374-.47 5.847-6.778 6.423V73H218v-2.212c-5.539-.576-6.018-1.049-6.018-6.424V42.96c0-7.58-4.289-12.762-12.023-12.762-3.149 0-5.546 1.057-8.409 2.692-1.525.862-4.489 2.78-7.158 4.798-1.72-4.708-6.018-7.49-10.792-7.49-3.34 0-5.729 1.048-8.585 2.777a138.75 138.75 0 00-6.497 4.226V30zm79.642 0c-4.847 1.729-9.508 2.877-13.88 3.844v1.725c6.278.772 6.467.87 6.467 6.623v22.171c0 5.373-.476 5.859-6.748 6.432V73h21v-2.205c-6.366-.573-6.84-1.06-6.84-6.432V30zm189.574 0c-4.948 1.729-9.699 2.884-14.163 3.838v1.731c6.403.769 6.603.87 6.603 6.623v22.171c0 5.376-.482 5.855-7.175 6.432V73h20.919v-2.205c-5.722-.577-6.21-1.056-6.21-6.432V40.078c2.91-2.494 6.793-4.509 10.582-4.509 7.18 0 9.025 4.8 9.025 10.368v18.426c0 5.376-.485 5.855-6.888 6.432V73H461v-2.205c-5.63-.577-6.11-1.056-6.11-6.432V42.955c0-7.58-4.373-12.758-12.333-12.758-3.012 0-5.432 1.05-8.346 2.778-2.521 1.54-4.655 2.878-6.502 4.22l.027-.053V30zm52.421 0c-4.855 1.729-9.5 2.877-13.876 3.844v1.725c6.27.772 6.466.87 6.466 6.623v22.171c0 5.373-.476 5.859-6.746 6.432V73h21v-2.205c-6.367-.573-6.837-1.06-6.837-6.432l-.007-.02V30zm66.576 0c-4.945 1.729-9.686 2.884-14.153 3.838v1.731c6.398.769 6.597.87 6.597 6.623v22.171c0 5.376-.488 5.855-7.176 6.432V73h20.944v-2.205c-5.718-.577-6.212-1.056-6.212-6.432V40.078c2.918-2.494 6.799-4.509 10.575-4.509 7.175 0 9.019 4.8 9.019 10.368v18.426c0 5.376-.486 5.855-6.884 6.432V73H580v-2.205c-5.629-.577-6.106-1.056-6.106-6.432V42.955c0-7.58-4.37-12.758-12.324-12.758-3 0-5.422 1.05-8.327 2.778-2.52 1.54-4.665 2.878-6.511 4.22V30zm-199.745 0c-8.437 0-14.439 5.673-14.439 12.585 0 6.352 5.32 9.61 11.621 12.393 5.328 2.308 7.555 5.094 7.555 9.034 0 4.706-3.39 7.109-6.877 7.109-5.708 0-10.066-6.149-11.621-11.722v.066l-2.226.508c0 3.744.584 9.025 1.163 10.469 1.84 1.535 6.296 3.558 11.242 3.558C350.764 74 359 69.674 359 60.836c0-6.43-4.648-10.178-11.72-13.06-4.264-1.726-8.433-4.427-8.433-8.367 0-3.171 2.034-6.53 6.392-6.53 3.678 0 6.783 2.214 9.695 8.56l2.325-.58c-.19-1.637-1.166-7.019-2.14-9.232-1.932-.86-4.649-1.627-8.132-1.627zm38.157 0c-8.707 0-21.14 7.014-21.144 23.15 0 9.987 7.74 20.85 21.236 20.85C394.903 74 406 66.315 406 51.331 406 39.321 397.294 30 385.144 30zm125.8 0c-6.858 1.241-12.557 4.901-14.886 6.628-2.125 1.535-3.29 2.89-3.29 4.131 0 1.734 2.617 3.268 4.165 3.268 1.063 0 1.933-.668 2.221-1.825 1.063-4.038 3.095-8.071 7.824-8.071 5.13 0 7.93 3.168 7.93 9.125v3.268c-2.899 2.014-10.816 4.808-15.555 6.728-5.028 2.014-7.353 5.276-7.353 9.699C492 68.237 496.539 74 503.604 74c2.03 0 7.251-3.649 11.305-6.246.577 2.405 2.028 5.673 5.318 6.246l.06-.053L530 69.29l-.875-2.115c-1.738.867-3.38 1.252-4.158 1.252-1.45 0-2.705-1.627-2.705-5.186V41.63c0-3.465-.485-6.827-3.673-9.324-1.935-1.437-4.93-2.306-7.645-2.306zm-125.92 4C393.52 34 398 43.84 398 54.437 397.998 67.307 393.052 72 387.265 72 379.139 72 374 62.743 374 50.62 374 40.59 378.76 34 385.023 34zM515 50v14.477c-2.652 1.899-6.273 3.523-8.53 3.523-2.947 0-6.47-2.254-6.47-7.052 0-3.259 1.662-5.065 5.099-6.786 1.853-.905 7.745-3.343 9.901-4.162z" fill="#FFF"/><path d="M55.302 76.946c20.405-8.455 30.097-31.848 21.642-52.25C68.494 4.29 45.102-5.396 24.696 3.054 4.29 11.508-5.398 34.9 3.056 55.304c8.45 20.405 31.843 30.092 52.247 21.642" fill="#ADADAD"/><path d="M67.512 49.24c-2.956-5.078-7.624-5.137-8.196-5.12v-.02L79 40 59.316 35.9v-.006c.205-.185 4.03-3.562 9.766-3.649 4.336-.062 8.083-5.364 5.69-9.437 0 0-.708 6.401-8.79 4.267-5.681-1.502-9.025 1.761-9.42 2.177 0-.002 0-.006-.006-.01l11.024-16.82-16.821 11.02c-.003-.003-.006-.003-.01-.003.012-.25.32-5.36 4.333-9.49C58.1 10.84 57 4.445 52.43 3.257c0 0 4.021 5.025-3.203 9.23-5.074 2.957-5.13 7.624-5.117 8.197h-.012L39.998 1l-4.102 19.681c0 .003-.002.003-.006.003-.163-.178-3.562-4.012-3.652-9.77-.061-4.331-5.364-8.082-9.434-5.687 0 0 6.398.709 4.264 8.788-1.503 5.696 1.78 9.04 2.18 9.422 0 0 0 .003-.006.003L12.424 12.42l8.978 13.708 2.039 3.113s0 .003-.003.006c-.164-.01-5.33-.29-9.493-4.332-3.11-3.014-9.509-1.915-10.697 2.654 0 0 5.028-4.021 9.234 3.2 2.965 5.092 7.648 5.132 8.206 5.12 0 .003-.006.01-.006.012L1 39.999 20.682 44.1v.003c-.13.12-3.975 3.57-9.773 3.655-4.333.065-8.08 5.365-5.69 9.437 0 0 .714-6.4 8.794-4.268 5.705 1.51 9.046-1.788 9.422-2.18.003.004.006.01.013.013L12.424 67.579l16.818-11.018c-.006.175-.29 5.333-4.33 9.496-3.017 3.106-1.918 9.504 2.649 10.693 0 0-4.019-5.025 3.202-9.232 5.093-2.964 5.136-7.648 5.12-8.205.007.003.013.003.016.006L40 79l4.101-19.681v-.003c.148.163 3.566 4.003 3.653 9.776.064 4.332 5.363 8.08 9.437 5.687 0 0-6.401-.708-4.265-8.79 1.502-5.691-1.776-9.034-2.18-9.423.007-.003.01-.006.015-.009l16.82 11.02-5.818-8.88-5.204-7.941c.231.012 5.355.314 9.49 4.333 3.11 3.014 9.509 1.917 10.697-2.652-.01.01-5.034 4.028-9.24-3.189" fill="#FFF"/></g></svg>